# This file uses centimeters as units for non-parametric coordinates.

mtllib BigTree.mtl
g default
v 2.454332 -0.037639 1.708593
v 2.275311 -0.037639 1.708593
v 2.185801 -0.037639 1.863630
v 2.275311 -0.037639 2.018667
v 2.454332 -0.037639 2.018667
v 2.543843 -0.037639 1.863630
v 2.413787 0.298885 1.723743
v 2.234766 0.298885 1.723743
v 2.145256 0.298885 1.878780
v 2.234766 0.298885 2.033817
v 2.413787 0.298885 2.033817
v 2.503298 0.298885 1.878780
v 2.406787 0.635409 1.755973
v 2.227766 0.635409 1.755973
v 2.138255 0.635409 1.911010
v 2.227766 0.635409 2.066047
v 2.406787 0.635409 2.066047
v 2.496297 0.635409 1.911010
vt 0.157400 0.278449
vt 0.199436 0.243729
vt 0.244799 0.213007
vt 0.481453 0.920862
vt 0.533390 0.926474
vt 0.225946 0.913237
vt 0.267022 0.943540
vt 0.175920 0.281769
vt 0.217035 0.249100
vt 0.428170 0.899860
vt 0.468252 0.933321
vt 0.162608 0.915466
vt 0.214737 0.927857
vt 0.258185 0.959099
vt 0.188549 0.293672
vt 0.230747 0.257738
vt 0.424295 0.915619
vt 0.464438 0.949085
vt 0.150556 0.926643
vt 0.201424 0.937832
vt 0.244106 0.966719
vt 0.520150 0.938910
vt 0.516390 0.954699
vt 0.262044 0.221708
vt 0.277392 0.228560
vt 0.175466 0.902977
vt 0.441347 0.887341
vn 0.646447 0.111860 -0.754714
vn -0.298465 0.007006 -0.954395
vn -0.547518 0.011281 -0.836718
vn 0.404532 0.090667 -0.910018
vn -0.863140 -0.081558 -0.498334
vn -0.866012 -0.005465 -0.499993
vn -0.859141 -0.125840 0.496025
vn -0.385055 -0.087751 0.918712
vn -0.585662 -0.099975 0.804366
vn -0.861694 -0.099896 0.497499
vn 0.000000 -0.044973 0.998988
vn -0.000000 -0.064568 0.997913
vn 0.863140 0.081558 0.498334
vn 0.986823 0.123594 -0.104426
vn 0.995238 0.083127 -0.050908
vn 0.866013 0.005466 0.499992
vn -0.595254 0.064328 -0.800959
vn 0.541128 0.091321 -0.835967
vn -0.865639 0.029858 -0.499777
vn -0.432740 -0.094865 0.896514
vn -0.864151 -0.065760 0.498918
vn -0.000000 -0.095337 0.995445
vn 0.983259 0.003006 0.182189
vn 0.865639 -0.029858 0.499777
s 1
g pCylinder1 BigTree1 TREES
usemtl StingrayPBS2SG
f 1/1/1 2/2/2 8/9/3 7/8/4
f 2/2/2 3/3/5 9/24/6 8/9/3
s 2
f 3/27/7 4/4/8 10/11/9 9/10/10
f 4/4/8 5/5/11 11/22/12 10/11/9
s 1
f 5/26/13 6/6/14 12/13/15 11/12/16
f 6/6/14 1/7/1 7/14/4 12/13/15
f 7/8/4 8/9/3 14/16/17 13/15/18
f 8/9/3 9/24/6 15/25/19 14/16/17
s 2
f 9/10/10 10/11/9 16/18/20 15/17/21
f 10/11/9 11/22/12 17/23/22 16/18/20
s 1
f 11/12/16 12/13/15 18/20/23 17/19/24
f 12/13/15 7/14/4 13/21/18 18/20/23
g default
v 2.790878 1.203729 1.233094
v 1.951519 1.203729 1.233094
v 1.531840 1.203729 1.960000
v 1.951519 1.203729 2.686905
v 2.790877 1.203729 2.686905
v 3.210557 1.203729 1.960000
v 2.620576 2.882445 1.789604
v 2.371198 1.203729 1.960000
vt 0.146243 0.675341
vt 0.048748 0.675341
vt 0.000000 0.759774
vt 0.048748 0.844207
vt 0.146242 0.844207
vt 0.194990 0.759774
vt 0.502994 0.525120
vt 0.579886 0.465179
vt 0.674979 0.443671
vt 0.351673 0.439433
vt 0.443767 0.471432
vt 0.509161 0.590905
vt 0.592104 0.642146
vt 0.447165 0.789060
vt 0.097495 0.759774
vt 0.414029 0.569567
vt 0.352515 0.673789
vt 0.644893 0.674972
vt 0.256630 0.461159
vn 0.000000 -1.000000 0.000000
vn 0.000000 -1.000000 0.000000
vn 0.000000 -1.000000 0.000000
vn 0.451570 0.321700 -0.832222
vn -0.493976 0.444584 -0.747217
vn 0.415506 0.628099 -0.657911
vn -0.771201 0.454970 -0.445254
vn -0.738535 0.522259 0.426393
vn -0.435240 0.553155 0.710342
vn -0.413422 0.551883 0.724229
vn -0.000000 0.471400 0.881919
vn 0.816095 0.334640 0.471173
vn 0.941900 0.334322 0.032452
vn 0.000000 -1.000000 0.000000
vn 0.000000 -1.000000 0.000000
vn 0.000000 -1.000000 0.000000
vn 0.000000 -1.000000 -0.000000
s 1
g BigTree1 TREES pCone3
usemtl StingrayPBS2SG
f 23/32/25 26/42/26 24/33/27
s 2
f 19/34/28 20/35/29 25/45/30
f 20/35/29 21/36/31 25/45/30
s 3
f 21/46/32 22/37/33 25/44/34
f 22/37/33 23/38/35 25/44/34
s 2
f 23/43/36 24/39/37 25/41/30
f 24/39/37 19/40/28 25/41/30
s 1
f 19/28/38 26/42/26 20/29/39
f 21/30/40 26/42/26 22/31/41
f 20/29/39 26/42/26 21/30/40
f 19/28/38 24/33/27 26/42/26
f 22/31/41 26/42/26 23/32/25
g default
v 2.787657 2.511649 1.543071
v 2.415746 2.511649 1.543071
v 2.229791 2.511649 1.865155
v 2.415746 2.511649 2.187239
v 2.787657 2.511649 2.187239
v 2.973612 2.511649 1.865155
v 2.578587 3.255470 1.714492
v 2.601702 2.511649 1.865155
vt 0.976625 0.049135
vt 0.933426 0.049135
vt 0.911826 0.086546
vt 0.933426 0.123958
vt 0.976625 0.123958
vt 0.998224 0.086546
vt 0.277160 0.905608
vt 0.314742 0.884307
vt 0.356905 0.874902
vt 0.892305 0.127581
vt 0.934738 0.135677
vt 0.534865 0.818630
vt 0.568066 0.846267
vt 0.505422 0.913547
vt 0.955025 0.086546
vt 0.492729 0.809103
vt 0.891698 0.231683
vt 0.342006 0.970768
vt 0.852011 0.143155
vn 0.000000 -1.000000 0.000000
vn 0.000000 -1.000000 0.000000
vn 0.000000 -1.000000 0.000000
vn 0.507646 0.326439 -0.797329
vn -0.498148 0.296815 -0.814708
vn 0.344730 0.627412 -0.698223
vn -0.828394 0.291579 -0.478273
vn -0.772304 0.452469 0.445890
vn -0.385107 0.553603 0.738387
vn -0.423286 0.550164 0.719825
vn -0.000000 0.536396 0.843966
vn 0.755225 0.489400 0.436030
vn 0.876543 0.477605 0.059711
vn 0.000000 -1.000000 0.000000
vn 0.000000 -1.000000 0.000000
vn 0.000000 -1.000000 -0.000000
vn 0.000000 -1.000000 0.000000
s 1
g BigTree1 TREES pCone1
usemtl StingrayPBS2SG
f 31/51/42 34/61/43 32/52/44
s 2
f 27/53/45 28/54/46 33/64/47
f 28/54/46 29/55/48 33/64/47
s 3
f 29/65/49 30/56/50 33/63/51
f 30/56/50 31/57/52 33/63/51
s 2
f 31/62/53 32/58/54 33/60/47
f 32/58/54 27/59/45 33/60/47
s 1
f 27/47/55 34/61/43 28/48/56
f 29/49/57 34/61/43 30/50/58
f 28/48/56 34/61/43 29/49/57
f 27/47/55 32/52/44 34/61/43
f 30/50/58 34/61/43 31/51/42
g default
v 2.793268 1.959264 1.458238
v 2.229926 1.959264 1.458238
v 1.948256 1.959264 1.946106
v 2.229926 1.959264 2.433974
v 2.793268 1.959264 2.433974
v 3.074938 1.959264 1.946106
v 2.606901 3.085947 1.747206
v 2.511597 1.959264 1.946106
vt 0.265817 0.783677
vt 0.200382 0.783677
vt 0.167665 0.840345
vt 0.200382 0.897013
vt 0.265817 0.897013
vt 0.298534 0.840345
vt 0.745937 0.589067
vt 0.799503 0.551485
vt 0.862938 0.535433
vt 0.702377 0.000000
vt 0.765283 0.018014
vt 0.580113 0.332993
vt 0.632873 0.371698
vt 0.537952 0.470246
vt 0.233099 0.840345
vt 0.516681 0.316929
vt 0.702279 0.159397
vt 0.841255 0.687233
vt 0.639864 0.019334
vn 0.000000 -1.000000 0.000000
vn 0.000000 -1.000000 0.000000
vn 0.000000 -1.000000 -0.000000
vn 0.482478 0.291640 -0.825930
vn -0.507829 0.369501 -0.778189
vn 0.390868 0.610228 -0.689089
vn -0.799029 0.385663 -0.461320
vn -0.744399 0.511038 0.429779
vn -0.406957 0.570839 0.713112
vn -0.411146 0.570795 0.710740
vn -0.000000 0.520478 0.853875
vn 0.790330 0.408865 0.456297
vn 0.918634 0.391288 0.054813
vn 0.000000 -1.000000 0.000000
vn 0.000000 -1.000000 0.000000
vn 0.000000 -1.000000 -0.000000
vn 0.000000 -1.000000 0.000000
s 1
g BigTree1 TREES pCone2
usemtl StingrayPBS2SG
f 39/70/59 42/80/60 40/71/61
s 2
f 35/72/62 36/73/63 41/83/64
f 36/73/63 37/74/65 41/83/64
s 3
f 37/84/66 38/75/67 41/82/68
f 38/75/67 39/76/69 41/82/68
s 2
f 39/81/70 40/77/71 41/79/64
f 40/77/71 35/78/62 41/79/64
s 1
f 35/66/72 42/80/60 36/67/73
f 37/68/74 42/80/60 38/69/75
f 36/67/73 42/80/60 37/68/74
f 35/66/72 40/71/61 42/80/60
f 38/69/75 42/80/60 39/70/59
g default
v 2.882430 0.396312 0.914099
v 1.758825 0.396312 0.914099
v 1.197023 0.396312 1.887169
v 1.758825 0.396312 2.860239
v 2.882429 0.396312 2.860239
v 3.444232 0.396312 1.887169
v 2.613789 2.643520 1.839340
v 2.320627 0.396312 1.887169
vt 0.195767 0.311928
vt 0.065256 0.311928
vt 0.000000 0.424954
vt 0.065256 0.537981
vt 0.195767 0.537981
vt 0.261023 0.424954
vt 0.284004 0.328433
vt 0.375158 0.235030
vt 0.499301 0.194758
vt 0.128358 0.000000
vt 0.251943 0.041952
vt 0.388989 0.020208
vt 0.503282 0.083218
vt 0.303526 0.285093
vt 0.130511 0.424954
vt 0.260052 0.000000
vt 0.130240 0.303402
vt 0.507817 0.503258
vt 0.000000 0.023612
vn 0.000000 -1.000000 0.000000
vn 0.000000 -1.000000 -0.000000
vn 0.000000 -1.000000 0.000000
vn 0.432977 0.386957 -0.814122
vn -0.469163 0.482918 -0.739376
vn 0.405167 0.668201 -0.623977
vn -0.763500 0.471971 -0.440807
vn -0.756696 0.486362 0.436878
vn -0.456794 0.506132 0.731553
vn -0.425824 0.503527 0.751754
vn -0.000000 0.413615 0.910452
vn 0.822237 0.313957 0.474719
vn 0.937932 0.346752 0.006806
vn 0.000000 -1.000000 0.000000
vn 0.000000 -1.000000 0.000000
vn 0.000000 -1.000000 -0.000000
vn 0.000000 -1.000000 -0.000000
s 1
g BigTree1 TREES pCone4
usemtl StingrayPBS2SG
f 47/89/76 50/99/77 48/90/78
s 2
f 43/91/79 44/92/80 49/102/81
f 44/92/80 45/93/82 49/102/81
s 3
f 45/103/83 46/94/84 49/101/85
f 46/94/84 47/95/86 49/101/85
s 2
f 47/100/87 48/96/88 49/98/81
f 48/96/88 43/97/79 49/98/81
s 1
f 43/85/89 48/90/78 50/99/77
f 46/88/90 50/99/77 47/89/76
f 44/86/91 50/99/77 45/87/92
f 45/87/92 50/99/77 46/88/90
f 43/85/89 50/99/77 44/86/91
