# This file uses centimeters as units for non-parametric coordinates.

mtllib Button.mtl
g default
v 13.097262 0.106042 -6.450404
v 5.648977 0.106042 -6.450404
v 1.924835 0.106042 0.000000
v 5.648977 0.106042 6.450404
v 13.097262 0.106042 6.450404
v 16.821404 0.106042 0.000000
v 12.598325 2.703717 -5.586217
v 6.147921 2.703717 -5.586217
v 2.922715 2.703717 0.000000
v 6.147914 2.703717 5.586217
v 12.598325 2.703717 5.586217
v 15.823524 2.703717 0.000000
v 11.235194 4.568204 -3.225206
v 7.511052 4.568204 -3.225206
v 5.648977 4.568204 0.000000
v 7.511045 4.568204 3.225206
v 11.235194 4.568204 3.225206
v 13.097262 4.568204 0.000000
v 9.373119 5.250654 0.000000
v 13.806396 0.030229 -7.678650
v 4.939849 0.030229 -7.678650
v 5.108999 0.605876 -7.385676
v 13.637247 0.605876 -7.385676
v 0.506572 0.030229 0.000000
v 0.844872 0.605876 0.000000
v 4.939849 0.030229 7.678650
v 5.108992 0.605876 7.385676
v 13.806389 0.030229 7.678650
v 13.637240 0.605876 7.385676
v 18.239666 0.030229 0.000000
v 17.901367 0.605876 0.000000
v 5.829742 1.557328 -6.137310
v 5.654672 0.843006 -6.440550
v 12.916496 1.557328 -6.137310
v 13.091574 0.843006 -6.440550
v 16.459874 1.557328 0.000000
v 16.810021 0.843006 0.000000
v 12.916496 1.557328 6.137310
v 13.091574 0.843006 6.440550
v 5.829742 1.557328 6.137310
v 5.654665 0.843006 6.440550
v 2.286365 1.557328 0.000000
v 1.936218 0.843006 0.000000
v 6.221664 1.457235 -5.458486
v 6.529180 0.552766 -4.925847
v 3.685240 0.552766 0.000000
v 3.070202 1.292938 0.000000
v 12.524581 1.457235 -5.458486
v 12.217059 0.552766 -4.925847
v 15.676036 1.292938 0.000000
v 15.060998 0.552766 0.000000
v 12.524574 1.292938 5.458486
v 12.217059 0.552766 4.925847
v 6.221658 1.292938 5.458486
v 6.529180 0.552766 4.925847
vt 0.880645 0.275838
vt 0.909218 0.414276
vt 0.898588 0.413716
vt 0.871105 0.280560
vt 0.866269 0.548949
vt 0.857278 0.543251
vt 0.351193 0.779767
vt 0.488325 0.745474
vt 0.488207 0.756119
vt 0.356307 0.789103
vt 0.624664 0.782797
vt 0.619344 0.792018
vt 0.908899 0.643967
vt 0.861258 0.746413
vt 0.845009 0.733262
vt 0.888373 0.640016
vt 0.601168 0.248409
vt 0.651847 0.412564
vt 0.902696 0.531156
vt 0.562828 0.452044
vt 0.699743 0.281463
vt 0.108972 0.727679
vt 0.001323 0.761980
vt 0.000000 0.741118
vt 0.097982 0.709897
vt 0.718826 0.224551
vt 0.694278 0.520862
vt 0.187793 0.646734
vt 0.783287 0.481374
vt 0.620251 0.191497
vt 0.659997 0.236480
vt 0.679080 0.179568
vt 0.640914 0.293392
vt 0.408664 0.225296
vt 0.527414 0.225314
vt 0.538737 0.244930
vt 0.397338 0.244911
vt 0.586804 0.122483
vt 0.609454 0.122484
vt 0.349305 0.122447
vt 0.326655 0.122446
vt 0.527444 0.019634
vt 0.538771 0.000019
vt 0.408695 0.019616
vt 0.397372 0.000000
vt 0.403864 0.471966
vt 0.522794 0.472126
vt 0.531730 0.487616
vt 0.394917 0.487449
vt 0.418032 0.447451
vt 0.508648 0.447599
vt 0.582398 0.369209
vt 0.600280 0.369216
vt 0.344537 0.368889
vt 0.326655 0.368882
vt 0.372852 0.368901
vt 0.554084 0.369197
vt 0.523072 0.266132
vt 0.532018 0.250649
vt 0.404141 0.265972
vt 0.395206 0.250482
vt 0.418287 0.290499
vt 0.508904 0.290647
vt 0.783633 0.251481
vt 0.725203 0.355200
vt 0.718722 0.344232
vt 0.770258 0.251544
vt 0.605895 0.355953
vt 0.612224 0.344909
vt 0.710004 0.328681
vt 0.754541 0.251257
vt 0.723873 0.148539
vt 0.717220 0.160170
vt 0.545959 0.252756
vt 0.559343 0.252692
vt 0.620809 0.329685
vt 0.709216 0.173683
vt 0.604860 0.149250
vt 0.611641 0.160785
vt 0.575322 0.252518
vt 0.619402 0.174436
vt 0.983032 0.141355
vt 0.983601 0.000000
vt 0.993888 0.002738
vt 0.993341 0.138699
vt 0.785199 0.198192
vt 0.785767 0.056837
vt 0.796054 0.059575
vt 0.795507 0.195537
vt 0.723346 0.074207
vt 0.610370 0.073192
vt 0.615624 0.052959
vt 0.718456 0.053884
vt 0.621105 0.078928
vt 0.734081 0.079944
vt 0.728827 0.100176
vt 0.625995 0.099252
vt 0.630656 0.363909
vt 0.740876 0.378567
vt 0.882727 0.537334
vt 0.715485 0.569499
vt 0.605245 0.554824
vt 0.169725 0.636221
vt 0.615552 0.457996
vt 0.636786 0.512145
vt 0.730556 0.475399
vt 0.709359 0.421250
vn 0.000000 0.453583 -0.891214
vn 0.000000 0.453583 -0.891214
vn 0.000000 0.453583 -0.891214
vn 0.000000 0.453583 -0.891214
vn -0.771814 0.453583 -0.445607
vn -0.771814 0.453583 -0.445607
vn -0.771814 0.453583 -0.445607
vn -0.771814 0.453583 -0.445607
vn -0.771814 0.453583 0.445607
vn -0.771814 0.453583 0.445607
vn -0.771814 0.453583 0.445607
vn -0.771814 0.453583 0.445607
vn 0.000000 0.453582 0.891214
vn 0.000000 0.453582 0.891214
vn 0.000000 0.453582 0.891214
vn 0.000000 0.453582 0.891214
vn 0.771814 0.453583 0.445607
vn 0.771814 0.453583 0.445607
vn 0.771814 0.453583 0.445607
vn 0.771814 0.453583 0.445607
vn 0.771814 0.453584 -0.445607
vn 0.771814 0.453584 -0.445607
vn 0.771814 0.453584 -0.445607
vn 0.771814 0.453584 -0.445607
vn 0.000000 0.784797 -0.619753
vn 0.000000 0.784797 -0.619753
vn 0.000000 0.784797 -0.619753
vn 0.000000 0.784797 -0.619753
vn -0.536721 0.784797 -0.309876
vn -0.536721 0.784797 -0.309876
vn -0.536721 0.784797 -0.309876
vn -0.536721 0.784797 -0.309876
vn -0.536721 0.784797 0.309876
vn -0.536721 0.784797 0.309876
vn -0.536721 0.784797 0.309876
vn -0.536721 0.784797 0.309876
vn 0.000000 0.784797 0.619753
vn 0.000000 0.784797 0.619753
vn 0.000000 0.784797 0.619753
vn 0.000000 0.784797 0.619753
vn 0.536721 0.784797 0.309876
vn 0.536721 0.784797 0.309876
vn 0.536721 0.784797 0.309876
vn 0.536721 0.784797 0.309876
vn 0.536721 0.784798 -0.309876
vn 0.536721 0.784798 -0.309876
vn 0.536721 0.784798 -0.309876
vn 0.536721 0.784798 -0.309876
vn 0.000000 0.978338 -0.207014
vn 0.000000 0.978338 -0.207014
vn 0.000000 0.978338 -0.207014
vn -0.179280 0.978338 -0.103507
vn -0.179280 0.978338 -0.103507
vn -0.179280 0.978338 -0.103507
vn -0.179281 0.978338 0.103507
vn -0.179281 0.978338 0.103507
vn -0.179280 0.978338 0.103507
vn 0.000000 0.978338 0.207014
vn 0.000000 0.978338 0.207014
vn 0.000000 0.978338 0.207014
vn 0.179280 0.978338 0.103507
vn 0.179280 0.978338 0.103507
vn 0.179280 0.978338 0.103507
vn 0.179280 0.978338 -0.103507
vn 0.179280 0.978338 -0.103507
vn 0.179280 0.978338 -0.103507
vn 0.000000 -0.998101 0.061604
vn 0.000000 -0.998101 0.061604
vn 0.000000 -0.998101 0.061604
vn 0.000000 -0.998101 0.061604
vn 0.053350 -0.998101 0.030802
vn 0.053350 -0.998101 0.030802
vn 0.053350 -0.998101 0.030802
vn 0.053350 -0.998101 0.030802
vn 0.053350 -0.998101 -0.030802
vn 0.053350 -0.998101 -0.030802
vn 0.053350 -0.998101 -0.030802
vn 0.053350 -0.998101 -0.030802
vn 0.000000 -0.998101 -0.061604
vn 0.000000 -0.998101 -0.061604
vn 0.000000 -0.998101 -0.061604
vn 0.000000 -0.998101 -0.061604
vn -0.053350 -0.998101 -0.030802
vn -0.053350 -0.998101 -0.030802
vn -0.053350 -0.998101 -0.030802
vn -0.053350 -0.998101 -0.030802
vn -0.053350 -0.998101 0.030802
vn -0.053350 -0.998101 0.030802
vn -0.053350 -0.998101 0.030802
vn -0.053350 -0.998101 0.030802
vn -0.723122 -0.543633 -0.426096
vn -0.723122 -0.543633 -0.426096
vn -0.723122 -0.543633 -0.426096
vn -0.723122 -0.543633 -0.426096
vn 0.000000 -0.507444 -0.861685
vn 0.000000 -0.507444 -0.861685
vn 0.000000 -0.507444 -0.861685
vn 0.000000 -0.507444 -0.861685
vn 0.723122 -0.543634 -0.426095
vn 0.723122 -0.543634 -0.426095
vn 0.723122 -0.543634 -0.426095
vn 0.723122 -0.543634 -0.426095
vn 0.702936 -0.584102 0.405840
vn 0.702936 -0.584102 0.405840
vn 0.702936 -0.584102 0.405840
vn 0.702936 -0.584102 0.405840
vn 0.000000 -0.584101 0.811681
vn 0.000000 -0.584101 0.811681
vn 0.000000 -0.584101 0.811681
vn 0.000000 -0.584101 0.811681
vn -0.702936 -0.584102 0.405840
vn -0.702936 -0.584102 0.405840
vn -0.702936 -0.584102 0.405840
vn -0.702936 -0.584102 0.405840
vn 0.000000 0.433260 -0.901269
vn 0.000000 0.433260 -0.901269
vn 0.000000 0.433260 -0.901269
vn 0.000000 0.433260 -0.901269
vn 0.780522 0.433259 -0.450635
vn 0.780522 0.433259 -0.450635
vn 0.780522 0.433259 -0.450635
vn 0.780522 0.433259 -0.450635
vn 0.780522 0.433260 0.450635
vn 0.780522 0.433260 0.450635
vn 0.780522 0.433260 0.450635
vn 0.780522 0.433260 0.450635
vn 0.000000 0.433260 0.901269
vn 0.000000 0.433261 0.901269
vn 0.000000 0.433260 0.901269
vn 0.000000 0.433260 0.901269
vn -0.780522 0.433260 0.450634
vn -0.780522 0.433260 0.450634
vn -0.780522 0.433260 0.450634
vn -0.780522 0.433260 0.450634
vn -0.780522 0.433260 -0.450635
vn -0.780522 0.433260 -0.450635
vn -0.780522 0.433260 -0.450635
vn -0.780522 0.433260 -0.450635
vn -0.106164 0.977198 -0.183882
vn 0.106164 0.977198 -0.183882
vn 0.106164 0.977198 -0.183882
vn -0.106164 0.977198 -0.183882
vn -0.212329 0.977198 -0.000000
vn -0.106164 0.977198 -0.183882
vn -0.106164 0.977198 -0.183882
vn -0.212329 0.977198 -0.000000
vn -0.106164 0.977198 0.183882
vn -0.212329 0.977198 -0.000000
vn -0.212329 0.977198 -0.000000
vn -0.106164 0.977198 0.183882
vn 0.106164 0.977198 0.183882
vn -0.106164 0.977198 0.183882
vn -0.106164 0.977198 0.183882
vn 0.106164 0.977198 0.183882
vn 0.212329 0.977198 0.000000
vn 0.106164 0.977198 0.183882
vn 0.106164 0.977198 0.183882
vn 0.212329 0.977198 0.000000
vn 0.106164 0.977198 -0.183882
vn 0.212329 0.977198 0.000000
vn 0.212329 0.977198 0.000000
vn 0.106164 0.977198 -0.183882
vn 0.081852 0.986510 0.141772
vn 0.163704 0.986510 0.000000
vn 0.163704 0.986510 0.000000
vn 0.081852 0.986510 0.141772
vn -0.271188 -0.962227 0.023999
vn -0.111296 -0.983340 -0.143721
vn -0.111391 -0.983330 -0.143718
vn -0.271301 -0.962186 0.024380
vn -0.111296 -0.983340 -0.143721
vn 0.111297 -0.983340 -0.143721
vn 0.111392 -0.983329 -0.143719
vn -0.111391 -0.983330 -0.143718
vn -0.081852 0.986510 0.141772
vn 0.081852 0.986510 0.141772
vn 0.081852 0.986510 0.141772
vn -0.081852 0.986510 0.141772
vn 0.111297 -0.983340 -0.143721
vn 0.271189 -0.962227 0.023999
vn 0.271302 -0.962185 0.024379
vn 0.111392 -0.983329 -0.143719
vn -0.163704 0.986510 -0.000000
vn -0.081852 0.986510 0.141772
vn -0.081852 0.986510 0.141772
vn -0.163704 0.986510 -0.000000
vn 0.271189 -0.962227 0.023999
vn 0.159806 -0.947548 0.276793
vn 0.159806 -0.947548 0.276793
vn 0.271302 -0.962185 0.024379
vn -0.081852 0.986510 -0.141772
vn -0.163704 0.986510 -0.000000
vn -0.163704 0.986510 -0.000000
vn -0.081852 0.986510 -0.141772
vn 0.159806 -0.947548 0.276793
vn -0.159806 -0.947548 0.276793
vn -0.159806 -0.947548 0.276793
vn 0.159806 -0.947548 0.276793
vn 0.081852 0.986510 -0.141772
vn -0.081852 0.986510 -0.141772
vn -0.081852 0.986510 -0.141772
vn 0.081852 0.986510 -0.141772
vn -0.159806 -0.947548 0.276793
vn -0.271188 -0.962227 0.023999
vn -0.271301 -0.962186 0.024380
vn -0.159806 -0.947548 0.276793
vn 0.163704 0.986510 0.000000
vn 0.081852 0.986510 -0.141772
vn 0.081852 0.986510 -0.141772
vn 0.163704 0.986510 0.000000
s off
g Button:pSphere1
usemtl initialShadingGroup
f 20/82/1 21/83/2 22/84/3 23/85/4
f 21/1/5 24/2/6 25/3/7 22/4/8
f 24/2/9 26/5/10 27/6/11 25/3/12
f 26/86/13 28/87/14 29/88/15 27/89/16
f 28/7/17 30/8/18 31/9/19 29/10/20
f 30/8/21 20/11/22 23/12/23 31/9/24
f 7/99/25 8/29/26 14/106/27 13/107/28
f 8/29/29 9/101/30 15/27/31 14/106/32
f 9/101/33 10/102/34 16/105/35 15/27/36
f 10/102/37 11/20/38 17/104/39 16/105/40
f 11/20/41 12/98/42 18/18/43 17/104/44
f 12/98/45 7/99/46 13/107/47 18/18/48
f 13/17/49 14/30/50 19/31/51
f 14/30/52 15/32/53 19/31/54
f 15/32/55 16/26/56 19/31/57
f 16/26/58 17/21/59 19/31/60
f 17/21/61 18/33/62 19/31/63
f 18/33/64 13/17/65 19/31/66
f 1/34/67 2/35/68 21/36/69 20/37/70
f 2/35/71 3/38/72 24/39/73 21/36/74
f 3/38/75 4/42/76 26/43/77 24/39/78
f 4/42/79 5/44/80 28/45/81 26/43/82
f 5/44/83 6/40/84 30/41/85 28/45/86
f 6/40/87 1/34/88 20/37/89 30/41/90
f 44/66/91 45/70/92 46/71/93 47/67/94
f 45/70/95 44/66/96 48/69/97 49/76/98
f 49/76/99 48/69/100 50/75/101 51/80/102
f 51/80/103 50/75/104 52/79/105 53/81/106
f 53/81/107 52/79/108 54/73/109 55/77/110
f 55/77/111 54/73/112 47/67/113 46/71/114
f 34/90/115 32/91/116 8/92/117 7/93/118
f 36/13/119 34/14/120 7/15/121 12/16/122
f 38/19/123 36/13/124 12/16/125 11/100/126
f 40/94/127 38/95/128 11/96/129 10/97/130
f 42/22/131 40/23/132 10/24/133 9/25/134
f 32/28/135 42/22/136 9/25/137 8/103/138
f 33/46/139 35/47/140 23/48/141 22/49/142
f 43/54/143 33/46/144 22/49/145 25/55/146
f 41/60/147 43/54/148 25/55/149 27/61/150
f 39/58/151 41/60/152 27/61/153 29/59/154
f 37/52/155 39/58/156 29/59/157 31/53/158
f 35/47/159 37/52/160 31/53/161 23/48/162
f 33/46/163 43/54/164 46/56/165 45/50/166
f 42/64/167 32/65/168 44/66/169 47/67/170
f 32/65/171 34/68/172 48/69/173 44/66/174
f 35/47/175 33/46/176 45/50/177 49/51/178
f 34/68/179 36/74/180 50/75/181 48/69/182
f 37/52/183 35/47/184 49/51/185 51/57/186
f 36/74/187 38/78/188 52/79/189 50/75/190
f 39/58/191 37/52/192 51/57/193 53/63/194
f 38/78/195 40/72/196 54/73/197 52/79/198
f 41/60/199 39/58/200 53/63/201 55/62/202
f 40/72/203 42/64/204 47/67/205 54/73/206
f 43/54/207 41/60/208 55/62/209 46/56/210
