# This file uses centimeters as units for non-parametric coordinates.

mtllib GateHalf1.mtl
g default
v -5.635233 109.418430 -5.349967
v -7.786130 109.418430 -5.349967
v -8.861578 109.418430 -7.212698
v -7.786130 109.418430 -9.075428
v -5.635234 109.418430 -9.075428
v -4.559786 109.418430 -7.212698
v -5.635233 128.487338 -5.349967
v -7.786130 128.487338 -5.349967
v -8.861578 128.487338 -7.212698
v -7.786130 128.487338 -9.075428
v -5.635234 128.487338 -9.075428
v -4.559786 128.487338 -7.212698
v -6.710682 109.418430 -7.212698
v -6.283667 110.066867 -4.796121
v -7.137696 110.066867 -4.796121
v -7.137696 127.838909 -4.796121
v -6.283667 127.838909 -4.796121
v -6.009607 129.579441 -5.998402
v -7.411757 129.579441 -5.998398
v -8.112832 129.579441 -7.212700
v -7.411757 129.579441 -8.426994
v -6.009607 129.579441 -8.426995
v -5.308532 129.579441 -7.212696
v -5.269329 130.342197 -4.716206
v -8.152035 130.342197 -4.716199
v -9.593387 130.342197 -7.212701
v -8.152035 130.342197 -9.709192
v -5.269329 130.342197 -9.709196
v -3.827976 130.342197 -7.212694
v -5.269329 131.512821 -4.716207
v -8.152035 131.512821 -4.716199
v -9.593387 131.512821 -7.212701
v -8.152035 131.512821 -9.709194
v -5.269329 131.512821 -9.709196
v -3.827976 131.512821 -7.212694
v -6.029310 132.036670 -6.032531
v -7.392053 132.036670 -6.032528
v -6.710682 132.036670 -7.212696
v -8.073424 132.036670 -7.212700
v -7.392053 132.036670 -8.392868
v -6.029311 132.036670 -8.392868
v -5.347940 132.036670 -7.212696
v -7.137696 110.066867 0.528180
v -7.137696 127.838909 0.528180
v -6.283667 110.066867 0.528180
v -6.283667 127.838909 0.528180
vt 0.062117 0.000000
vt 0.062117 0.317947
vt 0.031058 0.317947
vt 0.031058 0.000000
vt 0.000000 0.317947
vt 0.000000 0.000000
vt 0.949845 0.341416
vt 0.949845 0.645423
vt 0.915554 0.645423
vt 0.915554 0.341416
vt 0.000000 0.641465
vt 0.000000 0.323518
vt 0.031058 0.323518
vt 0.031058 0.641465
vt 0.062117 0.323518
vt 0.062117 0.641465
vt 0.841896 0.060155
vt 0.824530 0.030078
vt 0.807165 0.060155
vt 0.859261 0.030078
vt 0.841896 0.000000
vt 0.807165 0.000000
vt 0.789800 0.030078
vt 0.592094 0.000000
vt 0.602957 0.018815
vt 0.581231 0.018815
vt 0.592094 0.037630
vt 0.613820 0.037630
vt 0.624683 0.018815
vt 0.613820 0.000000
vt 0.817635 0.069098
vt 0.831425 0.069098
vt 0.071351 0.010812
vt 0.071351 0.307135
vt 0.934125 0.942902
vt 0.944851 0.933437
vt 0.958990 0.933425
vt 0.969732 0.942872
vt 0.071351 0.334330
vt 0.071351 0.630653
vt 0.806669 0.859457
vt 0.821496 0.867923
vt 0.821849 0.898169
vt 0.807104 0.906777
vt 0.848219 0.912988
vt 0.848300 0.930062
vt 0.874237 0.897560
vt 0.889065 0.906025
vt 0.873886 0.867313
vt 0.888631 0.858705
vt 0.847515 0.852495
vt 0.847433 0.835421
vt 0.333477 0.816799
vt 0.320720 0.794693
vt 0.370236 0.794669
vt 0.357470 0.816769
vt 0.395015 0.837539
vt 0.369493 0.837534
vt 0.370278 0.880433
vt 0.357522 0.858327
vt 0.320762 0.880458
vt 0.333528 0.858357
vt 0.295983 0.837587
vt 0.321506 0.837593
vt 0.674730 0.028162
vt 0.674730 0.046825
vt 0.628773 0.046825
vt 0.628773 0.028162
vt 0.676394 0.502589
vt 0.654844 0.502589
vt 0.654844 0.476055
vt 0.676394 0.476055
vt 0.654844 0.422988
vt 0.676394 0.422988
vt 0.414020 0.107165
vt 0.414020 0.125828
vt 0.368062 0.125828
vt 0.368062 0.107165
vt 0.579777 0.596659
vt 0.558227 0.596659
vt 0.558227 0.543591
vt 0.579777 0.543591
vt 0.558227 0.517058
vt 0.579777 0.517057
vt 0.783413 0.902692
vt 0.761617 0.890112
vt 0.761599 0.867624
vt 0.783391 0.855038
vt 0.742114 0.856396
vt 0.742110 0.831230
vt 0.722648 0.867656
vt 0.700851 0.855076
vt 0.722666 0.890144
vt 0.700873 0.902730
vt 0.742151 0.901372
vt 0.742154 0.926538
vt 0.160126 0.010812
vt 0.373708 0.965458
vt 0.817635 0.155070
vt 0.831425 0.155070
vt 0.160126 0.334330
vt 0.160126 0.630653
vt 0.944775 0.845294
vt 0.958914 0.845282
vt 0.373745 0.951842
vt 0.160126 0.307135
vt 0.090414 0.951056
vt 0.090376 0.964671
vn -0.866025 0.000000 0.500000
vn -0.866025 0.000000 0.500000
vn -0.866025 0.000000 0.500000
vn -0.866025 0.000000 0.500000
vn -0.866025 0.000000 -0.500000
vn -0.866025 0.000000 -0.500000
vn -0.866025 0.000000 -0.500000
vn -0.866025 0.000000 -0.500000
vn 0.000000 0.000000 -1.000000
vn 0.000000 0.000000 -1.000000
vn 0.000000 0.000000 -1.000000
vn 0.000000 0.000000 -1.000000
vn 0.866025 0.000000 -0.500000
vn 0.866025 0.000000 -0.500000
vn 0.866025 0.000000 -0.500000
vn 0.866025 0.000000 -0.500000
vn 0.866025 0.000000 0.500000
vn 0.866025 0.000000 0.500000
vn 0.866025 0.000000 0.500000
vn 0.866025 0.000000 0.500000
vn 0.000000 -1.000000 0.000000
vn 0.000000 -1.000000 0.000000
vn 0.000000 -1.000000 0.000000
vn 0.000000 -1.000000 0.000000
vn 0.000000 -1.000000 0.000000
vn 0.000000 -1.000000 0.000000
vn 0.000000 -1.000000 0.000000
vn 0.000000 -1.000000 0.000000
vn 0.000000 -1.000000 0.000000
vn 0.000000 -1.000000 0.000000
vn 0.000000 -1.000000 0.000000
vn 0.000000 -1.000000 0.000000
vn 0.000000 -1.000000 0.000000
vn 0.000000 -1.000000 0.000000
vn 0.000000 -1.000000 0.000000
vn 0.000000 -1.000000 0.000000
vn 0.000000 -1.000000 0.000000
vn 0.000000 -1.000000 0.000000
vn 0.000000 1.000000 -0.000002
vn 0.000000 1.000000 -0.000002
vn 0.000000 1.000000 -0.000002
vn 0.000000 1.000000 -0.000001
vn 0.000000 1.000000 -0.000001
vn 0.000000 1.000000 -0.000001
vn 0.000000 1.000000 0.000001
vn 0.000000 1.000000 0.000001
vn 0.000000 1.000000 0.000001
vn 0.000000 1.000000 0.000000
vn 0.000000 1.000000 0.000000
vn 0.000000 1.000000 0.000000
vn 0.000000 1.000000 0.000001
vn 0.000000 1.000000 0.000001
vn 0.000000 1.000000 0.000001
vn 0.000000 1.000000 0.000000
vn 0.000000 1.000000 0.000000
vn 0.000000 1.000000 0.000000
vn 0.000000 -0.649469 0.760388
vn 0.000000 -0.649469 0.760388
vn 0.000000 -0.649469 0.760388
vn 0.000000 -0.649469 0.760388
vn -0.649469 0.000000 0.760388
vn -0.649469 0.000000 0.760388
vn -0.649469 0.000000 0.760388
vn -0.649469 0.000000 0.760388
vn 0.000000 0.649467 0.760390
vn 0.000000 0.649467 0.760390
vn 0.000000 0.649467 0.760390
vn 0.000000 0.649467 0.760390
vn 0.649469 0.000000 0.760388
vn 0.649469 0.000000 0.760388
vn 0.649469 0.000000 0.760388
vn 0.649469 0.000000 0.760388
vn 0.000001 0.510539 0.859855
vn 0.000001 0.510539 0.859855
vn 0.000001 0.510539 0.859855
vn 0.000001 0.510539 0.859855
vn -0.744656 0.510539 0.429927
vn -0.744656 0.510539 0.429927
vn -0.744656 0.510539 0.429927
vn -0.744656 0.510539 0.429927
vn -0.744656 0.510538 -0.429928
vn -0.744656 0.510538 -0.429928
vn -0.744656 0.510538 -0.429928
vn -0.744656 0.510538 -0.429928
vn -0.000001 0.510538 -0.859855
vn -0.000001 0.510539 -0.859855
vn -0.000001 0.510539 -0.859855
vn -0.000001 0.510538 -0.859855
vn 0.744656 0.510539 -0.429927
vn 0.744656 0.510539 -0.429927
vn 0.744656 0.510539 -0.429927
vn 0.744656 0.510539 -0.429927
vn 0.744656 0.510539 0.429928
vn 0.744656 0.510539 0.429928
vn 0.744656 0.510539 0.429928
vn 0.744656 0.510539 0.429928
vn 0.000001 -0.859429 0.511256
vn 0.000001 -0.859429 0.511256
vn 0.000001 -0.859429 0.511256
vn 0.000001 -0.859429 0.511256
vn -0.442760 -0.859429 0.255627
vn -0.442760 -0.859429 0.255627
vn -0.442760 -0.859429 0.255627
vn -0.442760 -0.859429 0.255627
vn -0.442760 -0.859429 -0.255628
vn -0.442760 -0.859429 -0.255628
vn -0.442760 -0.859429 -0.255628
vn -0.442760 -0.859429 -0.255628
vn -0.000001 -0.859429 -0.511255
vn -0.000001 -0.859429 -0.511255
vn -0.000001 -0.859429 -0.511255
vn -0.000001 -0.859429 -0.511255
vn 0.442761 -0.859429 -0.255627
vn 0.442761 -0.859429 -0.255627
vn 0.442761 -0.859429 -0.255627
vn 0.442761 -0.859429 -0.255627
vn 0.442760 -0.859429 0.255628
vn 0.442760 -0.859429 0.255628
vn 0.442760 -0.859429 0.255628
vn 0.442760 -0.859429 0.255628
vn 0.000003 0.000000 1.000000
vn 0.000003 0.000000 1.000000
vn 0.000003 0.000000 1.000000
vn 0.000003 0.000000 1.000000
vn -0.866026 0.000000 0.499999
vn -0.866026 0.000000 0.499999
vn -0.866026 0.000000 0.499999
vn -0.866026 0.000000 0.499999
vn -0.866025 0.000000 -0.500001
vn -0.866025 0.000000 -0.500001
vn -0.866025 0.000000 -0.500001
vn -0.866025 0.000000 -0.500001
vn -0.000002 -0.000001 -1.000000
vn -0.000002 -0.000001 -1.000000
vn -0.000002 -0.000001 -1.000000
vn -0.000002 -0.000001 -1.000000
vn 0.866026 0.000000 -0.499999
vn 0.866026 0.000000 -0.499999
vn 0.866026 0.000000 -0.499999
vn 0.866026 0.000000 -0.499999
vn 0.866025 0.000000 0.500001
vn 0.866025 0.000000 0.500001
vn 0.866025 0.000000 0.500001
vn 0.866025 0.000000 0.500001
vn 0.000001 0.929128 0.369759
vn 0.000001 0.929128 0.369759
vn 0.000001 0.929128 0.369759
vn 0.000001 0.929128 0.369759
vn -0.320220 0.929128 0.184879
vn -0.320221 0.929128 0.184879
vn -0.320220 0.929128 0.184879
vn -0.320220 0.929128 0.184879
vn -0.320221 0.929128 -0.184879
vn -0.320221 0.929128 -0.184879
vn -0.320221 0.929128 -0.184879
vn -0.320221 0.929128 -0.184879
vn 0.000000 0.929128 -0.369759
vn 0.000000 0.929128 -0.369759
vn 0.000000 0.929128 -0.369759
vn 0.000000 0.929128 -0.369759
vn 0.320221 0.929128 -0.184879
vn 0.320221 0.929128 -0.184879
vn 0.320221 0.929128 -0.184879
vn 0.320221 0.929128 -0.184879
vn 0.320220 0.929128 0.184880
vn 0.320220 0.929128 0.184880
vn 0.320220 0.929128 0.184880
vn 0.320220 0.929128 0.184880
vn -1.000000 0.000000 0.000000
vn -1.000000 0.000000 0.000000
vn -1.000000 0.000000 0.000000
vn -1.000000 0.000000 0.000000
vn 0.000000 -1.000000 0.000000
vn 0.000000 -1.000000 0.000000
vn 0.000000 -1.000000 0.000000
vn 0.000000 -1.000000 0.000000
vn 1.000000 0.000000 0.000000
vn 1.000000 0.000000 0.000000
vn 1.000000 0.000000 0.000000
vn 1.000000 0.000000 0.000000
vn 0.000000 1.000000 0.000000
vn 0.000000 1.000000 0.000000
vn 0.000000 1.000000 0.000000
vn 0.000000 1.000000 0.000000
vn 0.000000 0.000000 1.000000
vn 0.000000 0.000000 1.000000
vn 0.000000 0.000000 1.000000
vn 0.000000 0.000000 1.000000
s off
g polySurface5 Gate1:pCylinder1
usemtl initialShadingGroup
f 2/1/1 8/2/2 9/3/3 3/4/4
f 3/4/5 9/3/6 10/5/7 4/6/8
f 4/7/9 10/8/10 11/9/11 5/10/12
f 5/11/13 11/12/14 12/13/15 6/14/16
f 6/14/17 12/13/18 7/15/19 1/16/20
f 2/17/21 13/18/22 1/19/23
f 3/20/24 13/18/25 2/17/26
f 4/21/27 13/18/28 3/20/29
f 5/22/30 13/18/31 4/21/32
f 6/23/33 13/18/34 5/22/35
f 1/19/36 13/18/37 6/23/38
f 36/24/39 38/25/40 37/26/41
f 37/26/42 38/25/43 39/27/44
f 39/27/45 38/25/46 40/28/47
f 40/28/48 38/25/49 41/29/50
f 41/29/51 38/25/52 42/30/53
f 42/30/54 38/25/55 36/24/56
f 1/19/57 14/31/58 15/32/59 2/17/60
f 2/1/61 15/33/62 16/34/63 8/2/64
f 8/35/65 16/36/66 17/37/67 7/38/68
f 7/15/69 17/39/70 14/40/71 1/16/72
f 7/41/73 18/42/74 19/43/75 8/44/76
f 8/44/77 19/43/78 20/45/79 9/46/80
f 9/46/81 20/45/82 21/47/83 10/48/84
f 10/48/85 21/47/86 22/49/87 11/50/88
f 11/50/89 22/49/90 23/51/91 12/52/92
f 12/52/93 23/51/94 18/42/95 7/41/96
f 18/53/97 24/54/98 25/55/99 19/56/100
f 19/56/101 25/55/102 26/57/103 20/58/104
f 20/58/105 26/57/106 27/59/107 21/60/108
f 21/60/109 27/59/110 28/61/111 22/62/112
f 22/62/113 28/61/114 29/63/115 23/64/116
f 23/64/117 29/63/118 24/54/119 18/53/120
f 24/65/121 30/66/122 31/67/123 25/68/124
f 25/69/125 31/70/126 32/71/127 26/72/128
f 26/72/129 32/71/130 33/73/131 27/74/132
f 27/75/133 33/76/134 34/77/135 28/78/136
f 28/79/137 34/80/138 35/81/139 29/82/140
f 29/82/141 35/81/142 30/83/143 24/84/144
f 30/85/145 36/86/146 37/87/147 31/88/148
f 31/88/149 37/87/150 39/89/151 32/90/152
f 32/90/153 39/89/154 40/91/155 33/92/156
f 33/92/157 40/91/158 41/93/159 34/94/160
f 34/94/161 41/93/162 42/95/163 35/96/164
f 35/96/165 42/95/166 36/86/167 30/85/168
f 43/97/169 44/106/170 16/34/171 15/33/172
f 45/99/173 43/100/174 15/32/175 14/31/176
f 46/101/177 45/102/178 14/40/179 17/39/180
f 17/37/181 16/36/182 44/103/183 46/104/184
f 43/108/185 45/107/186 46/105/187 44/98/188
