# This file uses centimeters as units for non-parametric coordinates.

mtllib Geyser.mtl
g default
v -107.906590 -67.556271 -0.000016
v -82.156796 -25.674247 -0.000013
v 41.078527 -25.674247 71.149953
v 82.156899 -25.674247 -0.000001
v 32.971039 4.575766 -57.107432
v -65.941976 4.575766 -0.000011
v -32.970936 4.575766 57.107425
v 32.971039 4.575766 57.107432
v 65.942079 4.575766 -0.000001
v 25.244878 28.480377 -43.725245
v -25.244724 28.480377 -43.725261
v -50.489551 28.480377 -0.000009
v -25.244724 28.480377 43.725245
v 25.244878 28.480377 43.725257
v 50.489653 28.480377 -0.000002
v 21.969630 46.883763 -38.052208
v -21.969424 46.883763 -38.052221
v -43.938797 46.883763 -0.000008
v -21.969424 46.883763 38.052214
v 21.969630 46.883763 38.052214
v 43.939055 46.883763 -0.000002
v -123.252354 -67.556271 25.506713
v -56.424188 -25.674247 96.656646
v -97.502561 -25.674247 25.506697
v 38.607659 -67.556271 118.956610
v 25.732762 -25.674247 96.656652
v -48.316701 -6.833301 82.614131
v -81.287740 -6.833301 25.506719
v 17.625275 -6.833301 82.614164
v -134.527395 -67.556271 40.256197
v -80.574132 -67.556271 133.706088
v -67.699229 -25.674247 111.406124
v -108.777499 -25.674247 40.256178
v 27.332670 -67.556271 133.706101
v 14.457773 -25.674247 111.406137
v 55.338408 -67.556271 -128.120935
v -52.568237 -67.556271 -128.120961
v -39.693340 -25.674247 -105.821003
v 42.463614 -25.674247 -105.820996
v -106.521503 -67.556271 -34.671076
v -80.771709 -25.674247 -34.671076
v 109.291678 -67.556271 -34.671060
v 83.541987 -25.674247 -34.671060
v -31.585849 4.575766 -91.778495
v 34.356024 4.575766 -91.778495
v -64.556888 4.575766 -34.671073
v 67.327070 4.575766 -34.671060
v -23.859635 28.480377 -78.396314
v 26.629964 28.480377 -78.396308
v -49.104460 28.480377 -34.671073
v 74.879415 -67.556271 103.947888
v 128.832851 -67.556271 10.497999
v 103.083051 -25.674247 10.497999
v 62.004672 -25.674247 81.647943
v 46.658856 -25.674247 107.154662
v 59.533753 -67.556271 129.454607
v 130.217784 -67.556271 -24.173060
v 104.468081 -25.674247 -24.173060
v 18.347430 46.883763 -31.778467
v -18.347173 46.883763 -31.778476
v -36.694603 46.883763 -0.000008
v -18.347173 46.883763 31.778467
v 18.347430 46.883763 31.778467
v 36.694809 46.883763 -0.000001
v 18.347430 12.378173 -31.778476
v -18.347173 12.378173 -31.778476
v 0.000051 12.378173 0.000020
v -36.694603 12.378173 -0.000008
v -18.347173 12.378173 31.778479
v 18.347430 12.378173 31.778457
v 36.694809 12.378173 0.000021
vt 0.142491 0.541777
vt 0.112688 0.182045
vt 0.088978 0.067447
vt 0.231286 0.280732
vt 0.137941 0.286253
vt 0.429934 0.406272
vt 0.493385 0.265810
vt 0.825591 0.889108
vt 0.002441 0.808382
vt 0.291805 0.002441
vt 0.216811 0.333807
vt 0.351835 0.408840
vt 0.502830 0.700602
vt 0.578885 0.600043
vt 0.325784 0.637872
vt 0.051406 0.207614
vt 0.040526 0.112666
vt 0.071614 0.291053
vt 0.801531 0.889413
vt 0.404351 0.025861
vt 0.589180 0.540943
vt 0.224870 0.074109
vt 0.936202 0.346643
vt 0.149281 0.550717
vt 0.505008 0.663492
vt 0.374559 0.663492
vt 0.152162 0.335841
vt 0.199549 0.536037
vt 0.113320 0.358976
vt 0.002441 0.229933
vt 0.381685 0.777936
vt 0.601090 0.644769
vt 0.075105 0.336065
vt 0.182704 0.633531
vt 0.603641 0.864537
vt 0.598891 0.589718
vt 0.426838 0.911665
vt 0.476987 0.002441
vt 0.344426 0.726860
vt 0.332472 0.784588
vt 0.638975 0.659145
vt 0.342723 0.596458
vt 0.377607 0.656878
vt 0.377607 0.536039
vt 0.447373 0.536039
vt 0.482256 0.596459
vt 0.447373 0.656878
vt 0.234671 0.325846
vt 0.117550 0.746687
vt 0.350827 0.077501
vt 0.059996 0.755751
vt 0.254467 0.089488
vt 0.216551 0.178491
vt 0.274832 0.256321
vt 0.371042 0.245069
vt 0.141416 0.331424
vt 0.964630 0.337410
vt 0.549187 0.598508
vt 0.323607 0.674981
vt 0.349790 0.139762
vt 0.355761 0.183972
vt 0.308239 0.121451
vt 0.271350 0.148633
vt 0.276039 0.194441
vt 0.318410 0.212280
vt 0.441622 0.646917
vt 0.383358 0.646916
vt 0.470754 0.596459
vt 0.441622 0.546001
vt 0.383358 0.546000
vt 0.354226 0.596458
vt 0.372381 0.700602
vt 0.573931 0.686131
vt 0.397102 0.410428
vt 0.401724 0.316972
vt 0.146574 0.416454
vt 0.015402 0.628245
vt 0.603629 0.687666
vt 0.356457 0.315383
vt 0.002441 0.536038
vt 0.963778 0.245896
vt 0.178318 0.339110
vt 0.550087 0.699750
vt 0.207019 0.428170
vt 0.026701 0.807438
vt 0.935350 0.255129
vt 0.245513 0.422867
vt 0.043245 0.899707
vt 0.273902 0.025861
vt 0.499483 0.601799
vt 0.392506 0.279902
vt 0.552264 0.662641
vt 0.641174 0.714196
vt 0.018087 0.293969
vt 0.059792 0.961320
vt 0.670282 0.005511
vt 0.108833 0.697488
vt 0.393639 0.720208
vt 0.721341 0.714196
vt 0.002441 0.150329
vt 0.002441 0.022369
vt 0.508889 0.058266
vt 0.719142 0.659145
vt 0.307822 0.680937
vt 0.023248 0.693982
vt 0.258609 0.687589
vt 0.122031 0.632614
vt 0.259814 0.681758
vt 0.155784 0.002441
vt 0.233985 0.118948
vt 0.422254 0.002441
vt 0.018985 0.900651
vt 0.509068 0.159960
vt 0.420673 0.129911
vt 0.400074 0.268937
vt 0.844707 0.798190
vt 0.487478 0.115413
vt 0.516119 0.370373
vt 0.269457 0.074067
vt 0.694672 0.516037
vt 0.469576 0.138833
vt 0.362774 0.068299
vt 0.820647 0.798495
vt 0.132437 0.648212
vt 0.357236 0.252286
vt 0.502444 0.556237
vt 0.670720 0.163086
vt 0.196926 0.723247
vt 0.659110 0.487402
vt 0.247193 0.708566
vt 0.607546 0.582744
vt 0.362046 0.304269
vt 0.008787 0.075811
vt 0.445955 0.024980
vt 0.394096 0.550795
vt 0.430643 0.949828
vt 0.640247 0.853093
vt 0.662651 0.904367
vt 0.120182 0.923613
vt 0.065326 0.002441
vt 0.252043 0.536031
vt 0.661624 0.070907
vt 0.396381 0.621953
vt 0.712705 0.087852
vt 0.293012 0.570389
vt 0.312136 0.259891
vt 0.629478 0.128511
vt 0.724012 0.002441
vt 0.193611 0.041016
vt 0.021373 0.339187
vt 0.185416 0.393319
vt 0.226684 0.624494
vt 0.342452 0.614348
vt 0.259927 0.036430
vt 0.353244 0.030662
vt 0.090918 0.049785
vt 0.201258 0.577458
vt 0.088315 0.183863
vt 0.039032 0.204843
vt 0.148518 0.156151
vt 0.198056 0.143992
vt 0.491132 0.912282
vt 0.486596 0.950365
vt 0.591244 0.801446
vt 0.629458 0.798188
vt 0.629386 0.923455
vt 0.064228 0.923224
vt 0.124088 0.961766
vt 0.365664 0.598988
vt 0.429052 0.566575
vt 0.473719 0.073561
vt 0.080923 0.701375
vt 0.410275 0.155197
vt 0.023369 0.710439
vt 0.002441 0.764815
vt 0.039068 0.810126
vt 0.096623 0.801062
vn 0.000000 0.469979 -0.882678
vn 0.000000 0.469979 -0.882678
vn 0.000000 0.455146 -0.890417
vn 0.000000 0.455146 -0.890417
vn -0.764421 0.469979 -0.441338
vn -0.805722 0.495372 -0.324684
vn -0.812603 0.477422 -0.334282
vn -0.771124 0.455146 -0.445208
vn -0.764421 0.469980 0.441338
vn -0.425937 0.523747 0.737744
vn -0.425937 0.523747 0.737744
vn -0.764421 0.469980 0.441338
vn -0.000000 0.469979 0.882677
vn -0.000000 0.469979 0.882677
vn 0.761674 0.471048 0.444935
vn 0.805722 0.495371 0.324684
vn 0.799687 0.491660 0.344633
vn 0.762478 0.470736 0.443885
vn 0.764422 0.469978 -0.441339
vn 0.764422 0.469978 -0.441339
vn 0.771124 0.455146 -0.445208
vn 0.771124 0.455146 -0.445208
vn 0.000000 0.444286 -0.895885
vn 0.000000 0.444286 -0.895885
vn -0.822943 0.475083 -0.311545
vn -0.775859 0.444286 -0.447943
vn -0.694378 0.597595 0.400899
vn -0.378977 0.652309 0.656407
vn -0.378976 0.652309 0.656407
vn -0.694378 0.597595 0.400899
vn -0.000000 0.597595 0.801798
vn -0.000000 0.597595 0.801798
vn 0.785514 0.421058 0.453517
vn 0.785514 0.421058 0.453517
vn 0.775859 0.444286 0.447943
vn 0.775859 0.444286 0.447943
vn 0.785513 0.421060 -0.453516
vn 0.785513 0.421060 -0.453516
vn 0.000000 0.488481 -0.872574
vn 0.000000 0.488481 -0.872574
vn -0.801197 0.517910 -0.299756
vn -0.755671 0.488481 -0.436288
vn -0.755671 0.488481 0.436288
vn -0.419907 0.542873 0.727301
vn -0.419907 0.542873 0.727301
vn -0.755671 0.488481 0.436288
vn -0.000000 0.488481 0.872575
vn -0.000000 0.488481 0.872575
vn 0.755672 0.488481 0.436288
vn 0.755672 0.488481 0.436288
vn 0.755672 0.488481 -0.436288
vn 0.755672 0.488481 -0.436288
vn 0.755672 0.488481 -0.436288
vn 0.755672 0.488481 -0.436288
vn 0.000000 0.294582 -0.955626
vn 0.000000 0.294582 -0.955626
vn 0.000000 0.294582 -0.955626
vn 0.000000 0.294582 -0.955626
vn -0.827596 0.294583 -0.477813
vn -0.827596 0.294583 -0.477813
vn -0.827596 0.294583 -0.477813
vn -0.827596 0.294583 -0.477813
vn -0.827596 0.294583 0.477813
vn -0.471048 0.335339 0.815881
vn -0.471049 0.335339 0.815880
vn -0.827596 0.294583 0.477813
vn -0.000000 0.294582 0.955626
vn -0.000000 0.294582 0.955626
vn 0.827597 0.294579 0.477813
vn 0.827597 0.294579 0.477813
vn 0.827597 0.294579 0.477813
vn 0.827598 0.294579 0.477813
vn 0.827598 0.294579 -0.477813
vn 0.827598 0.294579 -0.477813
vn 0.827598 0.294579 -0.477813
vn 0.827598 0.294579 -0.477813
vn 0.000000 1.000000 0.000000
vn 0.000000 1.000000 0.000000
vn 0.000000 1.000000 0.000000
vn 0.000000 1.000000 0.000000
vn 0.000000 1.000000 0.000000
vn 0.000000 1.000000 0.000000
vn 0.000000 1.000000 0.000000
vn -0.768592 0.487447 -0.414321
vn -0.758105 0.466096 -0.456104
vn -0.758105 0.466096 -0.456104
vn -0.765839 0.481591 -0.426100
vn 0.754630 0.473716 0.454012
vn 0.754630 0.473716 0.454012
vn -0.177672 0.933734 0.310762
vn -0.347507 0.915961 0.200634
vn -0.347507 0.915961 0.200634
vn -0.181279 0.933757 0.308603
vn -0.780294 0.515465 -0.354170
vn -0.780294 0.515465 -0.354170
vn 0.674463 0.521674 0.522453
vn 0.674462 0.521674 0.522453
vn 0.674462 0.521674 0.522453
vn 0.674463 0.521674 0.522453
vn -0.000000 0.912843 0.408311
vn -0.000000 0.912843 0.408311
vn 0.000000 1.000000 0.000000
vn 0.000000 1.000000 0.000000
vn 0.000000 1.000000 0.000000
vn 0.000000 1.000000 0.000000
vn -0.713856 0.438892 -0.545695
vn -0.713856 0.438892 -0.545695
vn -0.713856 0.438892 -0.545695
vn -0.713856 0.438892 -0.545695
vn 0.690927 0.493618 0.528167
vn 0.690927 0.493618 0.528167
vn 0.690927 0.493618 0.528167
vn 0.690927 0.493618 0.528167
vn 0.000000 1.000000 0.000000
vn 0.000000 1.000000 0.000000
vn -0.851381 0.523444 -0.034012
vn -0.863726 0.502779 -0.034505
vn 0.851382 0.523443 0.034010
vn 0.851382 0.523443 0.034010
vn -0.862911 0.504179 -0.034473
vn 0.399837 0.916447 0.015973
vn 0.000000 1.000000 0.000000
vn 0.000000 1.000000 0.000000
vn 0.715621 0.697904 0.028588
vn 0.880819 0.472144 0.035187
vn 0.880819 0.472144 0.035187
vn 0.880819 0.472144 0.035187
vn 0.880819 0.472144 0.035187
vn 0.000000 1.000000 0.000000
vn 0.000000 1.000000 0.000000
vn 0.000000 1.000000 0.000000
vn 0.000000 1.000000 0.000000
vn 0.956904 0.287877 0.038226
vn 0.956904 0.287877 0.038226
vn -0.839342 0.542568 -0.033531
vn 0.000000 1.000000 -0.000000
vn 0.000000 1.000000 -0.000000
vn 0.000000 1.000000 0.000000
vn 0.000000 1.000000 0.000000
vn 0.000000 1.000000 0.000000
vn 0.000000 1.000000 0.000000
vn 0.000000 1.000000 0.000000
vn 0.000000 1.000000 0.000000
vn -0.424789 0.320265 0.846749
vn -0.424789 0.320265 0.846749
vn -0.424789 0.320265 0.846749
vn -0.424789 0.320265 0.846749
vn 0.432281 0.265773 -0.861683
vn 0.432281 0.265773 -0.861683
vn 0.432281 0.265773 -0.861683
vn 0.432281 0.265773 -0.861683
vn 0.000000 1.000000 0.000000
vn 0.000000 1.000000 0.000000
vn 0.000000 1.000000 -0.000000
vn 0.000000 1.000000 -0.000000
vn 0.000000 1.000000 -0.000000
vn 0.000000 1.000000 -0.000000
vn 0.000000 1.000000 -0.000000
vn 0.000000 1.000000 -0.000000
vn 0.000000 1.000000 0.000000
vn 0.000000 1.000000 0.000000
vn 0.000000 1.000000 0.000000
vn 0.000000 1.000000 0.000000
vn 0.000000 1.000000 -0.000000
vn 0.000000 1.000000 -0.000000
vn -0.500000 0.000000 0.866026
vn 0.499999 -0.000000 0.866026
vn 0.499999 -0.000000 0.866026
vn -0.500000 0.000000 0.866026
vn 1.000000 -0.000000 0.000000
vn 1.000000 -0.000000 0.000000
vn 0.499999 -0.000000 -0.866026
vn 0.499999 -0.000000 -0.866026
vn -0.499999 -0.000000 -0.866026
vn -0.499999 -0.000000 -0.866026
vn -1.000000 0.000000 0.000000
vn -1.000000 0.000000 -0.000000
s 1
g Geyser
usemtl initialShadingGroup
f 36/109/1 37/110/2 38/160/3 39/3/4
s 2
f 37/161/5 40/4/6 41/5/7 38/2/8
s 3
f 30/6/9 31/115/10 32/7/11 33/118/12
f 31/115/10 34/114/13 35/113/14 32/7/11
s 4
f 51/11/15 52/79/16 53/12/17 54/87/18
s 5
f 42/80/19 36/1/20 39/107/21 43/77/22
s 1
f 39/3/4 38/160/3 44/158/23 45/17/24
s 2
f 38/2/8 41/5/7 46/18/25 44/16/26
s 6
f 24/120/27 23/131/28 27/21/29 28/129/30
f 23/131/28 26/90/31 29/126/32 27/21/29
s 7
f 3/153/33 4/108/34 9/152/35 8/145/36
s 5
f 43/77/22 39/107/21 45/97/37 47/105/38
s 1
f 45/17/24 44/158/23 48/159/39 49/100/40
s 2
f 44/16/26 46/18/25 50/94/41 48/30/42
s 8
f 6/148/43 7/144/44 13/142/45 12/96/46
f 7/144/44 8/127/47 14/147/48 13/142/45
s 7
f 8/145/36 9/152/35 15/157/49 14/141/50
s off
f 9/156/51 5/133/52 10/101/53 15/140/54
f 10/170/55 11/143/56 17/169/57 16/135/58
f 11/168/59 12/95/60 18/167/61 17/139/62
s 9
f 12/166/63 13/35/64 19/137/65 18/138/66
f 13/35/64 14/164/67 20/165/68 19/137/65
s off
f 14/37/69 15/162/70 21/163/71 20/136/72
f 15/38/73 10/102/74 16/171/75 21/134/76
s 10
f 65/49/77 66/177/78 67/51/79
f 66/177/78 68/176/80 67/51/79
f 68/176/80 69/175/81 67/51/79
f 69/175/81 70/174/82 67/51/79
f 70/174/82 71/172/83 67/51/79
f 71/172/83 65/49/77 67/51/79
s 11
f 2/154/84 1/155/85 22/122/86 24/119/87
s 4
f 51/11/15 54/87/18 55/84/88 56/82/89
s 12
f 7/34/90 6/130/91 28/128/92 27/124/93
s 11
f 6/149/94 2/154/84 24/119/87 28/22/95
s off
f 3/132/96 8/146/97 29/125/98 26/91/99
s 12
f 8/28/100 7/34/90 27/124/93 29/24/101
s 13
f 23/20/102 24/121/103 33/117/104 32/111/105
s off
f 24/19/106 22/123/107 30/116/108 33/8/109
f 25/85/110 26/88/111 35/112/112 34/9/113
s 13
f 26/89/114 23/20/102 32/111/105 35/10/115
s 2
f 1/48/116 2/56/117 41/5/7 40/4/6
s 4
f 53/12/17 52/79/16 57/75/118 58/74/119
s 2
f 2/56/117 6/33/120 46/18/25 41/5/7
s 14
f 5/39/121 9/106/122 47/104/123 45/98/124
s off
f 9/27/125 4/151/126 43/76/127 47/29/128
s 15
f 11/41/129 10/103/130 49/99/131 48/93/132
s 14
f 10/40/133 5/39/121 45/98/124 49/31/134
s 2
f 6/33/120 12/150/135 50/94/41 46/18/25
s 15
f 12/36/136 11/41/129 48/93/132 50/32/137
s 16
f 4/26/138 3/25/139 54/13/140 53/72/141
f 3/25/139 26/92/142 55/83/143 54/13/140
s off
f 26/23/144 25/86/145 56/81/146 55/57/147
f 42/14/148 43/78/149 58/73/150 57/58/151
s 16
f 43/15/152 4/26/138 53/72/141 58/59/153
s 17
f 16/43/154 17/42/155 60/71/156 59/67/157
f 17/42/155 18/44/158 61/70/159 60/71/156
f 18/44/158 19/45/160 62/69/161 61/70/159
f 19/45/160 20/46/162 63/68/163 62/69/161
f 20/46/162 21/47/164 64/66/165 63/68/163
f 21/47/164 16/43/154 59/67/157 64/66/165
s 18
f 59/61/166 60/60/167 66/50/168 65/173/169
f 60/60/167 61/62/170 68/52/171 66/50/168
f 61/62/170 62/63/172 69/53/173 68/52/171
f 62/63/172 63/64/174 70/54/175 69/53/173
f 63/64/174 64/65/176 71/55/177 70/54/175
f 64/65/176 59/61/166 65/173/169 71/55/177
