# This file uses centimeters as units for non-parametric coordinates.

mtllib Gate_Closed.mtl
g default
v 6.328934 -0.003519 6.231452
v 6.693636 -0.003519 6.231452
v 6.328934 -0.003519 5.866750
v 6.693636 -0.003519 5.866750
v 6.328934 1.463945 6.231452
v 6.693636 1.463945 6.231452
v 6.693636 1.463945 5.866750
v 6.328934 1.463945 5.866750
v 6.328934 2.197677 5.866750
v 6.693636 2.197677 5.866750
v 6.693636 2.197677 6.231452
v 6.328934 2.197677 6.231452
v 6.328934 0.730213 6.231452
v 6.693636 0.730213 6.231452
v 6.693636 0.730213 5.866750
v 6.328934 0.730213 5.866750
v 6.328934 2.564543 5.866750
v 6.693636 2.564543 5.866750
v 6.693636 2.564543 6.231452
v 6.328934 2.564543 6.231452
v 6.328934 0.363347 6.231452
v 6.693636 0.363347 6.231452
v 6.693636 0.363347 5.866750
v 6.328934 0.363347 5.866750
v 6.328934 1.463945 5.976750
v 6.328934 1.463945 6.121452
v 6.328934 2.197677 6.121452
v 6.328934 2.197677 5.976750
v 6.328934 0.730213 5.976750
v 6.328934 0.730213 6.121452
v 6.328934 2.454543 6.121452
v 6.328934 2.454543 5.976750
v 6.328934 0.473347 5.976750
v 6.328934 0.473347 6.121452
v 4.957270 1.463945 5.976750
v 4.957270 1.463945 6.121452
v 4.957270 2.197677 6.121452
v 4.957270 2.197677 5.976750
v 4.957270 0.730213 5.976750
v 4.957270 0.730213 6.121452
v 4.957270 2.454543 6.121452
v 4.957270 2.454543 5.976750
v 4.957270 0.473347 5.976750
v 4.957270 0.473347 6.121452
v 6.420100 2.931409 6.140286
v 6.328934 2.840243 6.231452
v 6.602469 2.931409 6.140286
v 6.693636 2.840243 6.231452
v 6.420100 2.931409 5.957917
v 6.328934 2.840243 5.866750
v 6.602469 2.931409 5.957917
v 6.693636 2.840243 5.866750
v 3.585606 -0.003519 6.231452
v 3.220904 -0.003519 6.231452
v 3.585606 -0.003519 5.866750
v 3.220904 -0.003519 5.866750
v 3.585606 1.463945 6.231452
v 3.220904 1.463945 6.231452
v 3.220904 1.463945 5.866750
v 3.585606 1.463945 5.866750
v 3.585606 2.197677 5.866750
v 3.220904 2.197677 5.866750
v 3.220904 2.197677 6.231452
v 3.585606 2.197677 6.231452
v 3.585606 0.730213 6.231452
v 3.220904 0.730213 6.231452
v 3.220904 0.730213 5.866750
v 3.585606 0.730213 5.866750
v 3.585606 2.564543 5.866750
v 3.220904 2.564543 5.866750
v 3.220904 2.564543 6.231452
v 3.585606 2.564543 6.231452
v 3.585606 0.363347 6.231452
v 3.220904 0.363347 6.231452
v 3.220904 0.363347 5.866750
v 3.585606 0.363347 5.866750
v 3.585606 1.463945 5.976750
v 3.585606 1.463945 6.121452
v 3.585606 2.197677 6.121452
v 3.585606 2.197677 5.976750
v 3.585606 0.730213 5.976750
v 3.585606 0.730213 6.121452
v 3.585606 2.454543 6.121452
v 3.585606 2.454543 5.976750
v 3.585606 0.473347 5.976750
v 3.585606 0.473347 6.121452
v 3.494440 2.931409 6.140286
v 3.585606 2.840243 6.231452
v 3.312070 2.931409 6.140286
v 3.220904 2.840243 6.231452
v 3.494440 2.931409 5.957917
v 3.585606 2.840243 5.866750
v 3.312070 2.931409 5.957917
v 3.220904 2.840243 5.866750
vt 0.375000 0.000000
vt 0.625000 0.000000
vt 0.375000 0.750000
vt 0.625000 0.750000
vt 0.375000 1.000000
vt 0.625000 1.000000
vt 0.875000 0.000000
vt 0.125000 0.000000
vt 0.375000 0.125000
vt 0.625000 0.125000
vt 0.625000 0.625000
vt 0.875000 0.125000
vt 0.125000 0.125000
vt 0.375000 0.625000
vt 0.125000 0.187500
vt 0.375000 0.562500
vt 0.625000 0.562500
vt 0.875000 0.187500
vt 0.625000 0.187500
vt 0.375000 0.187500
vt 0.375000 0.062500
vt 0.625000 0.062500
vt 0.625000 0.687500
vt 0.875000 0.062500
vt 0.125000 0.062500
vt 0.375000 0.687500
vt 0.125000 0.218750
vt 0.625000 0.531250
vt 0.375000 0.031250
vt 0.625000 0.031250
vt 0.625000 0.718750
vt 0.875000 0.031250
vt 0.125000 0.031250
vt 0.375000 0.718750
vt 0.375000 0.125000
vt 0.375000 0.187500
vt 0.125000 0.187500
vt 0.125000 0.125000
vt 0.375000 0.062500
vt 0.125000 0.062500
vt 0.375000 0.218750
vt 0.125000 0.218750
vt 0.125000 0.031250
vt 0.375000 0.031250
vt 0.375000 0.125000
vt 0.375000 0.187500
vt 0.125000 0.187500
vt 0.125000 0.125000
vt 0.375000 0.062500
vt 0.125000 0.062500
vt 0.375000 0.218750
vt 0.125000 0.218750
vt 0.125000 0.031250
vt 0.375000 0.031250
vt 0.437494 0.312494
vt 0.375000 0.507766
vt 0.437494 0.437506
vt 0.562506 0.312494
vt 0.562506 0.437506
vt 0.625000 0.507766
vt 0.375000 0.531250
vt 0.875000 0.218750
vt 0.875000 0.242234
vt 0.625000 0.242234
vt 0.625000 0.218750
vt 0.375000 0.242234
vt 0.375000 0.218750
vt 0.125000 0.242234
vt 0.375000 0.125000
vt 0.625000 0.125000
vt 0.625000 0.187500
vt 0.375000 0.187500
vt 0.375000 0.562500
vt 0.625000 0.562500
vt 0.625000 0.625000
vt 0.375000 0.625000
vt 0.375000 0.750000
vt 0.625000 0.750000
vt 0.625000 1.000000
vt 0.375000 1.000000
vt 0.875000 0.125000
vt 0.875000 0.187500
vt 0.375000 0.062500
vt 0.625000 0.062500
vt 0.875000 0.062500
vt 0.625000 0.687500
vt 0.375000 0.687500
vt 0.375000 0.531250
vt 0.625000 0.531250
vt 0.875000 0.218750
vt 0.625000 0.218750
vt 0.375000 0.218750
vt 0.375000 0.031250
vt 0.625000 0.031250
vt 0.875000 0.031250
vt 0.625000 0.718750
vt 0.375000 0.718750
vt 0.375000 0.000000
vt 0.625000 0.000000
vt 0.875000 0.000000
vt 0.125000 0.000000
vt 0.125000 0.031250
vt 0.375000 0.187500
vt 0.375000 0.125000
vt 0.125000 0.187500
vt 0.125000 0.125000
vt 0.125000 0.125000
vt 0.125000 0.187500
vt 0.375000 0.062500
vt 0.125000 0.062500
vt 0.125000 0.062500
vt 0.375000 0.218750
vt 0.125000 0.218750
vt 0.125000 0.218750
vt 0.375000 0.031250
vt 0.125000 0.031250
vt 0.375000 0.187500
vt 0.375000 0.125000
vt 0.125000 0.125000
vt 0.125000 0.187500
vt 0.375000 0.062500
vt 0.125000 0.062500
vt 0.375000 0.218750
vt 0.125000 0.218750
vt 0.375000 0.031250
vt 0.125000 0.031250
vt 0.437494 0.312494
vt 0.375000 0.242234
vt 0.625000 0.242234
vt 0.562506 0.312494
vt 0.437494 0.437506
vt 0.375000 0.507766
vt 0.625000 0.507766
vt 0.562506 0.437506
vt 0.875000 0.242234
vt 0.125000 0.242234
vn 0.000000 0.000000 1.000000
vn 0.000000 0.000000 1.000000
vn 0.000000 0.000000 1.000000
vn 0.000000 0.000000 1.000000
vn 0.000000 0.000000 -1.000000
vn 0.000000 0.000000 -1.000000
vn 0.000000 0.000000 -1.000000
vn 0.000000 0.000000 -1.000000
vn 0.000000 -1.000000 0.000000
vn 0.000000 -1.000000 0.000000
vn 0.000000 -1.000000 0.000000
vn 0.000000 -1.000000 0.000000
vn 1.000000 0.000000 0.000000
vn 1.000000 0.000000 0.000000
vn 1.000000 0.000000 0.000000
vn 1.000000 0.000000 0.000000
vn 0.000000 0.000000 1.000000
vn 0.000000 0.000000 1.000000
vn 1.000000 0.000000 0.000000
vn 1.000000 0.000000 0.000000
vn 0.000000 0.000000 -1.000000
vn 0.000000 0.000000 -1.000000
vn 0.000000 -0.000000 -1.000000
vn 0.000000 -0.000000 -1.000000
vn 1.000000 -0.000000 0.000000
vn 1.000000 -0.000000 0.000000
vn 0.000000 -0.000000 1.000000
vn 0.000000 -0.000000 1.000000
vn 0.000000 0.000000 1.000000
vn 0.000000 0.000000 1.000000
vn 1.000000 0.000000 0.000000
vn 1.000000 0.000000 0.000000
vn 0.000000 0.000000 -1.000000
vn 0.000000 0.000000 -1.000000
vn 0.000000 0.000000 1.000000
vn 0.000000 0.000000 1.000000
vn 1.000000 0.000000 0.000000
vn 1.000000 0.000000 0.000000
vn 0.000000 0.000000 -1.000000
vn 0.000000 0.000000 -1.000000
vn -1.000000 0.000000 0.000000
vn -1.000000 0.000000 0.000000
vn -1.000000 0.000000 0.000000
vn -1.000000 0.000000 0.000000
vn -1.000000 0.000000 0.000000
vn -1.000000 0.000000 0.000000
vn -1.000000 0.000000 0.000000
vn -1.000000 0.000000 0.000000
vn -1.000000 0.000000 0.000000
vn -1.000000 0.000000 0.000000
vn -1.000000 0.000000 0.000000
vn -1.000000 0.000000 0.000000
vn -1.000000 0.000000 0.000000
vn -1.000000 0.000000 0.000000
vn -1.000000 0.000000 0.000000
vn -1.000000 0.000000 0.000000
vn -1.000000 -0.000000 0.000000
vn -1.000000 -0.000000 0.000000
vn -1.000000 -0.000000 0.000000
vn -1.000000 -0.000000 0.000000
vn -1.000000 0.000000 0.000000
vn -1.000000 0.000000 0.000000
vn 0.000000 0.000000 1.000000
vn 0.000000 0.000000 1.000000
vn 0.000000 0.000000 1.000000
vn 0.000000 0.000000 1.000000
vn 0.000000 0.000000 -1.000000
vn 0.000000 0.000000 -1.000000
vn 0.000000 0.000000 -1.000000
vn 0.000000 0.000000 -1.000000
vn 0.000000 0.000000 1.000000
vn 0.000000 0.000000 1.000000
vn 0.000000 0.000000 -1.000000
vn 0.000000 0.000000 -1.000000
vn 0.000000 0.000000 1.000000
vn 0.000000 0.000000 1.000000
vn -0.000000 1.000000 0.000000
vn -0.000000 1.000000 0.000000
vn 0.000000 1.000000 0.000000
vn 0.000000 1.000000 0.000000
vn 0.000000 0.000000 -1.000000
vn 0.000000 0.000000 -1.000000
vn -0.000000 -1.000000 0.000000
vn -0.000000 -1.000000 0.000000
vn 0.000000 -1.000000 0.000000
vn 0.000000 -1.000000 0.000000
vn 0.000000 0.000000 1.000000
vn 0.000000 0.000000 1.000000
vn 0.000000 0.000000 -1.000000
vn 0.000000 0.000000 -1.000000
vn 0.000000 0.707105 0.707108
vn 0.000000 0.707105 0.707108
vn 0.000000 0.707105 0.707108
vn 0.000000 0.707105 0.707108
vn -0.707107 0.707106 0.000000
vn -0.707107 0.707106 0.000000
vn -0.707107 0.707106 0.000000
vn -0.707107 0.707106 0.000000
vn 0.707107 0.707106 0.000000
vn 0.707107 0.707106 0.000000
vn 0.707107 0.707106 0.000000
vn 0.707107 0.707106 0.000000
vn 0.000000 0.707106 -0.707108
vn 0.000000 0.707106 -0.707108
vn 0.000000 0.707106 -0.707108
vn 0.000000 0.707106 -0.707108
vn 0.000000 1.000000 0.000000
vn 0.000000 1.000000 0.000000
vn 0.000000 1.000000 0.000000
vn 0.000000 1.000000 0.000000
vn 0.000000 -0.000000 -1.000000
vn 0.000000 -0.000000 -1.000000
vn 1.000000 -0.000000 0.000000
vn 1.000000 -0.000000 0.000000
vn 0.000000 -0.000000 1.000000
vn 0.000000 -0.000000 1.000000
vn -1.000000 -0.000000 0.000000
vn -1.000000 -0.000000 0.000000
vn 0.000000 0.000000 1.000000
vn 0.000000 0.000000 1.000000
vn 0.000000 0.000000 1.000000
vn 0.000000 0.000000 1.000000
vn 0.000000 0.000000 -1.000000
vn 0.000000 0.000000 -1.000000
vn 0.000000 0.000000 -1.000000
vn 0.000000 0.000000 -1.000000
vn 0.000000 -1.000000 0.000000
vn 0.000000 -1.000000 0.000000
vn 0.000000 -1.000000 0.000000
vn 0.000000 -1.000000 0.000000
vn -1.000000 0.000000 0.000000
vn -1.000000 0.000000 0.000000
vn -1.000000 0.000000 0.000000
vn -1.000000 0.000000 0.000000
vn 0.000000 0.000000 1.000000
vn 0.000000 0.000000 1.000000
vn -1.000000 0.000000 0.000000
vn -1.000000 0.000000 0.000000
vn 0.000000 0.000000 -1.000000
vn 0.000000 0.000000 -1.000000
vn 0.000000 -0.000000 -1.000000
vn 0.000000 -0.000000 -1.000000
vn -1.000000 0.000000 0.000000
vn -1.000000 0.000000 0.000000
vn 0.000000 -0.000000 1.000000
vn 0.000000 -0.000000 1.000000
vn 0.000000 0.000000 1.000000
vn 0.000000 0.000000 1.000000
vn -1.000000 0.000000 0.000000
vn -1.000000 0.000000 0.000000
vn 0.000000 0.000000 -1.000000
vn 0.000000 0.000000 -1.000000
vn 0.000000 0.000000 1.000000
vn 0.000000 0.000000 1.000000
vn -1.000000 0.000000 0.000000
vn -1.000000 0.000000 0.000000
vn 0.000000 0.000000 -1.000000
vn 0.000000 0.000000 -1.000000
vn 1.000000 0.000000 0.000000
vn 1.000000 0.000000 0.000000
vn 1.000000 0.000000 0.000000
vn 1.000000 0.000000 0.000000
vn 1.000000 0.000000 0.000000
vn 1.000000 0.000000 0.000000
vn 1.000000 0.000000 0.000000
vn 1.000000 0.000000 0.000000
vn 1.000000 0.000000 0.000000
vn 1.000000 0.000000 0.000000
vn 1.000000 0.000000 0.000000
vn 1.000000 0.000000 0.000000
vn 1.000000 0.000000 0.000000
vn 1.000000 0.000000 0.000000
vn 1.000000 0.000000 0.000000
vn 1.000000 0.000000 0.000000
vn 1.000000 0.000000 0.000000
vn 1.000000 -0.000001 0.000000
vn 1.000000 0.000000 0.000000
vn 1.000000 -0.000001 0.000000
vn 1.000000 0.000000 0.000000
vn 1.000000 0.000000 0.000000
vn 0.000000 0.000000 1.000000
vn 0.000000 0.000000 1.000000
vn 0.000000 0.000000 -1.000000
vn 0.000000 0.000000 -1.000000
vn 0.000000 0.000000 1.000000
vn 0.000000 0.000000 -1.000000
vn 0.000000 0.000000 1.000000
vn 0.000000 1.000000 0.000000
vn 0.000000 1.000000 0.000000
vn 0.000000 0.000000 -1.000000
vn 0.000000 -1.000000 0.000000
vn 0.000000 -1.000000 0.000000
vn 0.000000 0.000000 1.000000
vn 0.000000 0.000000 -1.000000
vn 0.000000 0.707105 0.707108
vn 0.000000 0.707106 0.707108
vn 0.000000 0.707105 0.707108
vn 0.000000 0.707105 0.707108
vn 0.707107 0.707107 0.000000
vn 0.707107 0.707107 0.000000
vn 0.707107 0.707107 0.000000
vn 0.707107 0.707107 0.000000
vn -0.707105 0.707108 0.000000
vn -0.707105 0.707108 0.000000
vn -0.707105 0.707108 0.000000
vn -0.707105 0.707108 0.000000
vn 0.000000 0.707105 -0.707108
vn 0.000000 0.707105 -0.707108
vn 0.000000 0.707106 -0.707108
vn 0.000000 0.707105 -0.707108
vn 0.000000 1.000000 0.000000
vn 0.000000 1.000000 0.000000
vn 0.000000 1.000000 0.000000
vn 0.000000 1.000000 0.000000
vn 0.000000 -0.000000 -1.000000
vn 0.000000 -0.000000 -1.000000
vn -1.000000 0.000000 0.000000
vn -1.000000 0.000000 0.000000
vn 0.000000 -0.000000 1.000000
vn 0.000000 -0.000000 1.000000
vn 1.000000 -0.000001 0.000000
vn 1.000000 -0.000001 0.000000
s 1
g closed_gate
usemtl initialShadingGroup
f 5/9/1 6/10/2 11/19/3 12/20/4
s 2
f 9/16/5 10/17/6 7/11/7 8/14/8
s off
f 3/3/9 4/4/10 2/6/11 1/5/12
s 3
f 6/10/13 7/12/14 10/18/15 11/19/16
s 1
f 13/21/17 14/22/18 6/10/2 5/9/1
s 3
f 14/22/19 15/24/20 7/12/14 6/10/13
s 2
f 8/14/8 7/11/7 15/23/21 16/26/22
f 17/61/23 18/28/24 10/17/6 9/16/5
s 3
f 11/19/16 10/18/15 18/62/25 19/65/26
s 1
f 12/20/4 11/19/3 19/65/27 20/67/28
f 21/29/29 22/30/30 14/22/18 13/21/17
s 3
f 22/30/31 23/32/32 15/24/20 14/22/19
s 2
f 16/26/22 15/23/21 23/31/33 24/34/34
s 1
f 1/1/35 2/2/36 22/30/30 21/29/29
s 3
f 2/2/37 4/7/38 23/32/32 22/30/31
s 2
f 24/34/34 23/31/33 4/4/39 3/3/40
s 4
f 3/8/41 1/1/42 21/29/43 24/33/44
f 5/9/45 12/20/46 27/36/47 26/35/48
f 9/15/49 8/13/50 25/38/51 28/37/52
f 13/21/53 5/9/45 26/35/48 30/39/54
f 8/13/50 16/25/55 29/40/56 25/38/51
f 12/20/46 20/67/57 31/41/58 27/36/47
f 20/67/57 17/27/59 32/42/60 31/41/58
f 17/27/59 9/15/49 28/37/52 32/42/60
f 24/33/44 21/29/43 34/44/61 33/43/62
f 21/29/43 13/21/53 30/39/54 34/44/61
f 16/25/55 24/33/44 33/43/62 29/40/56
s 7
usemtl lambert9SG
f 26/35/63 27/36/64 37/46/65 36/45/66
s 8
f 28/37/67 25/38/68 35/48/69 38/47/70
s 7
f 30/39/71 26/35/63 36/45/66 40/49/72
s 8
f 25/38/68 29/40/73 39/50/74 35/48/69
s 7
f 27/36/64 31/41/75 41/51/76 37/46/65
s 9
f 31/41/77 32/42/78 42/52/79 41/51/80
s 8
f 32/42/81 28/37/67 38/47/70 42/52/82
s 10
f 33/43/83 34/44/84 44/54/85 43/53/86
s 7
f 34/44/87 30/39/71 40/49/72 44/54/88
s 8
f 29/40/73 33/43/89 43/53/90 39/50/74
s off
usemtl initialShadingGroup
f 45/55/91 46/66/92 48/64/93 47/58/94
f 46/66/95 45/55/96 49/57/97 50/56/98
f 47/58/99 48/64/100 52/60/101 51/59/102
f 50/56/103 49/57/104 51/59/105 52/60/106
f 45/55/107 47/58/108 51/59/109 49/57/110
s 2
f 50/56/111 52/60/112 18/28/24 17/61/23
s 3
f 19/65/26 18/62/25 52/63/113 48/64/114
s 1
f 20/67/28 19/65/27 48/64/115 46/66/116
s 4
f 17/27/59 20/67/57 46/66/117 50/68/118
s 11
f 57/69/119 64/72/120 63/71/121 58/70/122
s 12
f 61/73/123 60/76/124 59/75/125 62/74/126
s off
f 55/77/127 53/80/128 54/79/129 56/78/130
s 13
f 58/70/131 63/71/132 62/82/133 59/81/134
s 11
f 65/83/135 57/69/119 58/70/122 66/84/136
s 13
f 66/84/137 58/70/131 59/81/134 67/85/138
s 12
f 60/76/124 68/87/139 67/86/140 59/75/125
f 69/88/141 61/73/123 62/74/126 70/89/142
s 13
f 63/71/132 71/91/143 70/90/144 62/82/133
s 11
f 64/72/120 72/92/145 71/91/146 63/71/121
f 73/93/147 65/83/135 66/84/136 74/94/148
s 13
f 74/94/149 66/84/137 67/85/138 75/95/150
s 12
f 68/87/139 76/97/151 75/96/152 67/86/140
s 11
f 53/98/153 73/93/147 74/94/148 54/99/154
s 13
f 54/99/155 74/94/149 75/95/150 56/100/156
s 12
f 76/97/151 55/77/157 56/78/158 75/96/152
s 14
f 55/101/159 76/102/160 73/93/161 53/98/162
f 57/69/163 78/104/164 79/103/165 64/72/166
f 61/105/167 80/108/168 77/107/169 60/106/170
f 65/83/171 82/109/172 78/104/164 57/69/163
f 60/106/170 77/107/169 81/111/173 68/110/174
f 64/72/166 79/103/165 83/112/175 72/92/176
f 72/92/176 83/112/175 84/114/177 69/113/178
f 69/113/178 84/114/177 80/108/168 61/105/167
f 76/102/160 85/116/179 86/115/180 73/93/161
f 73/93/161 86/115/180 82/109/172 65/83/171
f 68/110/174 81/111/173 85/116/179 76/102/160
s 7
usemtl lambert9SG
f 78/104/181 36/118/66 37/117/65 79/103/182
s 8
f 80/108/183 38/120/70 35/119/69 77/107/184
s 7
f 82/109/185 40/121/72 36/118/66 78/104/181
s 8
f 77/107/184 35/119/69 39/122/74 81/111/186
s 7
f 79/103/182 37/117/65 41/123/76 83/112/187
s 9
f 83/112/188 41/123/80 42/124/79 84/114/189
s 8
f 84/114/190 42/124/82 38/120/70 80/108/183
s 10
f 85/116/191 43/126/86 44/125/85 86/115/192
s 7
f 86/115/193 44/125/88 40/121/72 82/109/185
s 8
f 81/111/186 39/122/74 43/126/90 85/116/194
s off
usemtl initialShadingGroup
f 87/127/195 89/130/196 90/129/197 88/128/198
f 88/128/199 92/132/200 91/131/201 87/127/202
f 89/130/203 93/134/204 94/133/205 90/129/206
f 92/132/207 94/133/208 93/134/209 91/131/210
f 87/127/211 91/131/212 93/134/213 89/130/214
s 12
f 92/132/215 69/88/141 70/89/142 94/133/216
s 13
f 71/91/143 90/129/217 94/135/218 70/90/144
s 11
f 72/92/145 88/128/219 90/129/220 71/91/146
s 14
f 69/113/178 92/136/221 88/128/222 72/92/176
