# This file uses centimeters as units for non-parametric coordinates.

mtllib Gate_Open.mtl
g default
v 6.703905 -0.003519 2.708172
v 6.703905 -0.003519 2.343470
v 6.339203 -0.003519 2.708172
v 6.339203 -0.003519 2.343470
v 6.703905 1.463945 2.708172
v 6.703905 1.463945 2.343470
v 6.339203 1.463945 2.343470
v 6.339203 1.463945 2.708172
v 6.339203 2.197677 2.708172
v 6.339203 2.197677 2.343470
v 6.703905 2.197677 2.343470
v 6.703905 2.197677 2.708172
v 6.703905 0.730213 2.708172
v 6.703905 0.730213 2.343470
v 6.339203 0.730213 2.343470
v 6.339203 0.730213 2.708172
v 6.339203 2.564543 2.708172
v 6.339203 2.564543 2.343470
v 6.703905 2.564543 2.343470
v 6.703905 2.564543 2.708172
v 6.703905 0.363347 2.708172
v 6.703905 0.363347 2.343470
v 6.339203 0.363347 2.343470
v 6.339203 0.363347 2.708172
v 6.612739 2.931409 2.617005
v 6.703905 2.840243 2.708172
v 6.612739 2.931409 2.434636
v 6.703905 2.840243 2.343470
v 6.430370 2.931409 2.617005
v 6.339203 2.840243 2.708172
v 6.430370 2.931409 2.434636
v 6.339203 2.840243 2.343470
v 6.703905 -0.003519 5.451499
v 6.703905 -0.003519 5.816202
v 6.339203 -0.003519 5.451499
v 6.339203 -0.003519 5.816202
v 6.703905 1.463945 5.451499
v 6.703905 1.463945 5.816202
v 6.339203 1.463945 5.816202
v 6.339203 1.463945 5.451499
v 6.339203 2.197677 5.451499
v 6.339203 2.197677 5.816202
v 6.703905 2.197677 5.816202
v 6.703905 2.197677 5.451499
v 6.703905 0.730213 5.451499
v 6.703905 0.730213 5.816202
v 6.339203 0.730213 5.816202
v 6.339203 0.730213 5.451499
v 6.339203 2.564543 5.451499
v 6.339203 2.564543 5.816202
v 6.703905 2.564543 5.816202
v 6.703905 2.564543 5.451499
v 6.703905 0.363347 5.451499
v 6.703905 0.363347 5.816202
v 6.339203 0.363347 5.816202
v 6.339203 0.363347 5.451499
v 6.612739 2.931409 5.542666
v 6.703905 2.840243 5.451499
v 6.612739 2.931409 5.725035
v 6.703905 2.840243 5.816202
v 6.430370 2.931409 5.542666
v 6.339203 2.840243 5.451499
v 6.430370 2.931409 5.725035
v 6.339203 2.840243 5.816202
vt 0.375000 0.000000
vt 0.625000 0.000000
vt 0.375000 0.750000
vt 0.625000 0.750000
vt 0.375000 1.000000
vt 0.625000 1.000000
vt 0.875000 0.000000
vt 0.125000 0.000000
vt 0.375000 0.125000
vt 0.625000 0.125000
vt 0.625000 0.625000
vt 0.875000 0.125000
vt 0.375000 0.625000
vt 0.375000 0.562500
vt 0.625000 0.562500
vt 0.875000 0.187500
vt 0.625000 0.187500
vt 0.375000 0.187500
vt 0.375000 0.062500
vt 0.625000 0.062500
vt 0.625000 0.687500
vt 0.875000 0.062500
vt 0.375000 0.687500
vt 0.250000 0.375000
vt 0.625000 0.531250
vt 0.375000 0.031250
vt 0.625000 0.031250
vt 0.625000 0.718750
vt 0.875000 0.031250
vt 0.250000 0.375000
vt 0.437494 0.312494
vt 0.375000 0.507766
vt 0.437494 0.437506
vt 0.562506 0.312494
vt 0.562506 0.437506
vt 0.625000 0.507766
vt 0.875000 0.218750
vt 0.875000 0.242234
vt 0.625000 0.242234
vt 0.625000 0.218750
vt 0.375000 0.242234
vt 0.375000 0.218750
vt 0.125000 0.242234
vt 0.375000 0.125000
vt 0.625000 0.125000
vt 0.625000 0.187500
vt 0.375000 0.187500
vt 0.375000 0.562500
vt 0.625000 0.562500
vt 0.625000 0.625000
vt 0.375000 0.625000
vt 0.375000 0.750000
vt 0.625000 0.750000
vt 0.625000 1.000000
vt 0.375000 1.000000
vt 0.875000 0.125000
vt 0.875000 0.187500
vt 0.375000 0.062500
vt 0.625000 0.062500
vt 0.875000 0.062500
vt 0.625000 0.687500
vt 0.375000 0.687500
vt 0.250000 0.375000
vt 0.625000 0.531250
vt 0.875000 0.218750
vt 0.625000 0.218750
vt 0.375000 0.218750
vt 0.375000 0.031250
vt 0.625000 0.031250
vt 0.875000 0.031250
vt 0.625000 0.718750
vt 0.250000 0.375000
vt 0.375000 0.000000
vt 0.625000 0.000000
vt 0.875000 0.000000
vt 0.125000 0.000000
vt 0.437494 0.312494
vt 0.375000 0.242234
vt 0.625000 0.242234
vt 0.562506 0.312494
vt 0.437494 0.437506
vt 0.375000 0.507766
vt 0.625000 0.507766
vt 0.562506 0.437506
vt 0.875000 0.242234
vt 0.125000 0.242234
vn 1.000000 0.000000 0.000000
vn 1.000000 0.000000 0.000000
vn 1.000000 0.000000 0.000000
vn 1.000000 0.000000 0.000000
vn -1.000000 0.000000 -0.000000
vn -1.000000 0.000000 -0.000000
vn -1.000000 0.000000 -0.000000
vn -1.000000 0.000000 -0.000000
vn 0.000000 -1.000000 0.000000
vn 0.000000 -1.000000 0.000000
vn 0.000000 -1.000000 0.000000
vn 0.000000 -1.000000 0.000000
vn 0.000000 0.000000 -1.000000
vn 0.000000 0.000000 -1.000000
vn 0.000000 0.000000 -1.000000
vn 0.000000 0.000000 -1.000000
vn 1.000000 0.000000 0.000000
vn 1.000000 0.000000 0.000000
vn 0.000000 0.000000 -1.000000
vn 0.000000 0.000000 -1.000000
vn -1.000000 0.000000 -0.000000
vn -1.000000 0.000000 -0.000000
vn -1.000000 0.000000 -0.000000
vn -1.000000 0.000000 -0.000000
vn 0.000000 0.000000 -1.000000
vn 0.000000 0.000000 -1.000000
vn 1.000000 0.000000 0.000000
vn 1.000000 0.000000 0.000000
vn 1.000000 0.000000 0.000000
vn 1.000000 0.000000 0.000000
vn 0.000000 0.000000 -1.000000
vn 0.000000 0.000000 -1.000000
vn -1.000000 0.000000 -0.000000
vn -1.000000 0.000000 -0.000000
vn 1.000000 0.000000 0.000000
vn 1.000000 0.000000 0.000000
vn 0.000000 0.000000 -1.000000
vn 0.000000 0.000000 -1.000000
vn -1.000000 0.000000 -0.000000
vn -1.000000 0.000000 -0.000000
vn -0.000000 0.000000 1.000000
vn -0.000000 0.000000 1.000000
vn -0.000000 0.000000 1.000000
vn -0.000000 0.000000 1.000000
vn 0.707107 0.707107 0.000000
vn 0.707107 0.707107 0.000000
vn 0.707107 0.707107 0.000000
vn 0.707107 0.707107 0.000000
vn -0.000000 0.707107 0.707107
vn -0.000000 0.707107 0.707107
vn -0.000000 0.707107 0.707107
vn -0.000000 0.707107 0.707107
vn 0.000000 0.707107 -0.707107
vn 0.000000 0.707107 -0.707107
vn 0.000000 0.707107 -0.707107
vn 0.000000 0.707107 -0.707107
vn -0.707104 0.707110 -0.000000
vn -0.707104 0.707110 -0.000000
vn -0.707104 0.707110 -0.000000
vn -0.707104 0.707110 -0.000000
vn 0.000000 1.000000 0.000000
vn 0.000000 1.000000 0.000000
vn 0.000000 1.000000 0.000000
vn 0.000000 1.000000 0.000000
vn -1.000000 0.000000 -0.000000
vn -1.000000 0.000000 -0.000000
vn 0.000000 0.000000 -1.000000
vn 0.000000 0.000000 -1.000000
vn 1.000000 0.000000 0.000000
vn 1.000000 0.000000 0.000000
vn -0.000000 0.000000 1.000000
vn -0.000000 0.000000 1.000000
vn -0.000000 0.000000 1.000000
vn -0.000000 0.000000 1.000000
vn 1.000000 0.000000 0.000000
vn 1.000000 0.000000 0.000000
vn 1.000000 0.000000 0.000000
vn 1.000000 0.000000 0.000000
vn -1.000000 0.000000 -0.000000
vn -1.000000 0.000000 -0.000000
vn -1.000000 0.000000 -0.000000
vn -1.000000 0.000000 -0.000000
vn -0.000000 -1.000000 -0.000000
vn -0.000000 -1.000000 -0.000000
vn -0.000000 -1.000000 -0.000000
vn -0.000000 -1.000000 -0.000000
vn -0.000000 0.000000 1.000000
vn -0.000000 0.000000 1.000000
vn -0.000000 0.000000 1.000000
vn -0.000000 0.000000 1.000000
vn 1.000000 0.000000 0.000000
vn 1.000000 0.000000 0.000000
vn -0.000000 0.000000 1.000000
vn -0.000000 0.000000 1.000000
vn -1.000000 0.000000 -0.000000
vn -1.000000 0.000000 -0.000000
vn -1.000000 0.000000 -0.000000
vn -1.000000 0.000000 -0.000000
vn -0.000000 0.000000 1.000000
vn -0.000000 0.000000 1.000000
vn 1.000000 0.000000 0.000000
vn 1.000000 0.000000 0.000000
vn 1.000000 0.000000 0.000000
vn 1.000000 0.000000 0.000000
vn -0.000000 0.000000 1.000000
vn -0.000000 0.000000 1.000000
vn -1.000000 0.000000 -0.000000
vn -1.000000 0.000000 -0.000000
vn 1.000000 0.000000 0.000000
vn 1.000000 0.000000 0.000000
vn -0.000000 0.000000 1.000000
vn -0.000000 0.000000 1.000000
vn -1.000000 0.000000 -0.000000
vn -1.000000 0.000000 -0.000000
vn 0.000000 0.000000 -1.000000
vn 0.000000 0.000000 -1.000000
vn 0.000000 0.000000 -1.000000
vn 0.000000 0.000000 -1.000000
vn 0.707107 0.707107 0.000000
vn 0.707107 0.707107 0.000000
vn 0.707107 0.707107 0.000000
vn 0.707107 0.707107 0.000000
vn 0.000000 0.707107 -0.707107
vn 0.000000 0.707107 -0.707107
vn 0.000000 0.707107 -0.707107
vn 0.000000 0.707107 -0.707107
vn -0.000000 0.707106 0.707107
vn -0.000000 0.707106 0.707107
vn -0.000000 0.707106 0.707107
vn -0.000000 0.707106 0.707107
vn -0.707104 0.707110 -0.000000
vn -0.707104 0.707110 -0.000000
vn -0.707104 0.707110 -0.000000
vn -0.707104 0.707110 -0.000000
vn 0.000000 1.000000 0.000000
vn 0.000000 1.000000 0.000000
vn 0.000000 1.000000 0.000000
vn 0.000000 1.000000 0.000000
vn -1.000000 0.000000 -0.000000
vn -1.000000 0.000000 -0.000000
vn -0.000000 0.000000 1.000000
vn -0.000000 0.000000 1.000000
vn 1.000000 0.000000 0.000000
vn 1.000000 0.000000 0.000000
vn 0.000000 0.000000 -1.000000
vn 0.000000 0.000000 -1.000000
vn 0.000000 0.000000 -1.000000
vn 0.000000 0.000000 -1.000000
vn 0.000000 0.000000 -1.000000
vn 0.000000 0.000000 -1.000000
vn 0.000000 0.000000 -1.000000
vn 0.000000 0.000000 -1.000000
vn 0.000000 0.000000 -1.000000
vn 0.000000 0.000000 -1.000000
vn 0.000000 0.000000 -1.000000
vn 0.000000 0.000000 -1.000000
vn 0.000000 0.000000 -1.000000
vn 0.000000 0.000000 -1.000000
vn 0.000000 0.000000 -1.000000
vn 0.000000 0.000000 -1.000000
vn 0.000000 0.000000 -1.000000
vn 0.000000 0.000000 -1.000000
vn 0.000000 0.000000 -1.000000
vn 0.000000 0.000000 -1.000000
vn -0.000000 0.000000 1.000000
vn -0.000000 0.000000 1.000000
vn -0.000000 0.000000 1.000000
vn -0.000000 0.000000 1.000000
vn -0.000000 0.000000 1.000000
vn -0.000000 0.000000 1.000000
vn -0.000000 0.000000 1.000000
vn -0.000000 0.000000 1.000000
vn -0.000000 0.000000 1.000000
vn -0.000000 0.000000 1.000000
vn -0.000000 0.000000 1.000000
vn -0.000000 0.000000 1.000000
vn -0.000000 0.000000 1.000000
vn -0.000000 0.000000 1.000000
vn -0.000000 0.000000 1.000000
vn -0.000000 0.000000 1.000000
s 1
g open_gate
usemtl initialShadingGroup
f 5/9/1 6/10/2 11/17/3 12/18/4
s 2
f 9/14/5 10/15/6 7/11/7 8/13/8
s off
f 3/3/9 4/4/10 2/6/11 1/5/12
s 3
f 6/10/13 7/12/14 10/16/15 11/17/16
s 1
f 13/19/17 14/20/18 6/10/2 5/9/1
s 3
f 14/20/19 15/22/20 7/12/14 6/10/13
s 2
f 8/13/8 7/11/7 15/21/21 16/23/22
f 17/24/23 18/25/24 10/15/6 9/14/5
s 3
f 11/17/16 10/16/15 18/37/25 19/40/26
s 1
f 12/18/4 11/17/3 19/40/27 20/42/28
f 21/26/29 22/27/30 14/20/18 13/19/17
s 3
f 22/27/31 23/29/32 15/22/20 14/20/19
s 2
f 16/23/22 15/21/21 23/28/33 24/30/34
s 1
f 1/1/35 2/2/36 22/27/30 21/26/29
s 3
f 2/2/37 4/7/38 23/29/32 22/27/31
s 2
f 24/30/34 23/28/33 4/4/39 3/3/40
s off
f 3/8/41 1/1/42 21/26/43 24/30/44
f 25/31/45 26/41/46 28/39/47 27/34/48
f 26/41/49 25/31/50 29/33/51 30/32/52
f 27/34/53 28/39/54 32/36/55 31/35/56
f 30/32/57 29/33/58 31/35/59 32/36/60
f 25/31/61 27/34/62 31/35/63 29/33/64
s 2
f 30/32/65 32/36/66 18/25/24 17/24/23
s 3
f 19/40/26 18/37/25 32/38/67 28/39/68
s 1
f 20/42/28 19/40/27 28/39/69 26/41/70
s off
f 17/24/71 20/42/72 26/41/73 30/43/74
s 4
f 37/44/75 44/47/76 43/46/77 38/45/78
s 5
f 41/48/79 40/51/80 39/50/81 42/49/82
s off
f 35/52/83 33/55/84 34/54/85 36/53/86
s 6
f 38/45/87 43/46/88 42/57/89 39/56/90
s 4
f 45/58/91 37/44/75 38/45/78 46/59/92
s 6
f 46/59/93 38/45/87 39/56/90 47/60/94
s 5
f 40/51/80 48/62/95 47/61/96 39/50/81
f 49/63/97 41/48/79 42/49/82 50/64/98
s 6
f 43/46/88 51/66/99 50/65/100 42/57/89
s 4
f 44/47/76 52/67/101 51/66/102 43/46/77
f 53/68/103 45/58/91 46/59/92 54/69/104
s 6
f 54/69/105 46/59/93 47/60/94 55/70/106
s 5
f 48/62/95 56/72/107 55/71/108 47/61/96
s 4
f 33/73/109 53/68/103 54/69/104 34/74/110
s 6
f 34/74/111 54/69/105 55/70/106 36/75/112
s 5
f 56/72/107 35/52/113 36/53/114 55/71/108
s off
f 35/76/115 56/72/116 53/68/117 33/73/118
f 57/77/119 59/80/120 60/79/121 58/78/122
f 58/78/123 62/82/124 61/81/125 57/77/126
f 59/80/127 63/84/128 64/83/129 60/79/130
f 62/82/131 64/83/132 63/84/133 61/81/134
f 57/77/135 61/81/136 63/84/137 59/80/138
s 5
f 62/82/139 49/63/97 50/64/98 64/83/140
s 6
f 51/66/99 60/79/141 64/85/142 50/65/100
s 4
f 52/67/101 58/78/143 60/79/144 51/66/102
s off
f 49/63/145 62/86/146 58/78/147 52/67/148
f 41/48/149 49/63/150 52/67/151 44/47/152
f 44/47/153 37/44/154 40/51/155 41/48/156
f 37/44/157 45/58/158 48/62/159 40/51/160
f 45/58/161 53/68/162 56/72/163 48/62/164
f 16/23/165 24/30/166 21/26/167 13/19/168
f 8/13/169 16/23/170 13/19/171 5/9/172
f 5/9/173 12/18/174 9/14/175 8/13/176
f 12/18/177 20/42/178 17/24/179 9/14/180
