# This file uses centimeters as units for non-parametric coordinates.

mtllib Grass1.mtl
g default
v 0.095416 -0.001107 0.113571
v 0.031335 -0.001107 0.134392
v 0.031335 -0.001107 0.201771
v 0.095416 -0.001107 0.222593
v 0.135020 -0.001107 0.168082
v 0.074727 0.024581 0.129231
v 0.029055 0.024581 0.144071
v 0.029055 0.024581 0.192093
v 0.074727 0.024581 0.206932
v 0.102953 0.024581 0.168082
v 0.059282 0.077898 0.137899
v 0.023801 0.077898 0.149428
v 0.023801 0.077898 0.186736
v 0.059282 0.077898 0.198264
v 0.081211 0.077898 0.168082
v 0.077569 0.150267 0.141009
v 0.045743 0.150267 0.151350
v 0.045743 0.150267 0.184814
v 0.077569 0.150267 0.195155
v 0.097238 0.150267 0.168082
v 0.119599 0.227796 0.143758
v 0.091004 0.227796 0.153049
v 0.091004 0.227796 0.183115
v 0.119599 0.227796 0.192406
v 0.137272 0.227796 0.168082
v 0.136910 0.291276 0.155103
v 0.121653 0.291276 0.160061
v 0.121653 0.291276 0.176103
v 0.136910 0.291276 0.181060
v 0.146340 0.291276 0.168082
v 0.077704 -0.001107 0.168082
v 0.132693 0.291276 0.168082
vt 0.548284 0.007647
vt 0.373591 0.064409
vt 0.373591 0.248091
vt 0.548284 0.304853
vt 0.656250 0.156250
vt 0.375000 0.312500
vt 0.425000 0.312500
vt 0.475000 0.312500
vt 0.525000 0.312500
vt 0.575000 0.312500
vt 0.625000 0.312500
vt 0.375000 0.387688
vt 0.425000 0.387688
vt 0.475000 0.387688
vt 0.525000 0.387688
vt 0.575000 0.387688
vt 0.625000 0.387688
vt 0.375000 0.462876
vt 0.425000 0.462876
vt 0.475000 0.462876
vt 0.525000 0.462876
vt 0.575000 0.462876
vt 0.625000 0.462876
vt 0.375000 0.538064
vt 0.425000 0.538064
vt 0.475000 0.538064
vt 0.525000 0.538064
vt 0.575000 0.538064
vt 0.625000 0.538064
vt 0.375000 0.613252
vt 0.425000 0.613252
vt 0.475000 0.613252
vt 0.525000 0.613252
vt 0.575000 0.613252
vt 0.625000 0.613252
vt 0.375000 0.688440
vt 0.425000 0.688440
vt 0.475000 0.688440
vt 0.525000 0.688440
vt 0.575000 0.688440
vt 0.625000 0.688440
vt 0.548284 0.695147
vt 0.373591 0.751909
vt 0.373591 0.935591
vt 0.548284 0.992353
vt 0.656250 0.843750
vt 0.500000 0.150000
vt 0.500000 0.837500
vn -0.293371 0.314164 -0.902903
vn -0.293371 0.314164 -0.902903
vn -0.305261 0.155443 -0.939496
vn -0.302427 0.205414 -0.930775
vn -0.996086 -0.088386 -0.000000
vn -0.996086 -0.088386 -0.000000
vn -0.995609 -0.093614 -0.000000
vn -0.995609 -0.093614 -0.000000
vn -0.293371 0.314164 0.902903
vn -0.293371 0.314164 0.902903
vn -0.302427 0.205414 0.930775
vn -0.305261 0.155443 0.939496
vn 0.569228 0.710592 0.413568
vn 0.569228 0.710592 0.413568
vn 0.672643 0.555626 0.488704
vn 0.694990 0.511883 0.504940
vn 0.569228 0.710592 -0.413568
vn 0.569228 0.710592 -0.413568
vn 0.694990 0.511883 -0.504940
vn 0.672643 0.555626 -0.488704
vn -0.307712 0.091787 -0.947042
vn -0.307691 0.092547 -0.946975
vn -0.994387 0.105807 0.000000
vn -0.994387 0.105807 0.000000
vn -0.307691 0.092547 0.946975
vn -0.307713 0.091788 0.947042
vn 0.807190 0.067171 0.586458
vn 0.806891 0.072442 0.586241
vn 0.806892 0.072442 -0.586241
vn 0.807190 0.067171 -0.586458
vn -0.305662 0.146961 -0.940730
vn -0.304766 0.165307 -0.937972
vn -0.915726 0.401803 0.000000
vn -0.915726 0.401803 0.000000
vn -0.304766 0.165307 0.937972
vn -0.305662 0.146961 0.940730
vn 0.772588 -0.296700 0.561318
vn 0.779693 -0.266796 0.566480
vn 0.779693 -0.266796 -0.566480
vn 0.772588 -0.296700 -0.561318
vn -0.302133 0.209899 -0.929870
vn -0.301351 0.221356 -0.927464
vn -0.876972 0.480542 -0.000000
vn -0.876972 0.480542 -0.000000
vn -0.301351 0.221356 0.927464
vn -0.302133 0.209899 0.929870
vn 0.777519 -0.276320 0.564900
vn 0.768061 -0.314142 0.558029
vn 0.768061 -0.314142 -0.558029
vn 0.777519 -0.276320 -0.564900
vn -0.299488 0.246415 -0.921730
vn -0.299488 0.246415 -0.921730
vn -0.900531 0.434792 -0.000000
vn -0.900531 0.434792 -0.000000
vn -0.299488 0.246415 0.921730
vn -0.299488 0.246415 0.921730
vn 0.803668 -0.114803 0.583899
vn 0.803668 -0.114803 0.583899
vn 0.803668 -0.114803 -0.583899
vn 0.803668 -0.114803 -0.583899
vn 0.000000 -1.000000 0.000000
vn 0.000000 -1.000000 0.000000
vn 0.000000 -1.000000 0.000000
vn 0.000000 -1.000000 0.000000
vn 0.000000 -1.000000 0.000000
vn 0.000000 -1.000000 0.000000
vn 0.000000 1.000000 -0.000001
vn 0.000000 1.000000 -0.000001
vn 0.000000 1.000000 -0.000000
vn 0.000000 1.000000 0.000000
vn 0.000000 1.000000 0.000000
vn 0.000000 1.000000 0.000000
s 1
g Grass3 Grass
usemtl lambert7SG
f 1/6/1 2/7/2 7/13/3 6/12/4
s 2
f 2/7/5 3/8/6 8/14/7 7/13/8
s 3
f 3/8/9 4/9/10 9/15/11 8/14/12
s 4
f 4/9/13 5/10/14 10/16/15 9/15/16
s 5
f 5/10/17 1/11/18 6/17/19 10/16/20
s 1
f 6/12/4 7/13/3 12/19/21 11/18/22
s 2
f 7/13/8 8/14/7 13/20/23 12/19/24
s 3
f 8/14/12 9/15/11 14/21/25 13/20/26
s 4
f 9/15/16 10/16/15 15/22/27 14/21/28
s 5
f 10/16/20 6/17/19 11/23/29 15/22/30
s 1
f 11/18/22 12/19/21 17/25/31 16/24/32
s 2
f 12/19/24 13/20/23 18/26/33 17/25/34
s 3
f 13/20/26 14/21/25 19/27/35 18/26/36
s 4
f 14/21/28 15/22/27 20/28/37 19/27/38
s 5
f 15/22/30 11/23/29 16/29/39 20/28/40
s 1
f 16/24/32 17/25/31 22/31/41 21/30/42
s 2
f 17/25/34 18/26/33 23/32/43 22/31/44
s 3
f 18/26/36 19/27/35 24/33/45 23/32/46
s 4
f 19/27/38 20/28/37 25/34/47 24/33/48
s 5
f 20/28/40 16/29/39 21/35/49 25/34/50
s 1
f 21/30/42 22/31/41 27/37/51 26/36/52
s 2
f 22/31/44 23/32/43 28/38/53 27/37/54
s 3
f 23/32/46 24/33/45 29/39/55 28/38/56
s 4
f 24/33/48 25/34/47 30/40/57 29/39/58
s 5
f 25/34/50 21/35/49 26/41/59 30/40/60
s 6
f 2/2/61 1/1/62 31/47/63
f 3/3/64 2/2/61 31/47/63
f 4/4/65 3/3/64 31/47/63
f 5/5/66 4/4/65 31/47/63
f 1/1/62 5/5/66 31/47/63
s 7
f 26/45/67 27/44/68 32/48/69
f 27/44/68 28/43/70 32/48/69
f 28/43/70 29/42/71 32/48/69
f 29/42/71 30/46/72 32/48/69
f 30/46/72 26/45/67 32/48/69
g default
v 0.204244 0.000481 -0.057999
v 0.136063 0.000481 -0.035845
v 0.136063 0.000481 0.035845
v 0.204244 0.000481 0.057999
v 0.246383 0.000481 0.000000
v 0.201774 0.036656 -0.047095
v 0.146411 0.036656 -0.029106
v 0.146411 0.036656 0.029106
v 0.201774 0.036656 0.047095
v 0.235991 0.036656 -0.000000
v 0.190166 0.102669 -0.034062
v 0.150123 0.102669 -0.021052
v 0.150123 0.102669 0.021052
v 0.190166 0.102669 0.034062
v 0.214914 0.102669 -0.000000
v 0.193929 0.175767 -0.024275
v 0.165392 0.175767 -0.015003
v 0.165392 0.175767 0.015003
v 0.193929 0.175767 0.024275
v 0.211566 0.175767 -0.000000
v 0.207502 0.241348 -0.019507
v 0.184571 0.241348 -0.012056
v 0.184571 0.241348 0.012056
v 0.207502 0.241348 0.019507
v 0.221675 0.241348 -0.000000
v 0.193618 0.292959 -0.010667
v 0.181078 0.292959 -0.006593
v 0.181078 0.292959 0.006593
v 0.193618 0.292959 0.010667
v 0.201368 0.292959 -0.000000
v 0.185399 0.000481 0.000000
v 0.190152 0.292959 -0.000000
vt 0.548284 0.007647
vt 0.373591 0.064409
vt 0.373591 0.248091
vt 0.548284 0.304853
vt 0.656250 0.156250
vt 0.375000 0.312500
vt 0.425000 0.312500
vt 0.475000 0.312500
vt 0.525000 0.312500
vt 0.575000 0.312500
vt 0.625000 0.312500
vt 0.375000 0.387688
vt 0.425000 0.387688
vt 0.475000 0.387688
vt 0.525000 0.387688
vt 0.575000 0.387688
vt 0.625000 0.387688
vt 0.375000 0.462876
vt 0.425000 0.462876
vt 0.475000 0.462876
vt 0.525000 0.462876
vt 0.575000 0.462876
vt 0.625000 0.462876
vt 0.375000 0.538064
vt 0.425000 0.538064
vt 0.475000 0.538064
vt 0.525000 0.538064
vt 0.575000 0.538064
vt 0.625000 0.538064
vt 0.375000 0.613252
vt 0.425000 0.613252
vt 0.475000 0.613252
vt 0.525000 0.613252
vt 0.575000 0.613252
vt 0.625000 0.613252
vt 0.375000 0.688440
vt 0.425000 0.688440
vt 0.475000 0.688440
vt 0.525000 0.688440
vt 0.575000 0.688440
vt 0.625000 0.688440
vt 0.548284 0.695147
vt 0.373591 0.751909
vt 0.373591 0.935591
vt 0.548284 0.992353
vt 0.656250 0.843750
vt 0.500000 0.150000
vt 0.500000 0.837500
vn -0.298664 0.256671 -0.919195
vn -0.298664 0.256671 -0.919195
vn -0.303443 0.189083 -0.933901
vn -0.303233 0.192578 -0.933254
vn -0.961435 0.275032 -0.000000
vn -0.961435 0.275032 -0.000000
vn -0.987098 0.160117 -0.000000
vn -0.987098 0.160117 -0.000000
vn -0.298665 0.256671 0.919195
vn -0.298665 0.256671 0.919195
vn -0.303233 0.192578 0.933254
vn -0.303443 0.189083 0.933901
vn 0.788016 0.226372 0.572527
vn 0.788016 0.226372 0.572527
vn 0.785568 0.239016 0.570749
vn 0.785489 0.239413 0.570691
vn 0.788016 0.226372 -0.572527
vn 0.788016 0.226372 -0.572527
vn 0.785489 0.239413 -0.570691
vn 0.785568 0.239016 -0.570749
vn -0.306138 0.136194 -0.942195
vn -0.306138 0.136186 -0.942196
vn -0.992978 0.118299 -0.000000
vn -0.992978 0.118299 -0.000000
vn -0.306138 0.136186 0.942196
vn -0.306138 0.136194 0.942195
vn 0.797960 0.164765 0.579752
vn 0.797959 0.164775 0.579751
vn 0.797959 0.164775 -0.579751
vn 0.797960 0.164765 -0.579752
vn -0.306039 0.138484 -0.941893
vn -0.306078 0.137582 -0.942012
vn -0.972176 0.234250 -0.000000
vn -0.972176 0.234250 -0.000000
vn -0.306078 0.137582 0.942012
vn -0.306039 0.138484 0.941893
vn 0.808664 -0.029529 0.587529
vn 0.808850 -0.020291 0.587664
vn 0.808851 -0.020291 -0.587664
vn 0.808664 -0.029529 -0.587529
vn -0.306978 0.114679 -0.944782
vn -0.306977 0.114725 -0.944777
vn -0.985264 0.171040 -0.000000
vn -0.985264 0.171040 -0.000000
vn -0.306977 0.114725 0.944777
vn -0.306978 0.114679 0.944782
vn 0.808819 0.022131 0.587641
vn 0.808828 0.021615 0.587648
vn 0.808828 0.021615 -0.587648
vn 0.808819 0.022131 -0.587641
vn -0.308039 0.079503 -0.948046
vn -0.308039 0.079503 -0.948046
vn -0.997717 -0.067531 -0.000000
vn -0.997717 -0.067531 -0.000000
vn -0.308039 0.079503 0.948046
vn -0.308039 0.079503 0.948046
vn 0.770902 0.303323 0.560094
vn 0.770902 0.303323 0.560094
vn 0.770903 0.303323 -0.560093
vn 0.770903 0.303323 -0.560093
vn 0.000000 -1.000000 0.000000
vn 0.000000 -1.000000 0.000000
vn 0.000000 -1.000000 0.000000
vn 0.000000 -1.000000 0.000000
vn 0.000000 -1.000000 0.000000
vn 0.000000 -1.000000 0.000000
vn 0.000000 1.000000 -0.000002
vn 0.000000 1.000000 -0.000002
vn 0.000000 1.000000 -0.000001
vn 0.000000 1.000000 0.000000
vn 0.000000 1.000000 0.000000
vn 0.000000 1.000000 0.000000
s 1
g Grass Grass2
usemtl lambert7SG
f 33/54/73 34/55/74 39/61/75 38/60/76
s 2
f 34/55/77 35/56/78 40/62/79 39/61/80
s 3
f 35/56/81 36/57/82 41/63/83 40/62/84
s 4
f 36/57/85 37/58/86 42/64/87 41/63/88
s 5
f 37/58/89 33/59/90 38/65/91 42/64/92
s 1
f 38/60/76 39/61/75 44/67/93 43/66/94
s 2
f 39/61/80 40/62/79 45/68/95 44/67/96
s 3
f 40/62/84 41/63/83 46/69/97 45/68/98
s 4
f 41/63/88 42/64/87 47/70/99 46/69/100
s 5
f 42/64/92 38/65/91 43/71/101 47/70/102
s 1
f 43/66/94 44/67/93 49/73/103 48/72/104
s 2
f 44/67/96 45/68/95 50/74/105 49/73/106
s 3
f 45/68/98 46/69/97 51/75/107 50/74/108
s 4
f 46/69/100 47/70/99 52/76/109 51/75/110
s 5
f 47/70/102 43/71/101 48/77/111 52/76/112
s 1
f 48/72/104 49/73/103 54/79/113 53/78/114
s 2
f 49/73/106 50/74/105 55/80/115 54/79/116
s 3
f 50/74/108 51/75/107 56/81/117 55/80/118
s 4
f 51/75/110 52/76/109 57/82/119 56/81/120
s 5
f 52/76/112 48/77/111 53/83/121 57/82/122
s 1
f 53/78/114 54/79/113 59/85/123 58/84/124
s 2
f 54/79/116 55/80/115 60/86/125 59/85/126
s 3
f 55/80/118 56/81/117 61/87/127 60/86/128
s 4
f 56/81/120 57/82/119 62/88/129 61/87/130
s 5
f 57/82/122 53/83/121 58/89/131 62/88/132
s 6
f 34/50/133 33/49/134 63/95/135
f 35/51/136 34/50/133 63/95/135
f 36/52/137 35/51/136 63/95/135
f 37/53/138 36/52/137 63/95/135
f 33/49/134 37/53/138 63/95/135
s 7
f 58/93/139 59/92/140 64/96/141
f 59/92/140 60/91/142 64/96/141
f 60/91/142 61/90/143 64/96/141
f 61/90/143 62/94/144 64/96/141
f 62/94/144 58/93/139 64/96/141
g default
v 0.017688 -0.003167 -0.054439
v -0.046308 -0.003167 -0.033645
v -0.046308 -0.003167 0.033645
v 0.017688 -0.003167 0.054439
v 0.057240 -0.003167 0.000000
v -0.002824 0.034974 -0.040994
v -0.051015 0.034974 -0.025336
v -0.051015 0.034974 0.025336
v -0.002824 0.034974 0.040994
v 0.026959 0.034974 -0.000000
v -0.022873 0.094472 -0.035796
v -0.064954 0.094472 -0.022123
v -0.064954 0.094472 0.022123
v -0.022873 0.094472 0.035796
v 0.003135 0.094472 -0.000000
v -0.023258 0.163010 -0.032001
v -0.060878 0.163010 -0.019778
v -0.060878 0.163010 0.019778
v -0.023258 0.163010 0.032001
v -0.000008 0.163010 -0.000000
v -0.023706 0.230114 -0.025547
v -0.053739 0.230114 -0.015789
v -0.053739 0.230114 0.015789
v -0.023706 0.230114 0.025547
v -0.005145 0.230114 -0.000000
v -0.082871 0.287149 -0.015157
v -0.100690 0.287149 -0.009368
v -0.100690 0.287149 0.009368
v -0.082871 0.287149 0.015157
v -0.071858 0.287149 -0.000000
v 0.000000 -0.003167 0.000000
v -0.087796 0.287149 -0.000000
vt 0.548284 0.007647
vt 0.373591 0.064409
vt 0.373591 0.248091
vt 0.548284 0.304853
vt 0.656250 0.156250
vt 0.375000 0.312500
vt 0.425000 0.312500
vt 0.475000 0.312500
vt 0.525000 0.312500
vt 0.575000 0.312500
vt 0.625000 0.312500
vt 0.375000 0.387688
vt 0.425000 0.387688
vt 0.475000 0.387688
vt 0.525000 0.387688
vt 0.575000 0.387688
vt 0.625000 0.387688
vt 0.375000 0.462876
vt 0.425000 0.462876
vt 0.475000 0.462876
vt 0.525000 0.462876
vt 0.575000 0.462876
vt 0.625000 0.462876
vt 0.375000 0.538064
vt 0.425000 0.538064
vt 0.475000 0.538064
vt 0.525000 0.538064
vt 0.575000 0.538064
vt 0.625000 0.538064
vt 0.375000 0.613252
vt 0.425000 0.613252
vt 0.475000 0.613252
vt 0.525000 0.613252
vt 0.575000 0.613252
vt 0.625000 0.613252
vt 0.375000 0.688440
vt 0.425000 0.688440
vt 0.475000 0.688440
vt 0.525000 0.688440
vt 0.575000 0.688440
vt 0.625000 0.688440
vt 0.548284 0.695147
vt 0.373591 0.751909
vt 0.373591 0.935591
vt 0.548284 0.992353
vt 0.656250 0.843750
vt 0.500000 0.150000
vt 0.500000 0.837500
vn -0.304693 0.166702 -0.937749
vn -0.304693 0.166702 -0.937749
vn -0.308612 0.051172 -0.949811
vn -0.307808 0.088361 -0.947336
vn -0.992471 -0.122480 -0.000000
vn -0.992471 -0.122480 -0.000000
vn -0.984067 -0.177798 -0.000000
vn -0.984067 -0.177798 -0.000000
vn -0.304693 0.166702 0.937749
vn -0.304693 0.166702 0.937749
vn -0.307808 0.088361 0.947336
vn -0.308612 0.051172 0.949810
vn 0.680698 0.540429 0.494556
vn 0.680698 0.540429 0.494556
vn 0.725325 0.442941 0.526979
vn 0.735532 0.416429 0.534396
vn 0.680698 0.540429 -0.494556
vn 0.680698 0.540429 -0.494556
vn 0.735533 0.416429 -0.534396
vn 0.725325 0.442941 -0.526979
vn -0.308969 0.017617 -0.950909
vn -0.308996 0.011521 -0.950993
vn -0.995958 -0.089822 -0.000000
vn -0.995958 -0.089822 -0.000000
vn -0.308997 0.011521 0.950993
vn -0.308969 0.017617 0.950909
vn 0.794806 0.186612 0.577460
vn 0.796838 0.172860 0.578937
vn 0.796838 0.172860 -0.578937
vn 0.794806 0.186612 -0.577460
vn -0.308313 0.067455 -0.948890
vn -0.308304 0.067882 -0.948863
vn -0.996809 0.079821 -0.000000
vn -0.996809 0.079821 -0.000000
vn -0.308304 0.067882 0.948863
vn -0.308313 0.067455 0.948890
vn 0.808083 0.048032 0.587107
vn 0.808090 0.047861 0.587112
vn 0.808090 0.047861 -0.587111
vn 0.808083 0.048032 -0.587107
vn -0.308972 -0.017141 -0.950917
vn -0.308812 0.036452 -0.950424
vn -0.976137 -0.217154 -0.000000
vn -0.976137 -0.217154 -0.000000
vn -0.308812 0.036452 0.950424
vn -0.308972 -0.017141 0.950917
vn 0.770517 0.304815 0.559814
vn 0.744872 0.390241 0.541181
vn 0.744872 0.390241 -0.541181
vn 0.770517 0.304815 -0.559813
vn -0.305718 -0.145734 -0.940903
vn -0.305718 -0.145734 -0.940903
vn -0.772061 -0.635549 0.000000
vn -0.772061 -0.635549 0.000000
vn -0.305718 -0.145734 0.940903
vn -0.305718 -0.145734 0.940903
vn 0.587625 0.687330 0.426935
vn 0.587625 0.687330 0.426935
vn 0.587625 0.687331 -0.426935
vn 0.587625 0.687331 -0.426935
vn 0.000000 -1.000000 0.000000
vn 0.000000 -1.000000 0.000000
vn 0.000000 -1.000000 0.000000
vn 0.000000 -1.000000 0.000000
vn 0.000000 -1.000000 0.000000
vn 0.000000 -1.000000 0.000000
vn 0.000000 1.000000 0.000000
vn 0.000000 1.000000 0.000000
vn 0.000000 1.000000 -0.000000
vn 0.000000 1.000000 0.000000
vn 0.000000 1.000000 -0.000001
vn 0.000000 1.000000 -0.000001
s 1
g Grass Grass1
usemtl lambert7SG
f 65/102/145 66/103/146 71/109/147 70/108/148
s 2
f 66/103/149 67/104/150 72/110/151 71/109/152
s 3
f 67/104/153 68/105/154 73/111/155 72/110/156
s 4
f 68/105/157 69/106/158 74/112/159 73/111/160
s 5
f 69/106/161 65/107/162 70/113/163 74/112/164
s 1
f 70/108/148 71/109/147 76/115/165 75/114/166
s 2
f 71/109/152 72/110/151 77/116/167 76/115/168
s 3
f 72/110/156 73/111/155 78/117/169 77/116/170
s 4
f 73/111/160 74/112/159 79/118/171 78/117/172
s 5
f 74/112/164 70/113/163 75/119/173 79/118/174
s 1
f 75/114/166 76/115/165 81/121/175 80/120/176
s 2
f 76/115/168 77/116/167 82/122/177 81/121/178
s 3
f 77/116/170 78/117/169 83/123/179 82/122/180
s 4
f 78/117/172 79/118/171 84/124/181 83/123/182
s 5
f 79/118/174 75/119/173 80/125/183 84/124/184
s 1
f 80/120/176 81/121/175 86/127/185 85/126/186
s 2
f 81/121/178 82/122/177 87/128/187 86/127/188
s 3
f 82/122/180 83/123/179 88/129/189 87/128/190
s 4
f 83/123/182 84/124/181 89/130/191 88/129/192
s 5
f 84/124/184 80/125/183 85/131/193 89/130/194
s 1
f 85/126/186 86/127/185 91/133/195 90/132/196
s 2
f 86/127/188 87/128/187 92/134/197 91/133/198
s 3
f 87/128/190 88/129/189 93/135/199 92/134/200
s 4
f 88/129/192 89/130/191 94/136/201 93/135/202
s 5
f 89/130/194 85/131/193 90/137/203 94/136/204
s 6
f 66/98/205 65/97/206 95/143/207
f 67/99/208 66/98/205 95/143/207
f 68/100/209 67/99/208 95/143/207
f 69/101/210 68/100/209 95/143/207
f 65/97/206 69/101/210 95/143/207
s 7
f 90/141/211 91/140/212 96/144/213
f 91/140/212 92/139/214 96/144/213
f 92/139/214 93/138/215 96/144/213
f 93/138/215 94/142/216 96/144/213
f 94/142/216 90/141/211 96/144/213
