# This file uses centimeters as units for non-parametric coordinates.

mtllib Grass4.mtl
g default
v 2.814576 -0.001107 8.425365
v 2.769113 -0.001107 8.375636
v 2.707769 -0.001107 8.403508
v 2.715320 -0.001107 8.470462
v 2.781330 -0.001107 8.483971
v 2.791761 0.024581 8.413007
v 2.759358 0.024581 8.377565
v 2.715637 0.024581 8.397429
v 2.721019 0.024581 8.445149
v 2.768066 0.024581 8.454776
v 2.777480 0.077898 8.402532
v 2.752307 0.077898 8.374997
v 2.718341 0.077898 8.390429
v 2.722522 0.077898 8.427502
v 2.759072 0.077898 8.434982
v 2.782213 0.150267 8.420467
v 2.759634 0.150267 8.395769
v 2.729168 0.150267 8.409611
v 2.732918 0.150267 8.442864
v 2.765702 0.150267 8.449573
v 2.797097 0.227796 8.459869
v 2.776810 0.227796 8.437678
v 2.749436 0.227796 8.450116
v 2.752806 0.227796 8.479993
v 2.782262 0.227796 8.486021
v 2.793928 0.291276 8.480323
v 2.783104 0.291276 8.468483
v 2.768498 0.291276 8.475119
v 2.770296 0.291276 8.491060
v 2.786013 0.291276 8.494277
v 2.757622 -0.001107 8.431789
v 2.780368 0.291276 8.481853
vt 0.548284 0.007647
vt 0.373591 0.064409
vt 0.373591 0.248091
vt 0.548284 0.304853
vt 0.656250 0.156250
vt 0.375000 0.312500
vt 0.425000 0.312500
vt 0.475000 0.312500
vt 0.525000 0.312500
vt 0.575000 0.312500
vt 0.625000 0.312500
vt 0.375000 0.387688
vt 0.425000 0.387688
vt 0.475000 0.387688
vt 0.525000 0.387688
vt 0.575000 0.387688
vt 0.625000 0.387688
vt 0.375000 0.462876
vt 0.425000 0.462876
vt 0.475000 0.462876
vt 0.525000 0.462876
vt 0.575000 0.462876
vt 0.625000 0.462876
vt 0.375000 0.538064
vt 0.425000 0.538064
vt 0.475000 0.538064
vt 0.525000 0.538064
vt 0.575000 0.538064
vt 0.625000 0.538064
vt 0.375000 0.613252
vt 0.425000 0.613252
vt 0.475000 0.613252
vt 0.525000 0.613252
vt 0.575000 0.613252
vt 0.625000 0.613252
vt 0.375000 0.688440
vt 0.425000 0.688440
vt 0.475000 0.688440
vt 0.525000 0.688440
vt 0.575000 0.688440
vt 0.625000 0.688440
vt 0.548284 0.695147
vt 0.373591 0.751909
vt 0.373591 0.935591
vt 0.548284 0.992353
vt 0.656250 0.843750
vt 0.500000 0.150000
vt 0.500000 0.837500
vn 0.700681 0.314164 -0.640583
vn 0.700681 0.314164 -0.640583
vn 0.729078 0.155443 -0.666545
vn 0.722311 0.205414 -0.660358
vn -0.412033 -0.088386 -0.906872
vn -0.412033 -0.088386 -0.906872
vn -0.411836 -0.093614 -0.906437
vn -0.411836 -0.093614 -0.906437
vn -0.943388 0.314164 0.106393
vn -0.943388 0.314164 0.106393
vn -0.972510 0.205414 0.109677
vn -0.981622 0.155443 0.110705
vn -0.141065 0.710592 0.689319
vn -0.141065 0.710592 0.689319
vn -0.166693 0.555626 0.814551
vn -0.172231 0.511883 0.841613
vn 0.611989 0.710592 0.347172
vn 0.611989 0.710592 0.347172
vn 0.747199 0.511883 0.423874
vn 0.723173 0.555626 0.410244
vn 0.734934 0.091787 -0.671898
vn 0.734882 0.092547 -0.671851
vn -0.411330 0.105807 -0.905324
vn -0.411330 0.105807 -0.905324
vn -0.989436 0.092547 0.111586
vn -0.989506 0.091788 0.111594
vn -0.200036 0.067171 0.977483
vn -0.199962 0.072442 0.977122
vn 0.867507 0.072442 0.492122
vn 0.867827 0.067171 0.492304
vn 0.730036 0.146961 -0.667420
vn 0.727896 0.165307 -0.665463
vn -0.378792 0.401803 -0.833709
vn -0.378792 0.401803 -0.833709
vn -0.980029 0.165307 0.110525
vn -0.982911 0.146961 0.110850
vn -0.191461 -0.296700 0.935581
vn -0.193222 -0.266796 0.944185
vn 0.838265 -0.266796 0.475534
vn 0.830626 -0.296700 0.471201
vn 0.721608 0.209899 -0.659715
vn 0.719741 0.221356 -0.658008
vn -0.362761 0.480542 -0.798426
vn -0.362761 0.480542 -0.798426
vn -0.969050 0.221356 0.109287
vn -0.971564 0.209899 0.109570
vn -0.192683 -0.276320 0.941552
vn -0.190339 -0.314142 0.930100
vn 0.825759 -0.314143 0.468440
vn 0.835927 -0.276320 0.474208
vn 0.715291 0.246415 -0.653940
vn 0.715291 0.246415 -0.653940
vn -0.372506 0.434792 -0.819875
vn -0.372506 0.434792 -0.819875
vn -0.963059 0.246415 0.108611
vn -0.963059 0.246415 0.108611
vn -0.199163 -0.114803 0.973219
vn -0.199163 -0.114803 0.973219
vn 0.864041 -0.114803 0.490156
vn 0.864041 -0.114803 0.490157
vn 0.000000 -1.000000 0.000000
vn 0.000000 -1.000000 0.000000
vn -0.000000 -1.000000 0.000000
vn -0.000000 -1.000000 0.000000
vn -0.000000 -1.000000 0.000000
vn 0.000000 -1.000000 0.000000
vn 0.000001 1.000000 -0.000000
vn 0.000001 1.000000 -0.000000
vn 0.000000 1.000000 -0.000000
vn 0.000000 1.000000 0.000000
vn 0.000000 1.000000 0.000000
vn 0.000000 1.000000 0.000000
s 1
g Grass3 Grass6
usemtl lambert7SG
f 1/6/1 2/7/2 7/13/3 6/12/4
s 2
f 2/7/5 3/8/6 8/14/7 7/13/8
s 3
f 3/8/9 4/9/10 9/15/11 8/14/12
s 4
f 4/9/13 5/10/14 10/16/15 9/15/16
s 5
f 5/10/17 1/11/18 6/17/19 10/16/20
s 1
f 6/12/4 7/13/3 12/19/21 11/18/22
s 2
f 7/13/8 8/14/7 13/20/23 12/19/24
s 3
f 8/14/12 9/15/11 14/21/25 13/20/26
s 4
f 9/15/16 10/16/15 15/22/27 14/21/28
s 5
f 10/16/20 6/17/19 11/23/29 15/22/30
s 1
f 11/18/22 12/19/21 17/25/31 16/24/32
s 2
f 12/19/24 13/20/23 18/26/33 17/25/34
s 3
f 13/20/26 14/21/25 19/27/35 18/26/36
s 4
f 14/21/28 15/22/27 20/28/37 19/27/38
s 5
f 15/22/30 11/23/29 16/29/39 20/28/40
s 1
f 16/24/32 17/25/31 22/31/41 21/30/42
s 2
f 17/25/34 18/26/33 23/32/43 22/31/44
s 3
f 18/26/36 19/27/35 24/33/45 23/32/46
s 4
f 19/27/38 20/28/37 25/34/47 24/33/48
s 5
f 20/28/40 16/29/39 21/35/49 25/34/50
s 1
f 21/30/42 22/31/41 27/37/51 26/36/52
s 2
f 22/31/44 23/32/43 28/38/53 27/37/54
s 3
f 23/32/46 24/33/45 29/39/55 28/38/56
s 4
f 24/33/48 25/34/47 30/40/57 29/39/58
s 5
f 25/34/50 21/35/49 26/41/59 30/40/60
s 6
f 2/2/61 1/1/62 31/47/63
f 3/3/64 2/2/61 31/47/63
f 4/4/65 3/3/64 31/47/63
f 5/5/66 4/4/65 31/47/63
f 1/1/62 5/5/66 31/47/63
s 7
f 26/45/67 27/44/68 32/48/69
f 27/44/68 28/43/70 32/48/69
f 28/43/70 29/42/71 32/48/69
f 29/42/71 30/46/72 32/48/69
f 30/46/72 26/45/67 32/48/69
g default
v 2.701365 0.000481 8.461704
v 2.652992 0.000481 8.408793
v 2.587723 0.000481 8.438448
v 2.595757 0.000481 8.509687
v 2.665992 0.000481 8.524060
v 2.690416 0.036656 8.463966
v 2.651138 0.036656 8.421003
v 2.598139 0.036656 8.445082
v 2.604663 0.036656 8.502928
v 2.661693 0.036656 8.514599
v 2.673749 0.102669 8.458788
v 2.645340 0.102669 8.427713
v 2.607008 0.102669 8.445130
v 2.611726 0.102669 8.486968
v 2.652975 0.102669 8.495409
v 2.666395 0.175767 8.466263
v 2.646149 0.175767 8.444118
v 2.618831 0.175767 8.456529
v 2.622194 0.175767 8.486346
v 2.651590 0.175767 8.492361
v 2.667669 0.241348 8.480593
v 2.651399 0.241348 8.462797
v 2.629447 0.241348 8.472771
v 2.632149 0.241348 8.496731
v 2.655771 0.241348 8.501565
v 2.653877 0.292959 8.471608
v 2.644981 0.292959 8.461877
v 2.632976 0.292959 8.467331
v 2.634454 0.292959 8.480433
v 2.647371 0.292959 8.483077
v 2.640766 0.000481 8.468539
v 2.642732 0.292959 8.472865
vt 0.548284 0.007647
vt 0.373591 0.064409
vt 0.373591 0.248091
vt 0.548284 0.304853
vt 0.656250 0.156250
vt 0.375000 0.312500
vt 0.425000 0.312500
vt 0.475000 0.312500
vt 0.525000 0.312500
vt 0.575000 0.312500
vt 0.625000 0.312500
vt 0.375000 0.387688
vt 0.425000 0.387688
vt 0.475000 0.387688
vt 0.525000 0.387688
vt 0.575000 0.387688
vt 0.625000 0.387688
vt 0.375000 0.462876
vt 0.425000 0.462876
vt 0.475000 0.462876
vt 0.525000 0.462876
vt 0.575000 0.462876
vt 0.625000 0.462876
vt 0.375000 0.538064
vt 0.425000 0.538064
vt 0.475000 0.538064
vt 0.525000 0.538064
vt 0.575000 0.538064
vt 0.625000 0.538064
vt 0.375000 0.613252
vt 0.425000 0.613252
vt 0.475000 0.613252
vt 0.525000 0.613252
vt 0.575000 0.613252
vt 0.625000 0.613252
vt 0.375000 0.688440
vt 0.425000 0.688440
vt 0.475000 0.688440
vt 0.525000 0.688440
vt 0.575000 0.688440
vt 0.625000 0.688440
vt 0.548284 0.695147
vt 0.373591 0.751909
vt 0.373591 0.935591
vt 0.548284 0.992353
vt 0.656250 0.843750
vt 0.500000 0.150000
vt 0.500000 0.837500
vn 0.713324 0.256671 -0.652142
vn 0.713324 0.256671 -0.652142
vn 0.724736 0.189082 -0.662575
vn 0.724235 0.192578 -0.662116
vn -0.397700 0.275032 -0.875324
vn -0.397700 0.275032 -0.875324
vn -0.408315 0.160117 -0.898689
vn -0.408315 0.160117 -0.898689
vn -0.960410 0.256671 0.108312
vn -0.960411 0.256671 0.108312
vn -0.975100 0.192578 0.109969
vn -0.975775 0.189082 0.110045
vn -0.195284 0.226372 0.954264
vn -0.195284 0.226372 0.954264
vn -0.194678 0.239016 0.951300
vn -0.194658 0.239413 0.951204
vn 0.847213 0.226372 0.480610
vn 0.847213 0.226372 0.480610
vn 0.844496 0.239413 0.479069
vn 0.844581 0.239016 0.479117
vn 0.731173 0.136194 -0.668459
vn 0.731173 0.136186 -0.668460
vn -0.410748 0.118299 -0.904042
vn -0.410748 0.118299 -0.904042
vn -0.984443 0.136186 0.111023
vn -0.984442 0.136194 0.111023
vn -0.197748 0.164765 0.966306
vn -0.197748 0.164775 0.966305
vn 0.857903 0.164775 0.486674
vn 0.857904 0.164765 0.486675
vn 0.730938 0.138484 -0.668245
vn 0.731031 0.137582 -0.668330
vn -0.402143 0.234250 -0.885103
vn -0.402143 0.234250 -0.885103
vn -0.984251 0.137582 0.111001
vn -0.984126 0.138484 0.110987
vn -0.200401 -0.029529 0.979269
vn -0.200447 -0.020291 0.979494
vn 0.869613 -0.020291 0.493317
vn 0.869412 -0.029529 0.493204
vn 0.733180 0.114679 -0.670295
vn 0.733176 0.114725 -0.670291
vn -0.407557 0.171040 -0.897019
vn -0.407557 0.171040 -0.897019
vn -0.987140 0.114725 0.111327
vn -0.987145 0.114679 0.111327
vn -0.200440 0.022131 0.979456
vn -0.200442 0.021615 0.979467
vn 0.869589 0.021615 0.493304
vn 0.869579 0.022131 0.493298
vn 0.735713 0.079503 -0.672611
vn 0.735713 0.079503 -0.672611
vn -0.412708 -0.067531 -0.908357
vn -0.412708 -0.067531 -0.908357
vn -0.990555 0.079503 0.111712
vn -0.990555 0.079503 0.111712
vn -0.191043 0.303323 0.933541
vn -0.191043 0.303323 0.933540
vn 0.828814 0.303323 0.470173
vn 0.828814 0.303323 0.470173
vn 0.000000 -1.000000 0.000000
vn 0.000000 -1.000000 0.000000
vn -0.000000 -1.000000 0.000000
vn -0.000000 -1.000000 0.000000
vn -0.000000 -1.000000 0.000000
vn 0.000000 -1.000000 0.000000
vn 0.000002 1.000000 -0.000001
vn 0.000002 1.000000 -0.000001
vn 0.000001 1.000000 -0.000000
vn 0.000000 1.000000 0.000000
vn -0.000000 1.000000 0.000000
vn -0.000000 1.000000 0.000000
s 1
g Grass6 Grass2
usemtl lambert7SG
f 33/54/73 34/55/74 39/61/75 38/60/76
s 2
f 34/55/77 35/56/78 40/62/79 39/61/80
s 3
f 35/56/81 36/57/82 41/63/83 40/62/84
s 4
f 36/57/85 37/58/86 42/64/87 41/63/88
s 5
f 37/58/89 33/59/90 38/65/91 42/64/92
s 1
f 38/60/76 39/61/75 44/67/93 43/66/94
s 2
f 39/61/80 40/62/79 45/68/95 44/67/96
s 3
f 40/62/84 41/63/83 46/69/97 45/68/98
s 4
f 41/63/88 42/64/87 47/70/99 46/69/100
s 5
f 42/64/92 38/65/91 43/71/101 47/70/102
s 1
f 43/66/94 44/67/93 49/73/103 48/72/104
s 2
f 44/67/96 45/68/95 50/74/105 49/73/106
s 3
f 45/68/98 46/69/97 51/75/107 50/74/108
s 4
f 46/69/100 47/70/99 52/76/109 51/75/110
s 5
f 47/70/102 43/71/101 48/77/111 52/76/112
s 1
f 48/72/104 49/73/103 54/79/113 53/78/114
s 2
f 49/73/106 50/74/105 55/80/115 54/79/116
s 3
f 50/74/108 51/75/107 56/81/117 55/80/118
s 4
f 51/75/110 52/76/109 57/82/119 56/81/120
s 5
f 52/76/112 48/77/111 53/83/121 57/82/122
s 1
f 53/78/114 54/79/113 59/85/123 58/84/124
s 2
f 54/79/116 55/80/115 60/86/125 59/85/126
s 3
f 55/80/118 56/81/117 61/87/127 60/86/128
s 4
f 56/81/120 57/82/119 62/88/129 61/87/130
s 5
f 57/82/122 53/83/121 58/89/131 62/88/132
s 6
f 34/50/133 33/49/134 63/95/135
f 35/51/136 34/50/133 63/95/135
f 36/52/137 35/51/136 63/95/135
f 37/53/138 36/52/137 63/95/135
f 33/49/134 37/53/138 63/95/135
s 7
f 58/93/139 59/92/140 64/96/141
f 59/92/140 60/91/142 64/96/141
f 60/91/142 61/90/143 64/96/141
f 61/90/143 62/94/144 64/96/141
f 62/94/144 58/93/139 64/96/141
g default
v 2.766467 -0.003167 8.566978
v 2.701821 -0.003167 8.585657
v 2.699610 -0.003167 8.652911
v 2.762888 -0.003167 8.675797
v 2.804208 -0.003167 8.622687
v 2.745523 0.034974 8.579741
v 2.696844 0.034974 8.593807
v 2.695178 0.034974 8.644451
v 2.742829 0.034974 8.661684
v 2.773944 0.034974 8.621692
v 2.725315 0.094472 8.584277
v 2.682807 0.094472 8.596559
v 2.681353 0.094472 8.640782
v 2.722962 0.094472 8.655831
v 2.750132 0.094472 8.620909
v 2.724805 0.163010 8.588057
v 2.686804 0.163010 8.599038
v 2.685504 0.163010 8.638572
v 2.722702 0.163010 8.652025
v 2.746991 0.163010 8.620805
v 2.724145 0.230114 8.594493
v 2.693808 0.230114 8.603259
v 2.692770 0.230114 8.634820
v 2.722466 0.230114 8.645560
v 2.741856 0.230114 8.620637
v 2.664671 0.287149 8.602933
v 2.646672 0.287149 8.608134
v 2.646056 0.287149 8.626859
v 2.663674 0.287149 8.633231
v 2.675179 0.287149 8.618444
v 2.746999 -0.003167 8.620806
v 2.659250 0.287149 8.617920
vt 0.548284 0.007647
vt 0.373591 0.064409
vt 0.373591 0.248091
vt 0.548284 0.304853
vt 0.656250 0.156250
vt 0.375000 0.312500
vt 0.425000 0.312500
vt 0.475000 0.312500
vt 0.525000 0.312500
vt 0.575000 0.312500
vt 0.625000 0.312500
vt 0.375000 0.387688
vt 0.425000 0.387688
vt 0.475000 0.387688
vt 0.525000 0.387688
vt 0.575000 0.387688
vt 0.625000 0.387688
vt 0.375000 0.462876
vt 0.425000 0.462876
vt 0.475000 0.462876
vt 0.525000 0.462876
vt 0.575000 0.462876
vt 0.625000 0.462876
vt 0.375000 0.538064
vt 0.425000 0.538064
vt 0.475000 0.538064
vt 0.525000 0.538064
vt 0.575000 0.538064
vt 0.625000 0.538064
vt 0.375000 0.613252
vt 0.425000 0.613252
vt 0.475000 0.613252
vt 0.525000 0.613252
vt 0.575000 0.613252
vt 0.625000 0.613252
vt 0.375000 0.688440
vt 0.425000 0.688440
vt 0.475000 0.688440
vt 0.525000 0.688440
vt 0.575000 0.688440
vt 0.625000 0.688440
vt 0.548284 0.695147
vt 0.373591 0.751909
vt 0.373591 0.935591
vt 0.548284 0.992353
vt 0.656250 0.843750
vt 0.500000 0.150000
vt 0.500000 0.837500
vn -0.273707 0.166702 -0.947256
vn -0.273707 0.166702 -0.947256
vn -0.277228 0.051172 -0.959440
vn -0.276506 0.088361 -0.956941
vn -0.991935 -0.122480 -0.032620
vn -0.991935 -0.122480 -0.032620
vn -0.983535 -0.177798 -0.032343
vn -0.983535 -0.177798 -0.032343
vn -0.335349 0.166702 0.927228
vn -0.335349 0.166702 0.927228
vn -0.338778 0.088361 0.936708
vn -0.339663 0.051172 0.939154
vn 0.664076 0.540429 0.516662
vn 0.664076 0.540429 0.516662
vn 0.707613 0.442941 0.550534
vn 0.717571 0.416429 0.558282
vn 0.696585 0.540429 -0.471917
vn 0.696585 0.540429 -0.471917
vn 0.752699 0.416429 -0.509932
vn 0.742253 0.442941 -0.502855
vn -0.277549 0.017617 -0.960550
vn -0.277573 0.011521 -0.960635
vn -0.995420 -0.089822 -0.032734
vn -0.995420 -0.089822 -0.032734
vn -0.340086 0.011521 0.940324
vn -0.340056 0.017617 0.940240
vn 0.775397 0.186612 0.603271
vn 0.777380 0.172860 0.604814
vn 0.815436 0.172860 -0.552435
vn 0.813356 0.186612 -0.551025
vn -0.276959 0.067455 -0.958511
vn -0.276951 0.067882 -0.958483
vn -0.996271 0.079821 -0.032762
vn -0.996271 0.079821 -0.032762
vn -0.339324 0.067882 0.938217
vn -0.339334 0.067455 0.938244
vn 0.788350 0.048032 0.613349
vn 0.788357 0.047861 0.613354
vn 0.826950 0.047861 -0.560235
vn 0.826943 0.048032 -0.560230
vn -0.277551 -0.017141 -0.960558
vn -0.277407 0.036452 -0.960061
vn -0.975610 -0.217154 -0.032083
vn -0.975610 -0.217154 -0.032083
vn -0.339882 0.036452 0.939761
vn -0.340059 -0.017141 0.940248
vn 0.751702 0.304815 0.584836
vn 0.726683 0.390241 0.565371
vn 0.762257 0.390241 -0.516407
vn 0.788500 0.304815 -0.534186
vn -0.274628 -0.145734 -0.950442
vn -0.274628 -0.145734 -0.950442
vn -0.771643 -0.635549 -0.025375
vn -0.771643 -0.635549 -0.025375
vn -0.336477 -0.145734 0.930346
vn -0.336477 -0.145734 0.930346
vn 0.573276 0.687331 0.446018
vn 0.573276 0.687331 0.446018
vn 0.601340 0.687331 -0.407391
vn 0.601340 0.687331 -0.407391
vn 0.000000 -1.000000 0.000000
vn 0.000000 -1.000000 0.000000
vn -0.000000 -1.000000 0.000000
vn -0.000000 -1.000000 0.000000
vn -0.000000 -1.000000 0.000000
vn 0.000000 -1.000000 0.000000
vn 0.000000 1.000000 0.000000
vn 0.000000 1.000000 0.000000
vn 0.000000 1.000000 -0.000000
vn 0.000000 1.000000 0.000000
vn 0.000000 1.000000 -0.000001
vn 0.000000 1.000000 -0.000001
s 1
g Grass6 Grass1
usemtl lambert7SG
f 65/102/145 66/103/146 71/109/147 70/108/148
s 2
f 66/103/149 67/104/150 72/110/151 71/109/152
s 3
f 67/104/153 68/105/154 73/111/155 72/110/156
s 4
f 68/105/157 69/106/158 74/112/159 73/111/160
s 5
f 69/106/161 65/107/162 70/113/163 74/112/164
s 1
f 70/108/148 71/109/147 76/115/165 75/114/166
s 2
f 71/109/152 72/110/151 77/116/167 76/115/168
s 3
f 72/110/156 73/111/155 78/117/169 77/116/170
s 4
f 73/111/160 74/112/159 79/118/171 78/117/172
s 5
f 74/112/164 70/113/163 75/119/173 79/118/174
s 1
f 75/114/166 76/115/165 81/121/175 80/120/176
s 2
f 76/115/168 77/116/167 82/122/177 81/121/178
s 3
f 77/116/170 78/117/169 83/123/179 82/122/180
s 4
f 78/117/172 79/118/171 84/124/181 83/123/182
s 5
f 79/118/174 75/119/173 80/125/183 84/124/184
s 1
f 80/120/176 81/121/175 86/127/185 85/126/186
s 2
f 81/121/178 82/122/177 87/128/187 86/127/188
s 3
f 82/122/180 83/123/179 88/129/189 87/128/190
s 4
f 83/123/182 84/124/181 89/130/191 88/129/192
s 5
f 84/124/184 80/125/183 85/131/193 89/130/194
s 1
f 85/126/186 86/127/185 91/133/195 90/132/196
s 2
f 86/127/188 87/128/187 92/134/197 91/133/198
s 3
f 87/128/190 88/129/189 93/135/199 92/134/200
s 4
f 88/129/192 89/130/191 94/136/201 93/135/202
s 5
f 89/130/194 85/131/193 90/137/203 94/136/204
s 6
f 66/98/205 65/97/206 95/143/207
f 67/99/208 66/98/205 95/143/207
f 68/100/209 67/99/208 95/143/207
f 69/101/210 68/100/209 95/143/207
f 65/97/206 69/101/210 95/143/207
s 7
f 90/141/211 91/140/212 96/144/213
f 91/140/212 92/139/214 96/144/213
f 92/139/214 93/138/215 96/144/213
f 93/138/215 94/142/216 96/144/213
f 94/142/216 90/141/211 96/144/213
