# This file uses centimeters as units for non-parametric coordinates.

mtllib Grass2.mtl
g default
v -5.412977 -0.001107 -3.949772
v -5.414087 -0.001107 -3.882402
v -5.350358 -0.001107 -3.860528
v -5.309861 -0.001107 -3.914379
v -5.348562 -0.001107 -3.969535
v -5.404882 0.024581 -3.925120
v -5.405673 0.024581 -3.877104
v -5.360252 0.024581 -3.861514
v -5.331389 0.024581 -3.899895
v -5.358972 0.024581 -3.939205
v -5.401697 0.077898 -3.907698
v -5.402312 0.077898 -3.870395
v -5.367025 0.077898 -3.858284
v -5.344602 0.077898 -3.888101
v -5.366030 0.077898 -3.918640
v -5.392819 0.150267 -3.923984
v -5.393370 0.150267 -3.890525
v -5.361719 0.150267 -3.879661
v -5.341607 0.150267 -3.906406
v -5.360827 0.150267 -3.933799
v -5.376575 0.227796 -3.962845
v -5.377070 0.227796 -3.932783
v -5.348632 0.227796 -3.923022
v -5.330561 0.227796 -3.947052
v -5.347831 0.227796 -3.971664
v -5.360224 0.291276 -3.975536
v -5.360488 0.291276 -3.959496
v -5.345315 0.291276 -3.954288
v -5.335673 0.291276 -3.967109
v -5.344887 0.291276 -3.980241
v -5.367169 -0.001107 -3.915323
v -5.349317 0.291276 -3.967334
vt 0.548284 0.007647
vt 0.373591 0.064409
vt 0.373591 0.248091
vt 0.548284 0.304853
vt 0.656250 0.156250
vt 0.375000 0.312500
vt 0.425000 0.312500
vt 0.475000 0.312500
vt 0.525000 0.312500
vt 0.575000 0.312500
vt 0.625000 0.312500
vt 0.375000 0.387688
vt 0.425000 0.387688
vt 0.475000 0.387688
vt 0.525000 0.387688
vt 0.575000 0.387688
vt 0.625000 0.387688
vt 0.375000 0.462876
vt 0.425000 0.462876
vt 0.475000 0.462876
vt 0.525000 0.462876
vt 0.575000 0.462876
vt 0.625000 0.462876
vt 0.375000 0.538064
vt 0.425000 0.538064
vt 0.475000 0.538064
vt 0.525000 0.538064
vt 0.575000 0.538064
vt 0.625000 0.538064
vt 0.375000 0.613252
vt 0.425000 0.613252
vt 0.475000 0.613252
vt 0.525000 0.613252
vt 0.575000 0.613252
vt 0.625000 0.613252
vt 0.375000 0.688440
vt 0.425000 0.688440
vt 0.475000 0.688440
vt 0.525000 0.688440
vt 0.575000 0.688440
vt 0.625000 0.688440
vt 0.548284 0.695147
vt 0.373591 0.751909
vt 0.373591 0.935591
vt 0.548284 0.992353
vt 0.656250 0.843750
vt 0.500000 0.150000
vt 0.500000 0.837500
vn -0.949240 0.314164 -0.015636
vn -0.949240 0.314164 -0.015636
vn -0.987711 0.155443 -0.016270
vn -0.978542 0.205414 -0.016119
vn -0.323369 -0.088386 0.942136
vn -0.323369 -0.088386 0.942136
vn -0.323214 -0.093614 0.941684
vn -0.323214 -0.093614 0.941684
vn 0.758760 0.314164 0.570599
vn 0.758760 0.314164 0.570599
vn 0.782183 0.205414 0.588214
vn 0.789511 0.155443 0.593725
vn 0.575962 0.710592 -0.404137
vn 0.575962 0.710592 -0.404137
vn 0.680601 0.555626 -0.477559
vn 0.703212 0.511883 -0.493425
vn -0.206375 0.710592 -0.672658
vn -0.206375 0.710592 -0.672658
vn -0.251970 0.511883 -0.821271
vn -0.243868 0.555626 -0.794864
vn -0.995644 0.091788 -0.016401
vn -0.995573 0.092547 -0.016400
vn -0.322817 0.105807 0.940529
vn -0.322817 0.105807 0.940529
vn 0.795796 0.092547 0.598451
vn 0.795852 0.091788 0.598493
vn 0.816739 0.067171 -0.573083
vn 0.816438 0.072442 -0.572872
vn -0.292540 0.072442 -0.953505
vn -0.292648 0.067171 -0.953858
vn -0.989008 0.146961 -0.016292
vn -0.986108 0.165307 -0.016244
vn -0.297281 0.401803 0.866129
vn -0.297281 0.401803 0.866129
vn 0.788231 0.165307 0.592761
vn 0.790548 0.146961 0.594504
vn 0.781728 -0.296700 -0.548517
vn 0.788917 -0.266796 -0.553561
vn -0.282679 -0.266796 -0.921365
vn -0.280103 -0.296700 -0.912968
vn -0.977591 0.209899 -0.016104
vn -0.975061 0.221356 -0.016062
vn -0.284700 0.480542 0.829473
vn -0.284700 0.480542 0.829473
vn 0.779400 0.221356 0.586121
vn 0.781422 0.209899 0.587641
vn 0.786717 -0.276320 -0.552018
vn 0.777148 -0.314142 -0.545303
vn -0.278462 -0.314142 -0.907620
vn -0.281891 -0.276320 -0.918795
vn -0.969033 0.246415 -0.015963
vn -0.969033 0.246415 -0.015963
vn -0.292348 0.434792 0.851756
vn -0.292348 0.434792 0.851756
vn 0.774581 0.246415 0.582497
vn 0.774581 0.246415 0.582497
vn 0.813176 -0.114803 -0.570583
vn 0.813176 -0.114803 -0.570583
vn -0.291371 -0.114803 -0.949696
vn -0.291371 -0.114803 -0.949696
vn 0.000000 -1.000000 0.000000
vn 0.000000 -1.000000 0.000000
vn 0.000000 -1.000000 0.000000
vn 0.000000 -1.000000 0.000000
vn 0.000000 -1.000000 0.000000
vn 0.000000 -1.000000 0.000000
vn -0.000001 1.000000 -0.000000
vn -0.000001 1.000000 -0.000000
vn -0.000000 1.000000 -0.000000
vn 0.000000 1.000000 0.000000
vn 0.000000 1.000000 0.000000
vn 0.000000 1.000000 0.000000
s 1
g Grass3 Grass4
usemtl lambert7SG
f 1/6/1 2/7/2 7/13/3 6/12/4
s 2
f 2/7/5 3/8/6 8/14/7 7/13/8
s 3
f 3/8/9 4/9/10 9/15/11 8/14/12
s 4
f 4/9/13 5/10/14 10/16/15 9/15/16
s 5
f 5/10/17 1/11/18 6/17/19 10/16/20
s 1
f 6/12/4 7/13/3 12/19/21 11/18/22
s 2
f 7/13/8 8/14/7 13/20/23 12/19/24
s 3
f 8/14/12 9/15/11 14/21/25 13/20/26
s 4
f 9/15/16 10/16/15 15/22/27 14/21/28
s 5
f 10/16/20 6/17/19 11/23/29 15/22/30
s 1
f 11/18/22 12/19/21 17/25/31 16/24/32
s 2
f 12/19/24 13/20/23 18/26/33 17/25/34
s 3
f 13/20/26 14/21/25 19/27/35 18/26/36
s 4
f 14/21/28 15/22/27 20/28/37 19/27/38
s 5
f 15/22/30 11/23/29 16/29/39 20/28/40
s 1
f 16/24/32 17/25/31 22/31/41 21/30/42
s 2
f 17/25/34 18/26/33 23/32/43 22/31/44
s 3
f 18/26/36 19/27/35 24/33/45 23/32/46
s 4
f 19/27/38 20/28/37 25/34/47 24/33/48
s 5
f 20/28/40 16/29/39 21/35/49 25/34/50
s 1
f 21/30/42 22/31/41 27/37/51 26/36/52
s 2
f 22/31/44 23/32/43 28/38/53 27/37/54
s 3
f 23/32/46 24/33/45 29/39/55 28/38/56
s 4
f 24/33/48 25/34/47 30/40/57 29/39/58
s 5
f 25/34/50 21/35/49 26/41/59 30/40/60
s 6
f 2/2/61 1/1/62 31/47/63
f 3/3/64 2/2/61 31/47/63
f 4/4/65 3/3/64 31/47/63
f 5/5/66 4/4/65 31/47/63
f 1/1/62 5/5/66 31/47/63
s 7
f 26/45/67 27/44/68 32/48/69
f 27/44/68 28/43/70 32/48/69
f 28/43/70 29/42/71 32/48/69
f 29/42/71 30/46/72 32/48/69
f 30/46/72 26/45/67 32/48/69
g default
v -5.397786 0.000481 -4.073126
v -5.398967 0.000481 -4.001446
v -5.331160 0.000481 -3.978172
v -5.288072 0.000481 -4.035469
v -5.329249 0.000481 -4.094154
v -5.388275 0.036656 -4.067250
v -5.389234 0.036656 -4.009046
v -5.334174 0.036656 -3.990148
v -5.299187 0.036656 -4.036673
v -5.332623 0.036656 -4.084324
v -5.379717 0.102669 -4.052039
v -5.380411 0.102669 -4.009942
v -5.340588 0.102669 -3.996273
v -5.315282 0.102669 -4.029923
v -5.339466 0.102669 -4.064389
v -5.369238 0.175767 -4.052422
v -5.369732 0.175767 -4.022420
v -5.341352 0.175767 -4.012679
v -5.323318 0.175767 -4.036660
v -5.340552 0.175767 -4.061223
v -5.360322 0.241348 -4.063712
v -5.360719 0.241348 -4.039603
v -5.337913 0.241348 -4.031776
v -5.323421 0.241348 -4.051046
v -5.337271 0.241348 -4.070784
v -5.356469 0.292959 -4.047710
v -5.356686 0.292959 -4.034526
v -5.344214 0.292959 -4.030245
v -5.336289 0.292959 -4.040783
v -5.343863 0.292959 -4.051577
v -5.349047 0.000481 -4.036473
v -5.347504 0.292959 -4.040968
vt 0.548284 0.007647
vt 0.373591 0.064409
vt 0.373591 0.248091
vt 0.548284 0.304853
vt 0.656250 0.156250
vt 0.375000 0.312500
vt 0.425000 0.312500
vt 0.475000 0.312500
vt 0.525000 0.312500
vt 0.575000 0.312500
vt 0.625000 0.312500
vt 0.375000 0.387688
vt 0.425000 0.387688
vt 0.475000 0.387688
vt 0.525000 0.387688
vt 0.575000 0.387688
vt 0.625000 0.387688
vt 0.375000 0.462876
vt 0.425000 0.462876
vt 0.475000 0.462876
vt 0.525000 0.462876
vt 0.575000 0.462876
vt 0.625000 0.462876
vt 0.375000 0.538064
vt 0.425000 0.538064
vt 0.475000 0.538064
vt 0.525000 0.538064
vt 0.575000 0.538064
vt 0.625000 0.538064
vt 0.375000 0.613252
vt 0.425000 0.613252
vt 0.475000 0.613252
vt 0.525000 0.613252
vt 0.575000 0.613252
vt 0.625000 0.613252
vt 0.375000 0.688440
vt 0.425000 0.688440
vt 0.475000 0.688440
vt 0.525000 0.688440
vt 0.575000 0.688440
vt 0.625000 0.688440
vt 0.548284 0.695147
vt 0.373591 0.751909
vt 0.373591 0.935591
vt 0.548284 0.992353
vt 0.656250 0.843750
vt 0.500000 0.150000
vt 0.500000 0.837500
vn -0.966368 0.256671 -0.015919
vn -0.966368 0.256671 -0.015919
vn -0.981828 0.189082 -0.016173
vn -0.981149 0.192578 -0.016162
vn -0.312120 0.275032 0.909362
vn -0.312120 0.275032 0.909362
vn -0.320451 0.160117 0.933635
vn -0.320451 0.160117 0.933635
vn 0.772451 0.256671 0.580895
vn 0.772451 0.256671 0.580895
vn 0.784266 0.192578 0.589780
vn 0.784809 0.189082 0.590188
vn 0.797339 0.226372 -0.559470
vn 0.797339 0.226372 -0.559470
vn 0.794862 0.239016 -0.557733
vn 0.794782 0.239413 -0.557676
vn -0.285697 0.226372 -0.931200
vn -0.285697 0.226372 -0.931200
vn -0.284781 0.239413 -0.928214
vn -0.284809 0.239016 -0.928308
vn -0.990548 0.136194 -0.016317
vn -0.990549 0.136186 -0.016317
vn -0.322360 0.118299 0.939196
vn -0.322360 0.118299 0.939196
vn 0.791780 0.136186 0.595431
vn 0.791779 0.136194 0.595430
vn 0.807400 0.164765 -0.566531
vn 0.807399 0.164775 -0.566530
vn -0.289301 0.164775 -0.942950
vn -0.289302 0.164765 -0.942951
vn -0.990230 0.138484 -0.016312
vn -0.990356 0.137582 -0.016314
vn -0.315607 0.234250 0.919521
vn -0.315607 0.234250 0.919521
vn 0.791626 0.137582 0.595315
vn 0.791525 0.138484 0.595239
vn 0.818231 -0.029529 -0.574130
vn 0.818420 -0.020291 -0.574262
vn -0.293250 -0.020291 -0.955820
vn -0.293183 -0.029529 -0.955600
vn -0.993268 0.114679 -0.016362
vn -0.993263 0.114725 -0.016362
vn -0.319855 0.171040 0.931900
vn -0.319855 0.171040 0.931900
vn 0.793949 0.114725 0.597062
vn 0.793953 0.114679 0.597065
vn 0.818388 0.022131 -0.574240
vn 0.818397 0.021615 -0.574246
vn -0.293242 0.021615 -0.955794
vn -0.293239 0.022131 -0.955783
vn -0.996699 0.079503 -0.016418
vn -0.996699 0.079503 -0.016418
vn -0.323898 -0.067531 0.943679
vn -0.323898 -0.067531 0.943679
vn 0.796696 0.079503 0.599128
vn 0.796696 0.079503 0.599128
vn 0.780023 0.303323 -0.547320
vn 0.780023 0.303323 -0.547320
vn -0.279492 0.303323 -0.910977
vn -0.279492 0.303323 -0.910977
vn 0.000000 -1.000000 0.000000
vn 0.000000 -1.000000 0.000000
vn 0.000000 -1.000000 0.000000
vn 0.000000 -1.000000 0.000000
vn 0.000000 -1.000000 0.000000
vn 0.000000 -1.000000 0.000000
vn -0.000002 1.000000 -0.000001
vn -0.000002 1.000000 -0.000001
vn -0.000001 1.000000 -0.000000
vn 0.000000 1.000000 0.000000
vn 0.000000 1.000000 0.000000
vn 0.000000 1.000000 0.000000
s 1
g Grass4 Grass2
usemtl lambert7SG
f 33/54/73 34/55/74 39/61/75 38/60/76
s 2
f 34/55/77 35/56/78 40/62/79 39/61/80
s 3
f 35/56/81 36/57/82 41/63/83 40/62/84
s 4
f 36/57/85 37/58/86 42/64/87 41/63/88
s 5
f 37/58/89 33/59/90 38/65/91 42/64/92
s 1
f 38/60/76 39/61/75 44/67/93 43/66/94
s 2
f 39/61/80 40/62/79 45/68/95 44/67/96
s 3
f 40/62/84 41/63/83 46/69/97 45/68/98
s 4
f 41/63/88 42/64/87 47/70/99 46/69/100
s 5
f 42/64/92 38/65/91 43/71/101 47/70/102
s 1
f 43/66/94 44/67/93 49/73/103 48/72/104
s 2
f 44/67/96 45/68/95 50/74/105 49/73/106
s 3
f 45/68/98 46/69/97 51/75/107 50/74/108
s 4
f 46/69/100 47/70/99 52/76/109 51/75/110
s 5
f 47/70/102 43/71/101 48/77/111 52/76/112
s 1
f 48/72/104 49/73/103 54/79/113 53/78/114
s 2
f 49/73/106 50/74/105 55/80/115 54/79/116
s 3
f 50/74/108 51/75/107 56/81/117 55/80/118
s 4
f 51/75/110 52/76/109 57/82/119 56/81/120
s 5
f 52/76/112 48/77/111 53/83/121 57/82/122
s 1
f 53/78/114 54/79/113 59/85/123 58/84/124
s 2
f 54/79/116 55/80/115 60/86/125 59/85/126
s 3
f 55/80/118 56/81/117 61/87/127 60/86/128
s 4
f 56/81/120 57/82/119 62/88/129 61/87/130
s 5
f 57/82/122 53/83/121 58/89/131 62/88/132
s 6
f 34/50/133 33/49/134 63/95/135
f 35/51/136 34/50/133 63/95/135
f 36/52/137 35/51/136 63/95/135
f 37/53/138 36/52/137 63/95/135
f 33/49/134 37/53/138 63/95/135
s 7
f 58/93/139 59/92/140 64/96/141
f 59/92/140 60/91/142 64/96/141
f 60/91/142 61/90/143 64/96/141
f 61/90/143 62/94/144 64/96/141
f 62/94/144 58/93/139 64/96/141
g default
v -5.583576 -0.003167 -3.981877
v -5.523760 -0.003167 -3.951054
v -5.475962 -0.003167 -3.998418
v -5.506237 -0.003167 -4.058512
v -5.572746 -0.003167 -4.048290
v -5.559587 0.034974 -3.976770
v -5.514544 0.034974 -3.953559
v -5.478551 0.034974 -3.989225
v -5.501349 0.034974 -4.034478
v -5.551432 0.034974 -4.026780
v -5.541784 0.094472 -3.966187
v -5.502451 0.094472 -3.945919
v -5.471022 0.094472 -3.977063
v -5.490929 0.094472 -4.016579
v -5.534662 0.094472 -4.009857
v -5.538817 0.163010 -3.968584
v -5.503655 0.163010 -3.950466
v -5.475557 0.163010 -3.978308
v -5.493354 0.163010 -4.013634
v -5.532450 0.163010 -4.007625
v -5.533917 0.230114 -3.972809
v -5.505846 0.230114 -3.958345
v -5.483416 0.230114 -3.980571
v -5.497623 0.230114 -4.008773
v -5.528834 0.230114 -4.003975
v -5.484892 0.287149 -3.938096
v -5.468238 0.287149 -3.929514
v -5.454929 0.287149 -3.942701
v -5.463359 0.287149 -3.959433
v -5.481877 0.287149 -3.956587
v -5.532456 -0.003167 -4.007630
v -5.470659 0.287149 -3.945266
vt 0.548284 0.007647
vt 0.373591 0.064409
vt 0.373591 0.248091
vt 0.548284 0.304853
vt 0.656250 0.156250
vt 0.375000 0.312500
vt 0.425000 0.312500
vt 0.475000 0.312500
vt 0.525000 0.312500
vt 0.575000 0.312500
vt 0.625000 0.312500
vt 0.375000 0.387688
vt 0.425000 0.387688
vt 0.475000 0.387688
vt 0.525000 0.387688
vt 0.575000 0.387688
vt 0.625000 0.387688
vt 0.375000 0.462876
vt 0.425000 0.462876
vt 0.475000 0.462876
vt 0.525000 0.462876
vt 0.575000 0.462876
vt 0.625000 0.462876
vt 0.375000 0.538064
vt 0.425000 0.538064
vt 0.475000 0.538064
vt 0.525000 0.538064
vt 0.575000 0.538064
vt 0.625000 0.538064
vt 0.375000 0.613252
vt 0.425000 0.613252
vt 0.475000 0.613252
vt 0.525000 0.613252
vt 0.575000 0.613252
vt 0.625000 0.613252
vt 0.375000 0.688440
vt 0.425000 0.688440
vt 0.475000 0.688440
vt 0.525000 0.688440
vt 0.575000 0.688440
vt 0.625000 0.688440
vt 0.548284 0.695147
vt 0.373591 0.751909
vt 0.373591 0.935591
vt 0.548284 0.992353
vt 0.656250 0.843750
vt 0.500000 0.150000
vt 0.500000 0.837500
vn -0.451646 0.166702 0.876485
vn -0.451646 0.166702 0.876485
vn -0.457455 0.051172 0.887759
vn -0.456263 0.088361 0.885447
vn 0.698571 -0.122480 0.704981
vn 0.698571 -0.122480 0.704981
vn 0.692655 -0.177798 0.699011
vn 0.692655 -0.177798 0.699011
vn 0.880574 0.166702 -0.443621
vn 0.880574 0.166702 -0.443621
vn 0.889577 0.088361 -0.448157
vn 0.891900 0.051172 -0.449327
vn -0.127826 0.540429 -0.831623
vn -0.127826 0.540429 -0.831623
vn -0.136206 0.442941 -0.886144
vn -0.138123 0.416429 -0.898615
vn -0.830421 0.540429 -0.135416
vn -0.830421 0.540429 -0.135416
vn -0.897316 0.416429 -0.146325
vn -0.884863 0.442941 -0.144294
vn -0.457984 0.017617 0.888786
vn -0.458025 0.011521 0.888865
vn 0.701025 -0.089822 0.707457
vn 0.701025 -0.089822 0.707457
vn 0.893011 0.011521 -0.449887
vn 0.892932 0.017617 -0.449847
vn -0.149253 0.186612 -0.971030
vn -0.149635 0.172860 -0.973514
vn -0.972106 0.172860 -0.158521
vn -0.969626 0.186612 -0.158117
vn -0.457012 0.067455 0.886899
vn -0.456998 0.067882 0.886873
vn 0.701624 0.079821 0.708062
vn 0.701624 0.079821 0.708062
vn 0.891011 0.067882 -0.448879
vn 0.891037 0.067455 -0.448892
vn -0.151747 0.048032 -0.987252
vn -0.151748 0.047861 -0.987260
vn -0.985832 0.047861 -0.160759
vn -0.985824 0.048032 -0.160758
vn -0.457988 -0.017141 0.888793
vn -0.457750 0.036452 0.888333
vn 0.687074 -0.217154 0.693379
vn 0.687074 -0.217154 0.693379
vn 0.892477 0.036452 -0.449617
vn 0.892939 -0.017141 -0.449850
vn -0.144692 0.304815 -0.941357
vn -0.139877 0.390241 -0.910026
vn -0.908710 0.390241 -0.148183
vn -0.939996 0.304815 -0.153285
vn -0.453165 -0.145734 0.879433
vn -0.453165 -0.145734 0.879434
vn 0.543430 -0.635549 0.548417
vn 0.543430 -0.635549 0.548417
vn 0.883536 -0.145734 -0.445113
vn 0.883536 -0.145734 -0.445113
vn -0.110348 0.687331 -0.717914
vn -0.110348 0.687331 -0.717914
vn -0.716876 0.687331 -0.116900
vn -0.716876 0.687331 -0.116901
vn 0.000000 -1.000000 0.000000
vn 0.000000 -1.000000 0.000000
vn 0.000000 -1.000000 -0.000000
vn 0.000000 -1.000000 -0.000000
vn 0.000000 -1.000000 -0.000000
vn 0.000000 -1.000000 0.000000
vn 0.000000 1.000000 -0.000000
vn 0.000000 1.000000 -0.000000
vn -0.000000 1.000000 0.000000
vn 0.000000 1.000000 -0.000000
vn -0.000001 1.000000 0.000001
vn -0.000001 1.000000 0.000001
s 1
g Grass4 Grass1
usemtl lambert7SG
f 65/102/145 66/103/146 71/109/147 70/108/148
s 2
f 66/103/149 67/104/150 72/110/151 71/109/152
s 3
f 67/104/153 68/105/154 73/111/155 72/110/156
s 4
f 68/105/157 69/106/158 74/112/159 73/111/160
s 5
f 69/106/161 65/107/162 70/113/163 74/112/164
s 1
f 70/108/148 71/109/147 76/115/165 75/114/166
s 2
f 71/109/152 72/110/151 77/116/167 76/115/168
s 3
f 72/110/156 73/111/155 78/117/169 77/116/170
s 4
f 73/111/160 74/112/159 79/118/171 78/117/172
s 5
f 74/112/164 70/113/163 75/119/173 79/118/174
s 1
f 75/114/166 76/115/165 81/121/175 80/120/176
s 2
f 76/115/168 77/116/167 82/122/177 81/121/178
s 3
f 77/116/170 78/117/169 83/123/179 82/122/180
s 4
f 78/117/172 79/118/171 84/124/181 83/123/182
s 5
f 79/118/174 75/119/173 80/125/183 84/124/184
s 1
f 80/120/176 81/121/175 86/127/185 85/126/186
s 2
f 81/121/178 82/122/177 87/128/187 86/127/188
s 3
f 82/122/180 83/123/179 88/129/189 87/128/190
s 4
f 83/123/182 84/124/181 89/130/191 88/129/192
s 5
f 84/124/184 80/125/183 85/131/193 89/130/194
s 1
f 85/126/186 86/127/185 91/133/195 90/132/196
s 2
f 86/127/188 87/128/187 92/134/197 91/133/198
s 3
f 87/128/190 88/129/189 93/135/199 92/134/200
s 4
f 88/129/192 89/130/191 94/136/201 93/135/202
s 5
f 89/130/194 85/131/193 90/137/203 94/136/204
s 6
f 66/98/205 65/97/206 95/143/207
f 67/99/208 66/98/205 95/143/207
f 68/100/209 67/99/208 95/143/207
f 69/101/210 68/100/209 95/143/207
f 65/97/206 69/101/210 95/143/207
s 7
f 90/141/211 91/140/212 96/144/213
f 91/140/212 92/139/214 96/144/213
f 92/139/214 93/138/215 96/144/213
f 93/138/215 94/142/216 96/144/213
f 94/142/216 90/141/211 96/144/213
