# This file uses centimeters as units for non-parametric coordinates.

mtllib Grass3.mtl
g default
v 8.251369 -0.001107 2.777629
v 8.288046 -0.001107 2.721107
v 8.245625 -0.001107 2.668759
v 8.182730 -0.001107 2.692928
v 8.186280 -0.001107 2.760213
v 8.257583 0.024581 2.752436
v 8.283724 0.024581 2.712153
v 8.253489 0.024581 2.674843
v 8.208663 0.024581 2.692069
v 8.211193 0.024581 2.740024
v 8.264125 0.077898 2.735978
v 8.284433 0.077898 2.704682
v 8.260945 0.077898 2.675697
v 8.226120 0.077898 2.689079
v 8.228085 0.077898 2.726335
v 8.247960 0.150267 2.745075
v 8.266176 0.150267 2.717004
v 8.245107 0.150267 2.691005
v 8.213870 0.150267 2.703009
v 8.215634 0.150267 2.736426
v 8.213576 0.227796 2.769402
v 8.229942 0.227796 2.744180
v 8.211012 0.227796 2.720821
v 8.182947 0.227796 2.731606
v 8.184531 0.227796 2.761630
v 8.192983 0.291276 2.771486
v 8.201715 0.291276 2.758029
v 8.191615 0.291276 2.745565
v 8.176640 0.291276 2.751320
v 8.177486 0.291276 2.767340
v 8.230810 -0.001107 2.724127
v 8.188088 0.291276 2.758748
vt 0.548284 0.007647
vt 0.373591 0.064409
vt 0.373591 0.248091
vt 0.548284 0.304853
vt 0.656250 0.156250
vt 0.375000 0.312500
vt 0.425000 0.312500
vt 0.475000 0.312500
vt 0.525000 0.312500
vt 0.575000 0.312500
vt 0.625000 0.312500
vt 0.375000 0.387688
vt 0.425000 0.387688
vt 0.475000 0.387688
vt 0.525000 0.387688
vt 0.575000 0.387688
vt 0.625000 0.387688
vt 0.375000 0.462876
vt 0.425000 0.462876
vt 0.475000 0.462876
vt 0.525000 0.462876
vt 0.575000 0.462876
vt 0.625000 0.462876
vt 0.375000 0.538064
vt 0.425000 0.538064
vt 0.475000 0.538064
vt 0.525000 0.538064
vt 0.575000 0.538064
vt 0.625000 0.538064
vt 0.375000 0.613252
vt 0.425000 0.613252
vt 0.475000 0.613252
vt 0.525000 0.613252
vt 0.575000 0.613252
vt 0.625000 0.613252
vt 0.375000 0.688440
vt 0.425000 0.688440
vt 0.475000 0.688440
vt 0.525000 0.688440
vt 0.575000 0.688440
vt 0.625000 0.688440
vt 0.548284 0.695147
vt 0.373591 0.751909
vt 0.373591 0.935591
vt 0.548284 0.992353
vt 0.656250 0.843750
vt 0.500000 0.150000
vt 0.500000 0.837500
vn 0.796390 0.314164 0.516782
vn 0.796390 0.314164 0.516782
vn 0.828667 0.155443 0.537726
vn 0.820975 0.205414 0.532735
vn 0.773883 -0.088386 -0.627131
vn 0.773883 -0.088386 -0.627131
vn 0.773512 -0.093614 -0.626830
vn 0.773512 -0.093614 -0.626830
vn -0.340537 0.314164 -0.886192
vn -0.340537 0.314164 -0.886192
vn -0.351049 0.205414 -0.913548
vn -0.354338 0.155443 -0.922107
vn -0.702627 0.710592 0.037072
vn -0.702627 0.710592 0.037072
vn -0.830278 0.555626 0.043807
vn -0.857862 0.511883 0.045263
vn -0.181866 0.710592 0.679694
vn -0.181866 0.710592 0.679694
vn -0.222046 0.511883 0.829862
vn -0.214907 0.555626 0.803178
vn 0.835322 0.091787 0.542045
vn 0.835263 0.092547 0.542006
vn 0.772562 0.105807 -0.626061
vn 0.772562 0.105807 -0.626061
vn -0.357159 0.092547 -0.929448
vn -0.357184 0.091788 -0.929513
vn -0.996356 0.067171 0.052570
vn -0.995987 0.072442 0.052551
vn -0.257798 0.072442 0.963479
vn -0.257894 0.067171 0.963836
vn 0.829755 0.146961 0.538432
vn 0.827322 0.165307 0.536853
vn 0.711449 0.401803 -0.576537
vn 0.711449 0.401803 -0.576537
vn -0.353763 0.165307 -0.920611
vn -0.354803 0.146961 -0.923318
vn -0.953644 -0.296700 0.050317
vn -0.962414 -0.266796 0.050779
vn -0.249109 -0.266796 0.931002
vn -0.246839 -0.296700 0.922518
vn 0.820176 0.209899 0.532216
vn 0.818053 0.221356 0.530839
vn 0.681340 0.480542 -0.552137
vn 0.681340 0.480542 -0.552137
vn -0.349800 0.221356 -0.910298
vn -0.350707 0.209899 -0.912659
vn -0.959731 -0.276320 0.050638
vn -0.948057 -0.314142 0.050022
vn -0.245392 -0.314142 0.917113
vn -0.248414 -0.276320 0.928406
vn 0.812996 0.246415 0.527557
vn 0.812996 0.246415 0.527557
vn 0.699644 0.434792 -0.566970
vn 0.699644 0.434792 -0.566970
vn -0.347637 0.246415 -0.904670
vn -0.347637 0.246415 -0.904670
vn -0.992009 -0.114803 0.052341
vn -0.992009 -0.114803 0.052341
vn -0.256769 -0.114803 0.959630
vn -0.256769 -0.114803 0.959630
vn 0.000000 -1.000000 0.000000
vn 0.000000 -1.000000 0.000000
vn -0.000000 -1.000000 -0.000000
vn -0.000000 -1.000000 -0.000000
vn -0.000000 -1.000000 -0.000000
vn 0.000000 -1.000000 0.000000
vn 0.000000 1.000000 0.000000
vn 0.000000 1.000000 0.000000
vn 0.000000 1.000000 0.000000
vn -0.000000 1.000000 0.000000
vn -0.000000 1.000000 0.000000
vn -0.000000 1.000000 0.000000
s 1
g Grass3 Grass5
usemtl lambert7SG
f 1/6/1 2/7/2 7/13/3 6/12/4
s 2
f 2/7/5 3/8/6 8/14/7 7/13/8
s 3
f 3/8/9 4/9/10 9/15/11 8/14/12
s 4
f 4/9/13 5/10/14 10/16/15 9/15/16
s 5
f 5/10/17 1/11/18 6/17/19 10/16/20
s 1
f 6/12/4 7/13/3 12/19/21 11/18/22
s 2
f 7/13/8 8/14/7 13/20/23 12/19/24
s 3
f 8/14/12 9/15/11 14/21/25 13/20/26
s 4
f 9/15/16 10/16/15 15/22/27 14/21/28
s 5
f 10/16/20 6/17/19 11/23/29 15/22/30
s 1
f 11/18/22 12/19/21 17/25/31 16/24/32
s 2
f 12/19/24 13/20/23 18/26/33 17/25/34
s 3
f 13/20/26 14/21/25 19/27/35 18/26/36
s 4
f 14/21/28 15/22/27 20/28/37 19/27/38
s 5
f 15/22/30 11/23/29 16/29/39 20/28/40
s 1
f 16/24/32 17/25/31 22/31/41 21/30/42
s 2
f 17/25/34 18/26/33 23/32/43 22/31/44
s 3
f 18/26/36 19/27/35 24/33/45 23/32/46
s 4
f 19/27/38 20/28/37 25/34/47 24/33/48
s 5
f 20/28/40 16/29/39 21/35/49 25/34/50
s 1
f 21/30/42 22/31/41 27/37/51 26/36/52
s 2
f 22/31/44 23/32/43 28/38/53 27/37/54
s 3
f 23/32/46 24/33/45 29/39/55 28/38/56
s 4
f 24/33/48 25/34/47 30/40/57 29/39/58
s 5
f 25/34/50 21/35/49 26/41/59 30/40/60
s 6
f 2/2/61 1/1/62 31/47/63
f 3/3/64 2/2/61 31/47/63
f 4/4/65 3/3/64 31/47/63
f 5/5/66 4/4/65 31/47/63
f 1/1/62 5/5/66 31/47/63
s 7
f 26/45/67 27/44/68 32/48/69
f 27/44/68 28/43/70 32/48/69
f 28/43/70 29/42/71 32/48/69
f 29/42/71 30/46/72 32/48/69
f 30/46/72 26/45/67 32/48/69
g default
v 8.187692 0.000481 2.677217
v 8.226716 0.000481 2.617079
v 8.181580 0.000481 2.561381
v 8.114660 0.000481 2.587096
v 8.118438 0.000481 2.658687
v 8.182745 0.036656 2.667191
v 8.214433 0.036656 2.618359
v 8.177783 0.036656 2.573132
v 8.123444 0.036656 2.594013
v 8.126511 0.036656 2.652144
v 8.183559 0.102669 2.649757
v 8.206478 0.102669 2.614438
v 8.179970 0.102669 2.581727
v 8.140668 0.102669 2.596829
v 8.142887 0.102669 2.638874
v 8.174473 0.175767 2.644522
v 8.190806 0.175767 2.619352
v 8.171915 0.175767 2.596040
v 8.143907 0.175767 2.606803
v 8.145488 0.175767 2.636767
v 8.160926 0.241348 2.649363
v 8.174051 0.241348 2.629137
v 8.158870 0.241348 2.610404
v 8.136363 0.241348 2.619053
v 8.137634 0.241348 2.643131
v 8.166148 0.292959 2.633754
v 8.173325 0.292959 2.622693
v 8.165024 0.292959 2.612449
v 8.152716 0.292959 2.617179
v 8.153411 0.292959 2.630346
v 8.165817 0.000481 2.620292
v 8.162125 0.292959 2.623284
vt 0.548284 0.007647
vt 0.373591 0.064409
vt 0.373591 0.248091
vt 0.548284 0.304853
vt 0.656250 0.156250
vt 0.375000 0.312500
vt 0.425000 0.312500
vt 0.475000 0.312500
vt 0.525000 0.312500
vt 0.575000 0.312500
vt 0.625000 0.312500
vt 0.375000 0.387688
vt 0.425000 0.387688
vt 0.475000 0.387688
vt 0.525000 0.387688
vt 0.575000 0.387688
vt 0.625000 0.387688
vt 0.375000 0.462876
vt 0.425000 0.462876
vt 0.475000 0.462876
vt 0.525000 0.462876
vt 0.575000 0.462876
vt 0.625000 0.462876
vt 0.375000 0.538064
vt 0.425000 0.538064
vt 0.475000 0.538064
vt 0.525000 0.538064
vt 0.575000 0.538064
vt 0.625000 0.538064
vt 0.375000 0.613252
vt 0.425000 0.613252
vt 0.475000 0.613252
vt 0.525000 0.613252
vt 0.575000 0.613252
vt 0.625000 0.613252
vt 0.375000 0.688440
vt 0.425000 0.688440
vt 0.475000 0.688440
vt 0.525000 0.688440
vt 0.575000 0.688440
vt 0.625000 0.688440
vt 0.548284 0.695147
vt 0.373591 0.751909
vt 0.373591 0.935591
vt 0.548284 0.992353
vt 0.656250 0.843750
vt 0.500000 0.150000
vt 0.500000 0.837500
vn 0.810760 0.256671 0.526106
vn 0.810760 0.256671 0.526106
vn 0.823731 0.189082 0.534523
vn 0.823161 0.192578 0.534153
vn 0.746961 0.275032 -0.605315
vn 0.746961 0.275032 -0.605315
vn 0.766900 0.160117 -0.621472
vn 0.766900 0.160117 -0.621472
vn -0.346681 0.256671 -0.902182
vn -0.346681 0.256671 -0.902182
vn -0.351984 0.192578 -0.915981
vn -0.352228 0.189082 -0.916615
vn -0.972688 0.226372 0.051321
vn -0.972688 0.226372 0.051321
vn -0.969667 0.239016 0.051162
vn -0.969569 0.239413 0.051157
vn -0.251768 0.226372 0.940940
vn -0.251768 0.226372 0.940940
vn -0.250961 0.239413 0.937923
vn -0.250986 0.239016 0.938018
vn 0.831047 0.136194 0.539270
vn 0.831048 0.136186 0.539271
vn 0.771468 0.118299 -0.625174
vn 0.771468 0.118299 -0.625174
vn -0.355356 0.136186 -0.924757
vn -0.355356 0.136194 -0.924756
vn -0.984963 0.164765 0.051969
vn -0.984961 0.164775 0.051969
vn -0.254945 0.164775 0.952813
vn -0.254945 0.164765 0.952815
vn 0.830780 0.138484 0.539098
vn 0.830886 0.137582 0.539166
vn 0.755307 0.234250 -0.612077
vn 0.755307 0.234250 -0.612077
vn -0.355287 0.137582 -0.924577
vn -0.355242 0.138484 -0.924459
vn -0.998176 -0.029529 0.052666
vn -0.998405 -0.020291 0.052678
vn -0.258424 -0.020291 0.965818
vn -0.258365 -0.029529 0.965596
vn 0.833329 0.114679 0.540751
vn 0.833324 0.114725 0.540748
vn 0.765475 0.171040 -0.620317
vn 0.765475 0.171040 -0.620317
vn -0.356330 0.114725 -0.927290
vn -0.356331 0.114679 -0.927295
vn -0.998366 0.022131 0.052676
vn -0.998378 0.021615 0.052677
vn -0.258417 0.021615 0.965791
vn -0.258414 0.022131 0.965781
vn 0.836208 0.079503 0.542620
vn 0.836208 0.079503 0.542619
vn 0.775150 -0.067531 -0.628158
vn 0.775150 -0.067531 -0.628158
vn -0.357563 0.079503 -0.930499
vn -0.357563 0.079503 -0.930499
vn -0.951564 0.303323 0.050207
vn -0.951564 0.303323 0.050207
vn -0.246300 0.303323 0.920506
vn -0.246300 0.303323 0.920506
vn 0.000000 -1.000000 0.000000
vn 0.000000 -1.000000 0.000000
vn -0.000000 -1.000000 -0.000000
vn -0.000000 -1.000000 -0.000000
vn -0.000000 -1.000000 -0.000000
vn 0.000000 -1.000000 0.000000
vn 0.000001 1.000000 0.000001
vn 0.000001 1.000000 0.000001
vn 0.000000 1.000000 0.000000
vn -0.000000 1.000000 0.000000
vn -0.000000 1.000000 -0.000000
vn -0.000000 1.000000 -0.000000
s 1
g Grass5 Grass2
usemtl lambert7SG
f 33/54/73 34/55/74 39/61/75 38/60/76
s 2
f 34/55/77 35/56/78 40/62/79 39/61/80
s 3
f 35/56/81 36/57/82 41/63/83 40/62/84
s 4
f 36/57/85 37/58/86 42/64/87 41/63/88
s 5
f 37/58/89 33/59/90 38/65/91 42/64/92
s 1
f 38/60/76 39/61/75 44/67/93 43/66/94
s 2
f 39/61/80 40/62/79 45/68/95 44/67/96
s 3
f 40/62/84 41/63/83 46/69/97 45/68/98
s 4
f 41/63/88 42/64/87 47/70/99 46/69/100
s 5
f 42/64/92 38/65/91 43/71/101 47/70/102
s 1
f 43/66/94 44/67/93 49/73/103 48/72/104
s 2
f 44/67/96 45/68/95 50/74/105 49/73/106
s 3
f 45/68/98 46/69/97 51/75/107 50/74/108
s 4
f 46/69/100 47/70/99 52/76/109 51/75/110
s 5
f 47/70/102 43/71/101 48/77/111 52/76/112
s 1
f 48/72/104 49/73/103 54/79/113 53/78/114
s 2
f 49/73/106 50/74/105 55/80/115 54/79/116
s 3
f 50/74/108 51/75/107 56/81/117 55/80/118
s 4
f 51/75/110 52/76/109 57/82/119 56/81/120
s 5
f 52/76/112 48/77/111 53/83/121 57/82/122
s 1
f 53/78/114 54/79/113 59/85/123 58/84/124
s 2
f 54/79/116 55/80/115 60/86/125 59/85/126
s 3
f 55/80/118 56/81/117 61/87/127 60/86/128
s 4
f 56/81/120 57/82/119 62/88/129 61/87/130
s 5
f 57/82/122 53/83/121 58/89/131 62/88/132
s 6
f 34/50/133 33/49/134 63/95/135
f 35/51/136 34/50/133 63/95/135
f 36/52/137 35/51/136 63/95/135
f 37/53/138 36/52/137 63/95/135
f 33/49/134 37/53/138 63/95/135
s 7
f 58/93/139 59/92/140 64/96/141
f 59/92/140 60/91/142 64/96/141
f 60/91/142 61/90/143 64/96/141
f 61/90/143 62/94/144 64/96/141
f 62/94/144 58/93/139 64/96/141
g default
v 8.102206 -0.003167 2.766732
v 8.067849 -0.003167 2.708874
v 8.002205 -0.003167 2.723670
v 7.995992 -0.003167 2.790672
v 8.057796 -0.003167 2.817286
v 8.084579 0.034974 2.749678
v 8.058708 0.034974 2.706109
v 8.009277 0.034974 2.717251
v 8.004598 0.034974 2.767706
v 8.051138 0.034974 2.787746
v 8.075101 0.094472 2.731262
v 8.052509 0.094472 2.693218
v 8.009345 0.094472 2.702947
v 8.005260 0.094472 2.747005
v 8.045899 0.094472 2.764505
v 8.071314 0.163010 2.731721
v 8.051117 0.163010 2.697710
v 8.012530 0.163010 2.706408
v 8.008877 0.163010 2.745795
v 8.045208 0.163010 2.761439
v 8.064919 0.230114 2.732703
v 8.048796 0.230114 2.705552
v 8.017991 0.230114 2.712495
v 8.015075 0.230114 2.743938
v 8.044078 0.230114 2.756427
v 8.041774 0.287149 2.677271
v 8.032208 0.287149 2.661162
v 8.013931 0.287149 2.665281
v 8.012201 0.287149 2.683937
v 8.029409 0.287149 2.691347
v 8.045210 -0.003167 2.761447
v 8.025905 0.287149 2.675800
vt 0.548284 0.007647
vt 0.373591 0.064409
vt 0.373591 0.248091
vt 0.548284 0.304853
vt 0.656250 0.156250
vt 0.375000 0.312500
vt 0.425000 0.312500
vt 0.475000 0.312500
vt 0.525000 0.312500
vt 0.575000 0.312500
vt 0.625000 0.312500
vt 0.375000 0.387688
vt 0.425000 0.387688
vt 0.475000 0.387688
vt 0.525000 0.387688
vt 0.575000 0.387688
vt 0.625000 0.387688
vt 0.375000 0.462876
vt 0.425000 0.462876
vt 0.475000 0.462876
vt 0.525000 0.462876
vt 0.575000 0.462876
vt 0.625000 0.462876
vt 0.375000 0.538064
vt 0.425000 0.538064
vt 0.475000 0.538064
vt 0.525000 0.538064
vt 0.575000 0.538064
vt 0.625000 0.538064
vt 0.375000 0.613252
vt 0.425000 0.613252
vt 0.475000 0.613252
vt 0.525000 0.613252
vt 0.575000 0.613252
vt 0.625000 0.613252
vt 0.375000 0.688440
vt 0.425000 0.688440
vt 0.475000 0.688440
vt 0.525000 0.688440
vt 0.575000 0.688440
vt 0.625000 0.688440
vt 0.548284 0.695147
vt 0.373591 0.751909
vt 0.373591 0.935591
vt 0.548284 0.992353
vt 0.656250 0.843750
vt 0.500000 0.150000
vt 0.500000 0.837500
vn 0.847800 0.166702 -0.503433
vn 0.847800 0.166702 -0.503433
vn 0.858705 0.051172 -0.509909
vn 0.856468 0.088361 -0.508581
vn -0.218230 -0.122480 -0.968181
vn -0.218230 -0.122480 -0.968181
vn -0.216382 -0.177798 -0.959983
vn -0.216382 -0.177798 -0.959983
vn -0.981795 0.166702 -0.091038
vn -0.981795 0.166702 -0.091038
vn -0.991834 0.088361 -0.091969
vn -0.994424 0.051172 -0.092209
vn -0.332777 0.540429 0.772785
vn -0.332777 0.540429 0.772785
vn -0.354593 0.442941 0.823448
vn -0.359584 0.416429 0.835037
vn 0.632128 0.540429 0.555293
vn 0.632128 0.540429 0.555293
vn 0.683050 0.416429 0.600025
vn 0.673570 0.442941 0.591698
vn 0.859698 0.017617 -0.510498
vn 0.859775 0.011521 -0.510544
vn -0.218997 -0.089822 -0.971582
vn -0.218997 -0.089822 -0.971582
vn -0.995662 0.011521 -0.092324
vn -0.995574 0.017617 -0.092316
vn -0.388561 0.186612 0.902328
vn -0.389555 0.172860 0.904636
vn 0.739981 0.172860 0.650036
vn 0.738093 0.186612 0.648378
vn 0.857873 0.067455 -0.509415
vn 0.857848 0.067882 -0.509400
vn -0.219184 0.079821 -0.972413
vn -0.219184 0.079821 -0.972413
vn -0.993432 0.067882 -0.092117
vn -0.993460 0.067455 -0.092120
vn -0.395052 0.048032 0.917402
vn -0.395055 0.047861 0.917410
vn 0.750430 0.047861 0.659215
vn 0.750423 0.048032 0.659210
vn 0.859705 -0.017141 -0.510503
vn 0.859260 0.036452 -0.510238
vn -0.214639 -0.217154 -0.952247
vn -0.214639 -0.217154 -0.952247
vn -0.995067 0.036452 -0.092269
vn -0.995582 -0.017141 -0.092317
vn -0.376687 0.304815 0.874754
vn -0.364150 0.390241 0.845640
vn 0.691723 0.390241 0.607644
vn 0.715538 0.304815 0.628564
vn 0.850652 -0.145734 -0.505127
vn 0.850652 -0.145734 -0.505127
vn -0.169765 -0.635549 -0.753165
vn -0.169765 -0.635549 -0.753165
vn -0.985098 -0.145734 -0.091345
vn -0.985098 -0.145734 -0.091345
vn -0.287276 0.687330 0.667120
vn -0.287276 0.687330 0.667120
vn 0.545696 0.687331 0.479367
vn 0.545696 0.687331 0.479367
vn 0.000000 -1.000000 0.000000
vn 0.000000 -1.000000 0.000000
vn -0.000000 -1.000000 0.000000
vn -0.000000 -1.000000 0.000000
vn -0.000000 -1.000000 0.000000
vn 0.000000 -1.000000 0.000000
vn 0.000000 1.000000 0.000000
vn 0.000000 1.000000 0.000000
vn 0.000000 1.000000 -0.000000
vn 0.000000 1.000000 0.000000
vn 0.000001 1.000000 -0.000000
vn 0.000001 1.000000 -0.000000
s 1
g Grass5 Grass1
usemtl lambert7SG
f 65/102/145 66/103/146 71/109/147 70/108/148
s 2
f 66/103/149 67/104/150 72/110/151 71/109/152
s 3
f 67/104/153 68/105/154 73/111/155 72/110/156
s 4
f 68/105/157 69/106/158 74/112/159 73/111/160
s 5
f 69/106/161 65/107/162 70/113/163 74/112/164
s 1
f 70/108/148 71/109/147 76/115/165 75/114/166
s 2
f 71/109/152 72/110/151 77/116/167 76/115/168
s 3
f 72/110/156 73/111/155 78/117/169 77/116/170
s 4
f 73/111/160 74/112/159 79/118/171 78/117/172
s 5
f 74/112/164 70/113/163 75/119/173 79/118/174
s 1
f 75/114/166 76/115/165 81/121/175 80/120/176
s 2
f 76/115/168 77/116/167 82/122/177 81/121/178
s 3
f 77/116/170 78/117/169 83/123/179 82/122/180
s 4
f 78/117/172 79/118/171 84/124/181 83/123/182
s 5
f 79/118/174 75/119/173 80/125/183 84/124/184
s 1
f 80/120/176 81/121/175 86/127/185 85/126/186
s 2
f 81/121/178 82/122/177 87/128/187 86/127/188
s 3
f 82/122/180 83/123/179 88/129/189 87/128/190
s 4
f 83/123/182 84/124/181 89/130/191 88/129/192
s 5
f 84/124/184 80/125/183 85/131/193 89/130/194
s 1
f 85/126/186 86/127/185 91/133/195 90/132/196
s 2
f 86/127/188 87/128/187 92/134/197 91/133/198
s 3
f 87/128/190 88/129/189 93/135/199 92/134/200
s 4
f 88/129/192 89/130/191 94/136/201 93/135/202
s 5
f 89/130/194 85/131/193 90/137/203 94/136/204
s 6
f 66/98/205 65/97/206 95/143/207
f 67/99/208 66/98/205 95/143/207
f 68/100/209 67/99/208 95/143/207
f 69/101/210 68/100/209 95/143/207
f 65/97/206 69/101/210 95/143/207
s 7
f 90/141/211 91/140/212 96/144/213
f 91/140/212 92/139/214 96/144/213
f 92/139/214 93/138/215 96/144/213
f 93/138/215 94/142/216 96/144/213
f 94/142/216 90/141/211 96/144/213
