# This file uses centimeters as units for non-parametric coordinates.

mtllib Rock1.mtl
g default
v 5.141178 -0.619894 -2.296848
v 8.217603 -0.619894 -2.296848
v 5.141178 0.556869 -2.296848
v 8.217603 0.619894 -2.296848
v 5.141178 0.556869 -3.536637
v 8.901650 0.619894 -3.536637
v 5.141178 -0.619894 -3.536637
v 8.901650 -0.619894 -3.536637
v 5.141178 0.556869 -2.916742
v 8.584474 0.619894 -2.916742
v 8.584474 -0.619894 -2.916742
v 5.141178 -0.619894 -2.916742
v 6.804276 -0.619894 -2.128775
v 7.597709 -0.619894 -2.916742
v 8.334915 -0.619894 -5.266216
v 8.334915 0.556869 -4.453482
v 7.597709 0.556869 -2.916742
v 6.804276 0.556869 -2.128775
v 5.141178 0.000000 -2.296848
v 6.804276 0.000000 -2.128775
v 8.217603 0.000000 -2.296848
v 8.584474 0.000000 -2.916742
v 8.901650 0.000000 -3.536637
v 8.334915 0.000000 -4.761220
v 5.141178 0.000000 -3.536637
v 5.141178 0.000000 -2.916742
v 8.091092 -0.619894 -2.916742
v 7.510940 -0.619894 -2.212811
v 7.510940 0.000000 -2.212811
v 7.510940 0.619894 -2.212811
v 8.091092 0.619894 -2.916742
v 8.362333 0.619894 -3.928749
v 8.362333 0.000000 -3.928749
v 8.362333 -0.619894 -3.928749
vt 0.375000 0.000000
vt 0.625000 0.000000
vt 0.375000 0.250000
vt 0.625000 0.250000
vt 0.375000 0.500000
vt 0.625000 0.500000
vt 0.375000 0.750000
vt 0.625000 0.750000
vt 0.375000 1.000000
vt 0.625000 1.000000
vt 0.875000 0.000000
vt 0.875000 0.250000
vt 0.125000 0.000000
vt 0.125000 0.250000
vt 0.250000 0.250000
vt 0.375000 0.375000
vt 0.625000 0.375000
vt 0.750000 0.250000
vt 0.625000 0.875000
vt 0.750000 0.000000
vt 0.250000 0.000000
vt 0.375000 0.875000
vt 0.500000 0.000000
vt 0.500000 1.000000
vt 0.500000 0.875000
vt 0.500000 0.750000
vt 0.500000 0.500000
vt 0.500000 0.375000
vt 0.500000 0.250000
vt 0.375000 0.125000
vt 0.500000 0.125000
vt 0.625000 0.125000
vt 0.750000 0.125000
vt 0.625000 0.625000
vt 0.875000 0.125000
vt 0.500000 0.625000
vt 0.125000 0.125000
vt 0.375000 0.625000
vt 0.250000 0.125000
vt 0.562500 0.875000
vt 0.562500 0.000000
vt 0.562500 1.000000
vt 0.562500 0.125000
vt 0.562500 0.250000
vt 0.562500 0.375000
vt 0.562500 0.500000
vt 0.562500 0.625000
vt 0.562500 0.750000
vn -0.030286 0.000000 0.999541
vn -0.034219 0.000000 0.999414
vn 0.118088 0.000000 0.993003
vn 0.118088 0.000000 0.993003
vn -0.015433 0.999862 -0.006106
vn -0.023720 0.999587 -0.016232
vn -0.069674 0.996932 -0.035658
vn -0.118955 0.991784 -0.047066
vn 0.999108 0.010687 -0.040864
vn 0.999464 0.010437 -0.031032
vn 0.999536 0.010376 -0.028652
vn 0.999108 0.010687 -0.040864
vn 0.000000 -1.000000 -0.000000
vn 0.000000 -1.000000 -0.000000
vn 0.000000 -1.000000 0.000000
vn 0.000000 -1.000000 -0.000000
vn 0.875570 0.000000 0.483091
vn 0.875570 0.000000 0.483091
vn 0.890236 0.000000 0.455499
vn 0.890236 0.000000 0.455499
vn -1.000000 0.000000 0.000000
vn -1.000000 0.000000 0.000000
vn -1.000000 0.000000 0.000000
vn -1.000000 0.000000 0.000000
vn -0.008657 0.999931 -0.007970
vn -0.086462 0.993070 -0.079605
vn 0.860580 0.000000 0.509315
vn 0.860580 0.000000 0.509315
vn 0.000000 -1.000000 -0.000000
vn 0.000000 -1.000000 -0.000000
vn -1.000000 0.000000 0.000000
vn -1.000000 0.000000 0.000000
vn 0.000000 -1.000000 -0.000000
vn 0.000000 -1.000000 0.000000
vn 0.000000 -1.000000 -0.000000
vn -0.307490 0.253428 -0.917183
vn -0.307490 0.253428 -0.917183
vn -0.360719 0.310842 -0.879351
vn -0.355420 0.305099 -0.883511
vn 0.000000 1.000000 -0.000000
vn 0.000000 1.000000 -0.000000
vn 0.000000 1.000000 0.000000
vn -0.100548 0.000000 0.994932
vn -0.100548 0.000000 0.994932
vn -0.100548 0.000000 0.994932
vn -0.035440 0.000000 0.999372
vn 0.118088 0.000000 0.993003
vn 0.860580 0.000000 0.509315
vn 0.875570 0.000000 0.483091
vn 0.890236 0.000000 0.455499
vn 0.999628 0.010290 -0.025262
vn 0.999628 0.010290 -0.025262
vn -0.393727 0.346761 -0.851314
vn -0.393727 0.346761 -0.851314
vn -1.000000 0.000000 0.000000
vn -1.000000 0.000000 0.000000
vn -1.000000 0.000000 0.000000
vn 0.000000 -1.000000 0.000000
vn 0.000000 -1.000000 0.000000
vn 0.118088 0.000000 0.993003
vn 0.118088 0.000000 0.993003
vn 0.118088 0.000000 0.993003
vn 0.000000 1.000000 -0.000000
vn 0.000000 1.000000 -0.000000
vn 0.000000 1.000000 0.000000
vn 0.588057 0.000000 -0.808820
vn 0.588057 0.000000 -0.808820
vn 0.588057 0.000000 -0.808820
vn 0.588057 0.000000 -0.808820
vn 0.588057 0.000000 -0.808820
vn 0.588057 0.000000 -0.808820
vn 0.000000 -1.000000 0.000000
s 1
g Rock1
usemtl lambert3SG
f 18/29/1 20/31/2 29/43/3 30/44/4
s 2
usemtl lambert4SG
f 16/27/5 17/28/6 31/45/7 32/46/8
s 3
usemtl lambert5SG
f 32/46/9 33/47/10 24/36/11 16/27/12
s 4
f 14/25/13 15/26/14 34/48/15 27/40/16
s 5
usemtl lambert2SG
f 10/18/17 22/33/18 23/35/19 6/12/20
s 6
usemtl lambert5SG
f 25/37/21 26/39/22 9/15/23 5/14/24
s 2
usemtl lambert4SG
f 17/28/6 18/29/25 30/44/26 31/45/7
s 5
usemtl lambert2SG
f 21/32/27 22/33/18 10/18/17 4/4/28
s 4
usemtl lambert5SG
f 13/24/29 14/25/13 27/40/16 28/42/30
s 6
f 9/15/23 26/39/22 19/30/31 3/3/32
s 4
f 12/22/33 14/25/13 13/24/29 1/9/34
f 7/7/35 15/26/14 14/25/13 12/22/33
s 7
f 5/5/36 16/27/37 24/36/38 25/38/39
s 2
usemtl lambert4SG
f 9/16/40 17/28/6 16/27/5 5/5/41
f 3/3/42 18/29/25 17/28/6 9/16/40
s 1
usemtl lambert3SG
f 19/30/43 20/31/2 18/29/1 3/3/44
f 1/1/45 13/23/46 20/31/2 19/30/43
f 28/41/47 29/43/3 20/31/2 13/23/46
s 5
usemtl lambert2SG
f 2/2/48 11/20/49 22/33/18 21/32/27
f 23/35/19 22/33/18 11/20/49 8/11/50
s 3
usemtl lambert5SG
f 15/26/51 24/36/11 33/47/10 34/48/52
s 7
f 25/38/39 24/36/38 15/26/53 7/7/54
s 6
f 7/13/55 12/21/56 26/39/22 25/37/21
f 19/30/31 26/39/22 12/21/56 1/1/57
s 4
f 28/42/30 27/40/16 11/19/58 2/10/59
s 1
usemtl lambert3SG
f 21/32/60 29/43/3 28/41/47 2/2/61
f 30/44/4 29/43/3 21/32/60 4/4/62
s 2
usemtl lambert4SG
f 31/45/7 30/44/26 4/4/63 10/17/64
f 32/46/8 31/45/7 10/17/64 6/6/65
s 8
usemtl lambert5SG
f 23/34/66 33/47/67 32/46/68 6/6/69
f 34/48/70 33/47/67 23/34/66 8/8/71
s 4
f 27/40/16 34/48/15 8/8/72 11/19/58
