# This file uses centimeters as units for non-parametric coordinates.

mtllib Bush3.mtl
g default
v -0.516734 0.049896 -2.310145
v -0.515040 0.118153 -2.278958
v -0.426635 0.094924 -2.303311
v -0.457621 0.012027 -2.336721
v -0.545965 0.058335 -2.354707
v -0.530407 0.151457 -2.295803
v -0.418556 0.119345 -2.347731
v -0.457758 0.019794 -2.386085
v -0.565569 0.072209 -2.375029
v -0.533036 0.159798 -2.316093
v -0.415722 0.145061 -2.367180
v -0.464148 0.037448 -2.418157
v -0.563130 0.099280 -2.398185
v -0.540542 0.178465 -2.340125
v -0.436944 0.162343 -2.388613
v -0.479681 0.073088 -2.448202
v -0.551861 0.130039 -2.419369
v -0.536350 0.176987 -2.385658
v -0.476537 0.167679 -2.413653
v -0.501211 0.116148 -2.448056
v -0.521954 0.154178 -2.425164
vt 0.384512 0.341288
vt 0.468012 0.355497
vt 0.486788 0.399787
vt 0.360974 0.402251
vt 0.147584 0.595469
vt 0.072769 0.648124
vt 0.031723 0.613241
vt 0.140521 0.554846
vt 0.386104 0.205687
vt 0.438759 0.280502
vt 0.402669 0.318545
vt 0.337900 0.229727
vt 0.229191 0.066222
vt 0.272732 0.008130
vt 0.323807 0.031121
vt 0.262037 0.107098
vt 0.481943 0.426602
vt 0.357565 0.440016
vt 0.011346 0.586685
vt 0.125870 0.536657
vt 0.369564 0.339670
vt 0.304649 0.233586
vt 0.355789 0.036904
vt 0.293891 0.130068
vt 0.484870 0.464962
vt 0.371746 0.480905
vt 0.008103 0.550945
vt 0.111299 0.507077
vt 0.321212 0.356180
vt 0.275109 0.253963
vt 0.385049 0.059704
vt 0.341883 0.147595
vt 0.459846 0.514270
vt 0.392516 0.522538
vt 0.013854 0.503902
vt 0.073434 0.478575
vt 0.274055 0.351454
vt 0.247438 0.292439
vt 0.413420 0.087729
vt 0.388722 0.140366
vt 0.422484 0.555031
vt 0.030101 0.459381
vt 0.229191 0.336179
vt 0.431891 0.120808
vt 0.985087 0.740837
vt 0.941546 0.798929
vt 0.888891 0.724114
vt 0.963706 0.671459
vn -0.850566 -0.184070 0.492601
vn -0.850566 -0.184070 0.492601
vn -0.850566 -0.184070 0.492601
vn -0.850566 -0.184070 0.492601
vn 0.416787 0.685816 0.596611
vn 0.416787 0.685816 0.596611
vn 0.416787 0.685816 0.596611
vn 0.416787 0.685816 0.596611
vn 0.937666 -0.345331 -0.039110
vn 0.937666 -0.345331 -0.039110
vn 0.937666 -0.345331 -0.039110
vn 0.937666 -0.345331 -0.039110
vn -0.462935 -0.886355 -0.008176
vn -0.462935 -0.886355 -0.008176
vn -0.462935 -0.886355 -0.008176
vn -0.462935 -0.886355 -0.008176
vn -0.888958 -0.059541 0.454102
vn -0.888958 -0.059541 0.454102
vn -0.888958 -0.059541 0.454102
vn -0.888958 -0.059541 0.454102
vn 0.408930 0.691874 0.595052
vn 0.408930 0.691874 0.595052
vn 0.408930 0.691874 0.595052
vn 0.408930 0.691874 0.595052
vn 0.920380 -0.265529 -0.287046
vn 0.920380 -0.265529 -0.287046
vn 0.920380 -0.265529 -0.287046
vn 0.920380 -0.265529 -0.287046
vn -0.442289 -0.848327 -0.291069
vn -0.442289 -0.848327 -0.291069
vn -0.442289 -0.848327 -0.291069
vn -0.442289 -0.848327 -0.291069
vn -0.958750 0.145628 0.244112
vn -0.958750 0.145628 0.244112
vn -0.958750 0.145628 0.244112
vn -0.958750 0.145628 0.244112
vn 0.320876 0.831032 0.454339
vn 0.320876 0.831032 0.454339
vn 0.320876 0.831032 0.454339
vn 0.320876 0.831032 0.454339
vn 0.797898 -0.031397 -0.601974
vn 0.797898 -0.031397 -0.601974
vn 0.797898 -0.031397 -0.601974
vn 0.797898 -0.031397 -0.601974
vn -0.506805 -0.616770 -0.602282
vn -0.506805 -0.616770 -0.602282
vn -0.506805 -0.616770 -0.602282
vn -0.506805 -0.616770 -0.602282
vn -0.939507 0.335169 -0.070625
vn -0.939507 0.335169 -0.070625
vn -0.939507 0.335169 -0.070625
vn -0.939507 0.335169 -0.070625
vn 0.145172 0.989229 -0.018741
vn 0.145172 0.989229 -0.018741
vn 0.145172 0.989229 -0.018741
vn 0.145172 0.989229 -0.018741
vn 0.540222 0.272811 -0.796074
vn 0.540222 0.272811 -0.796074
vn 0.540222 0.272811 -0.796074
vn 0.540222 0.272811 -0.796074
vn -0.547899 -0.298853 -0.781341
vn -0.547899 -0.298853 -0.781341
vn -0.547899 -0.298853 -0.781341
vn -0.547899 -0.298853 -0.781341
vn -0.584988 0.591627 -0.554767
vn -0.584988 0.591627 -0.554767
vn -0.584988 0.591627 -0.554767
vn -0.116244 0.841214 -0.528059
vn -0.116244 0.841214 -0.528059
vn -0.116244 0.841214 -0.528059
vn 0.053988 0.536431 -0.842216
vn 0.053988 0.536431 -0.842216
vn 0.053988 0.536431 -0.842216
vn -0.407419 0.297529 -0.863415
vn -0.407419 0.297529 -0.863415
vn -0.407419 0.297529 -0.863415
vn 0.138881 -0.414409 0.899432
vn 0.138881 -0.414409 0.899432
vn 0.138881 -0.414409 0.899432
vn 0.138881 -0.414409 0.899432
s off
g Bushes:pSphere11 Bush3 Bushes1
usemtl StingrayPBS3SG
f 1/1/1 2/2/2 6/3/3 5/4/4
f 2/5/5 3/6/6 7/7/7 6/8/8
f 3/9/9 4/10/10 8/11/11 7/12/12
f 4/13/13 1/14/14 5/15/15 8/16/16
f 5/4/17 6/3/18 10/17/19 9/18/20
f 6/8/21 7/7/22 11/19/23 10/20/24
f 7/12/25 8/11/26 12/21/27 11/22/28
f 8/16/29 5/15/30 9/23/31 12/24/32
f 9/18/33 10/17/34 14/25/35 13/26/36
f 10/20/37 11/19/38 15/27/39 14/28/40
f 11/22/41 12/21/42 16/29/43 15/30/44
f 12/24/45 9/23/46 13/31/47 16/32/48
f 13/26/49 14/25/50 18/33/51 17/34/52
f 14/28/53 15/27/54 19/35/55 18/36/56
f 15/30/57 16/29/58 20/37/59 19/38/60
f 16/32/61 13/31/62 17/39/63 20/40/64
f 17/34/65 18/33/66 21/41/67
f 18/36/68 19/35/69 21/42/70
f 19/38/71 20/37/72 21/43/73
f 20/40/74 17/39/75 21/44/76
f 1/45/77 4/46/78 3/47/79 2/48/80
g default
v -0.420646 -0.004364 -2.241266
v -0.363585 -0.004364 -2.276923
v -0.455437 -0.004364 -2.358024
v -0.506084 -0.004364 -2.296143
v -0.418102 0.040154 -2.200343
v -0.314479 0.040154 -2.308054
v -0.426142 0.040154 -2.406647
v -0.524735 0.040154 -2.294983
v -0.417091 0.124611 -2.184080
v -0.298216 0.124611 -2.309065
v -0.427153 0.124611 -2.422910
v -0.540998 0.124611 -2.293972
v -0.416717 0.176644 -2.178063
v -0.314479 0.202531 -2.308054
v -0.426142 0.202531 -2.406647
v -0.524735 0.202531 -2.294983
v -0.419479 0.221162 -2.222495
v -0.358911 0.247049 -2.305292
v -0.423380 0.247049 -2.362214
v -0.480303 0.247049 -2.297745
v -0.419607 0.263344 -2.301519
vt 0.576410 0.008130
vt 0.623220 0.011431
vt 0.664131 0.042002
vt 0.560013 0.047025
vt 0.607286 0.233672
vt 0.688596 0.227729
vt 0.698842 0.274621
vt 0.599995 0.281846
vt 0.527287 0.376361
vt 0.582716 0.367868
vt 0.596473 0.398804
vt 0.493071 0.413623
vt 0.445882 0.099296
vt 0.517009 0.092358
vt 0.538743 0.128991
vt 0.438462 0.132455
vt 0.675358 0.100931
vt 0.555204 0.106821
vt 0.710622 0.330626
vt 0.596484 0.338968
vt 0.612951 0.456827
vt 0.493553 0.473939
vt 0.548940 0.188662
vt 0.432450 0.192692
vt 0.669727 0.156163
vt 0.553692 0.143321
vt 0.706796 0.383452
vt 0.607950 0.390677
vt 0.612789 0.512650
vt 0.509387 0.527469
vt 0.553681 0.225220
vt 0.442453 0.247817
vt 0.649711 0.195244
vt 0.577465 0.180238
vt 0.688552 0.421159
vt 0.631483 0.425330
vt 0.596362 0.553629
vt 0.536663 0.562185
vt 0.531929 0.263822
vt 0.465003 0.285958
vt 0.008103 0.008130
vt 0.008103 0.008130
vt 0.008103 0.008130
vt 0.008103 0.008130
vt 0.619149 0.226771
vt 0.662248 0.453759
vt 0.571087 0.589828
vt 0.497178 0.316422
vn 0.602926 -0.424078 0.675750
vn 0.602926 -0.424078 0.675750
vn 0.602926 -0.424078 0.675750
vn 0.602926 -0.424078 0.675750
vn 0.412609 -0.781906 -0.467308
vn 0.412609 -0.781906 -0.467308
vn 0.412609 -0.781906 -0.467308
vn 0.412609 -0.781906 -0.467308
vn -0.734353 -0.248848 -0.631506
vn -0.734353 -0.248848 -0.631506
vn -0.734353 -0.248848 -0.631506
vn -0.734353 -0.248848 -0.631506
vn -0.552890 -0.435720 0.710254
vn -0.552890 -0.435720 0.710254
vn -0.552890 -0.435720 0.710254
vn -0.552890 -0.435720 0.710254
vn 0.716143 -0.135068 0.684760
vn 0.716143 -0.135068 0.684760
vn 0.716143 -0.135068 0.684760
vn 0.716143 -0.135068 0.684760
vn 0.655798 -0.135173 -0.742736
vn 0.655798 -0.135173 -0.742736
vn 0.655798 -0.135173 -0.742736
vn 0.655798 -0.135173 -0.742736
vn -0.742736 -0.135173 -0.655798
vn -0.742736 -0.135173 -0.655798
vn -0.742736 -0.135173 -0.655798
vn -0.742736 -0.135173 -0.655798
vn -0.657560 -0.135172 0.741177
vn -0.657560 -0.135172 0.741177
vn -0.657560 -0.135172 0.741177
vn -0.657560 -0.135172 0.741177
vn 0.751455 0.056329 0.657376
vn 0.751455 0.056329 0.657376
vn 0.751455 0.056329 0.657376
vn 0.751455 0.056329 0.657376
vn 0.654753 0.146282 -0.741552
vn 0.654753 0.146282 -0.741552
vn 0.654753 0.146282 -0.741552
vn 0.654753 0.146282 -0.741552
vn -0.741552 0.146282 -0.654753
vn -0.741552 0.146282 -0.654753
vn -0.741552 0.146282 -0.654753
vn -0.741552 0.146282 -0.654753
vn -0.694362 0.061277 0.717012
vn -0.694362 0.061277 0.717012
vn -0.694362 0.061277 0.717012
vn -0.694362 0.061277 0.717012
vn 0.575188 0.576497 0.580354
vn 0.575188 0.576497 0.580354
vn 0.575188 0.576497 0.580354
vn 0.575188 0.576497 0.580354
vn 0.540417 0.577350 -0.612059
vn 0.540417 0.577350 -0.612059
vn 0.540417 0.577350 -0.612059
vn 0.540417 0.577350 -0.612059
vn -0.612059 0.577350 -0.540417
vn -0.612059 0.577350 -0.540417
vn -0.612059 0.577350 -0.540417
vn -0.612059 0.577350 -0.540417
vn -0.529973 0.577295 0.621176
vn -0.529973 0.577295 0.621176
vn -0.529973 0.577295 0.621176
vn -0.529973 0.577295 0.621176
vn 0.000000 -1.000000 0.000000
vn 0.000000 -1.000000 0.000000
vn 0.000000 -1.000000 0.000000
vn 0.000000 -1.000000 0.000000
vn 0.257185 0.852682 0.454740
vn 0.257185 0.852682 0.454740
vn 0.257185 0.852682 0.454740
vn 0.234534 0.935113 -0.265626
vn 0.234534 0.935113 -0.265626
vn 0.234534 0.935113 -0.265626
vn -0.265626 0.935113 -0.234534
vn -0.265626 0.935113 -0.234534
vn -0.265626 0.935113 -0.234534
vn -0.203181 0.863645 0.461340
vn -0.203181 0.863645 0.461340
vn -0.203181 0.863645 0.461340
s off
g Bush3 Bushes1 Bushes:pSphere4
usemtl StingrayPBS3SG
f 22/49/81 23/50/82 27/51/83 26/52/84
f 23/53/85 24/54/86 28/55/87 27/56/88
f 24/57/89 25/58/90 29/59/91 28/60/92
f 25/61/93 22/62/94 26/63/95 29/64/96
f 26/52/97 27/51/98 31/65/99 30/66/100
f 27/56/101 28/55/102 32/67/103 31/68/104
f 28/60/105 29/59/106 33/69/107 32/70/108
f 29/64/109 26/63/110 30/71/111 33/72/112
f 30/66/113 31/65/114 35/73/115 34/74/116
f 31/68/117 32/67/118 36/75/119 35/76/120
f 32/70/121 33/69/122 37/77/123 36/78/124
f 33/72/125 30/71/126 34/79/127 37/80/128
f 34/74/129 35/73/130 39/81/131 38/82/132
f 35/76/133 36/75/134 40/83/135 39/84/136
f 36/78/137 37/77/138 41/85/139 40/86/140
f 37/80/141 34/79/142 38/87/143 41/88/144
f 24/89/145 23/90/146 22/91/147 25/92/148
f 38/82/149 39/81/150 42/93/151
f 39/84/152 40/83/153 42/94/154
f 40/86/155 41/85/156 42/95/157
f 41/88/158 38/87/159 42/96/160
g default
v -0.359959 0.194854 -2.235358
v -0.370142 0.165719 -2.171906
v -0.291542 0.146206 -2.175349
v -0.276436 0.176101 -2.242594
v -0.367856 0.212479 -2.242407
v -0.378474 0.187116 -2.160798
v -0.282385 0.173899 -2.159255
v -0.267312 0.200156 -2.245387
v -0.369209 0.248628 -2.238377
v -0.381468 0.219341 -2.144143
v -0.272264 0.204042 -2.141542
v -0.255549 0.234223 -2.240298
v -0.359088 0.278770 -2.220663
v -0.369705 0.253406 -2.139055
v -0.273617 0.240190 -2.137512
v -0.258543 0.266447 -2.223643
v -0.340205 0.294829 -2.194012
v -0.346335 0.280185 -2.146895
v -0.286569 0.272968 -2.148994
v -0.275494 0.288196 -2.199886
v -0.317621 0.292503 -2.165564
v -0.350641 0.168131 -2.187125
v -0.316893 0.158459 -2.185977
v -0.345970 0.182952 -2.219464
v -0.311589 0.172878 -2.217347
v -0.372870 0.130574 -2.224512
v -0.351981 0.108701 -2.242000
v -0.353343 0.156329 -2.235160
v -0.334242 0.135590 -2.255385
v -0.351984 0.153136 -2.191264
v -0.347732 0.172753 -2.223967
v -0.312920 0.157876 -2.221468
v -0.319374 0.139656 -2.192136
v -0.358152 0.138197 -2.201976
v -0.328542 0.120871 -2.207328
v -0.319304 0.143074 -2.232511
v -0.352709 0.162808 -2.232968
v -0.365482 0.134400 -2.213201
v -0.340216 0.114809 -2.224597
v -0.326744 0.139347 -2.243904
v -0.353025 0.159581 -2.234060
v -0.387186 0.132687 -2.242081
v -0.366297 0.110815 -2.259569
v -0.367659 0.158442 -2.252729
v -0.348558 0.137704 -2.272954
vt 0.867756 0.136124
vt 0.938239 0.119282
vt 0.946656 0.144090
vt 0.858924 0.155304
vt 0.671368 0.884420
vt 0.678891 0.803955
vt 0.712067 0.805525
vt 0.691454 0.900017
vt 0.433124 0.719515
vt 0.403923 0.642778
vt 0.420810 0.620089
vt 0.467716 0.708157
vt 0.826252 0.495810
vt 0.735387 0.501700
vt 0.722326 0.484256
vt 0.828574 0.468479
vt 0.958102 0.179677
vt 0.856798 0.192626
vt 0.748321 0.807107
vt 0.724721 0.914515
vt 0.451710 0.595037
vt 0.505558 0.695892
vt 0.710594 0.447504
vt 0.830772 0.429963
vt 0.955975 0.216998
vt 0.868243 0.228212
vt 0.781898 0.820869
vt 0.761000 0.915298
vt 0.489718 0.583298
vt 0.536802 0.671271
vt 0.711332 0.408933
vt 0.817657 0.393683
vt 0.941540 0.251480
vt 0.890888 0.257954
vt 0.809994 0.844877
vt 0.795167 0.903074
vt 0.529433 0.585541
vt 0.558645 0.637152
vt 0.723098 0.372193
vt 0.791944 0.364923
vt 0.053900 0.031981
vt 0.030434 0.055523
vt 0.008103 0.032082
vt 0.030821 0.008130
vt 0.919676 0.281800
vt 0.824828 0.882168
vt 0.586389 0.603008
vt 0.740855 0.337944
vt 0.366493 0.349527
vt 0.316386 0.408764
vt 0.316385 0.384974
vt 0.340158 0.361200
vt 0.268417 0.361222
vt 0.291666 0.361135
vt 0.100817 0.961186
vt 0.150770 0.895865
vt 0.148943 0.937368
vt 0.124067 0.961060
vt 0.198877 0.949315
vt 0.172562 0.961035
vt 0.085564 0.231229
vt 0.060142 0.244045
vt 0.053340 0.230031
vt 0.075324 0.212901
vt 0.031768 0.256242
vt 0.025780 0.246289
vt 0.963429 0.568126
vt 0.935274 0.555942
vt 0.942054 0.541654
vt 0.968937 0.557956
vt 0.909355 0.544357
vt 0.918772 0.525738
vt 0.061956 0.256489
vt 0.034180 0.265040
vt 0.961448 0.577035
vt 0.933728 0.568475
vt 0.906721 0.560260
vt 0.088892 0.247070
vt 0.044590 0.223021
vt 0.061825 0.201590
vt 0.931999 0.514236
vt 0.950846 0.534364
vt 0.969571 0.555269
vt 0.025086 0.243606
vt 0.035844 0.215664
vt 0.048502 0.190205
vt 0.945379 0.502560
vt 0.959479 0.526837
vt 0.970213 0.552563
vt 0.024389 0.240904
vt 0.019129 0.207715
vt 0.031841 0.182750
vt 0.008103 0.232675
vt 0.975899 0.518674
vt 0.986884 0.544584
vt 0.961815 0.494115
vn -0.900902 -0.347674 -0.259804
vn -0.900902 -0.347674 -0.259804
vn -0.900902 -0.347674 -0.259804
vn -0.900902 -0.347674 -0.259804
vn -0.080828 -0.482062 0.872401
vn -0.080828 -0.482062 0.872401
vn -0.080828 -0.482062 0.872401
vn -0.080828 -0.482062 0.872401
vn 0.936571 -0.345691 0.057730
vn 0.936571 -0.345691 0.057730
vn 0.936571 -0.345691 0.057730
vn 0.936571 -0.345691 0.057730
vn -0.092023 -0.226269 -0.969708
vn -0.092023 -0.226269 -0.969708
vn -0.092023 -0.226269 -0.969708
vn -0.092023 -0.226269 -0.969708
vn -0.990510 -0.021927 -0.135679
vn -0.990510 -0.021927 -0.135679
vn -0.990510 -0.021927 -0.135679
vn -0.990510 -0.021927 -0.135679
vn -0.083483 -0.473615 0.876766
vn -0.083483 -0.473615 0.876766
vn -0.083483 -0.473615 0.876766
vn -0.083483 -0.473615 0.876766
vn 0.938554 -0.340310 0.057490
vn 0.938554 -0.340310 0.057490
vn 0.938554 -0.340310 0.057490
vn 0.938554 -0.340310 0.057490
vn -0.006496 0.129730 -0.991528
vn -0.006496 0.129730 -0.991528
vn -0.006496 0.129730 -0.991528
vn -0.006496 0.129730 -0.991528
vn -0.944079 0.329078 -0.020549
vn -0.944079 0.329078 -0.020549
vn -0.944079 0.329078 -0.020549
vn -0.944079 0.329078 -0.020549
vn -0.037141 -0.123276 0.991677
vn -0.037141 -0.123276 0.991677
vn -0.037141 -0.123276 0.991677
vn -0.037141 -0.123276 0.991677
vn 0.984949 0.010427 0.172532
vn 0.984949 0.010427 0.172532
vn 0.984949 0.010427 0.172532
vn 0.984949 0.010427 0.172532
vn 0.039676 0.478776 -0.877040
vn 0.039676 0.478776 -0.877040
vn 0.039676 0.478776 -0.877040
vn 0.039676 0.478776 -0.877040
vn -0.731843 0.671935 0.113620
vn -0.731843 0.671935 0.113620
vn -0.731843 0.671935 0.113620
vn -0.731843 0.671935 0.113620
vn 0.042935 0.301518 0.952493
vn 0.042935 0.301518 0.952493
vn 0.042935 0.301518 0.952493
vn 0.042935 0.301518 0.952493
vn 0.865314 0.409458 0.289095
vn 0.865314 0.409458 0.289095
vn 0.865314 0.409458 0.289095
vn 0.865314 0.409458 0.289095
vn 0.059312 0.797491 -0.600408
vn 0.059312 0.797491 -0.600408
vn 0.059312 0.797491 -0.600408
vn 0.059312 0.797491 -0.600408
vn -0.628963 0.092872 -0.771868
vn -0.628963 0.092872 -0.771868
vn -0.628963 0.092872 -0.771868
vn -0.628963 0.092872 -0.771868
vn -0.232241 0.936988 0.260993
vn -0.232241 0.936988 0.260993
vn -0.232241 0.936988 0.260993
vn 0.112720 0.740840 0.662156
vn 0.112720 0.740840 0.662156
vn 0.112720 0.740841 0.662155
vn 0.364750 0.867251 0.338869
vn 0.364750 0.867251 0.338869
vn 0.364750 0.867251 0.338869
vn 0.102006 0.994784 0.000366
vn 0.102006 0.994784 0.000366
vn 0.102006 0.994784 0.000366
vn -0.234287 -0.867344 -0.439117
vn -0.234287 -0.867344 -0.439117
vn -0.234287 -0.867344 -0.439117
vn -0.234287 -0.867344 -0.439117
vn -0.237320 -0.868438 -0.435311
vn -0.237320 -0.868438 -0.435311
vn -0.237320 -0.868438 -0.435311
vn -0.237320 -0.868438 -0.435311
vn -0.231385 -0.868519 -0.438332
vn -0.231385 -0.868519 -0.438332
vn -0.231385 -0.868519 -0.438332
vn -0.231385 -0.868519 -0.438332
vn -0.235415 -0.867357 -0.438488
vn -0.235415 -0.867357 -0.438488
vn -0.235415 -0.867357 -0.438488
vn -0.235415 -0.867357 -0.438488
vn -0.187215 -0.543445 0.818302
vn -0.187215 -0.543445 0.818302
vn -0.187215 -0.543445 0.818302
vn -0.187215 -0.543445 0.818302
vn -0.934542 0.342731 0.095743
vn -0.934542 0.342731 0.095743
vn -0.934542 0.342731 0.095743
vn -0.934542 0.342731 0.095743
vn 0.296299 0.515318 -0.804148
vn 0.296299 0.515318 -0.804148
vn 0.296299 0.515318 -0.804148
vn 0.296299 0.515318 -0.804148
vn 0.916323 -0.399142 -0.032204
vn 0.916323 -0.399142 -0.032204
vn 0.916323 -0.399142 -0.032204
vn 0.916323 -0.399142 -0.032204
vn -0.987982 0.142386 -0.060153
vn -0.987982 0.142386 -0.060153
vn -0.987982 0.142386 -0.060153
vn -0.987982 0.142386 -0.060153
vn 0.170855 0.300187 -0.938454
vn 0.170855 0.300187 -0.938454
vn 0.170855 0.300187 -0.938454
vn 0.170855 0.300187 -0.938454
vn 0.983017 -0.145035 0.112442
vn 0.983017 -0.145035 0.112442
vn 0.983017 -0.145035 0.112442
vn 0.983017 -0.145035 0.112442
vn -0.101463 -0.279446 0.954785
vn -0.101463 -0.279446 0.954785
vn -0.101463 -0.279446 0.954785
vn -0.101463 -0.279446 0.954785
vn -0.365954 -0.776611 0.512790
vn -0.365954 -0.776611 0.512790
vn -0.365954 -0.776611 0.512790
vn -0.365954 -0.776611 0.512790
vn 0.733600 -0.620412 -0.277344
vn 0.733600 -0.620413 -0.277343
vn 0.733600 -0.620413 -0.277343
vn 0.733600 -0.620413 -0.277343
vn 0.368795 0.695557 -0.616596
vn 0.368795 0.695557 -0.616596
vn 0.368795 0.695557 -0.616596
vn 0.368795 0.695557 -0.616596
vn -0.825810 0.521193 0.215397
vn -0.825810 0.521193 0.215397
vn -0.825810 0.521193 0.215397
vn -0.825810 0.521193 0.215397
vn -0.371565 -0.772418 0.515082
vn -0.371565 -0.772418 0.515082
vn -0.371565 -0.772418 0.515082
vn -0.371565 -0.772418 0.515082
vn 0.733249 -0.621026 -0.276898
vn 0.733249 -0.621026 -0.276898
vn 0.733249 -0.621026 -0.276898
vn 0.733249 -0.621026 -0.276898
vn 0.284184 0.751605 -0.595256
vn 0.284184 0.751605 -0.595256
vn 0.284184 0.751605 -0.595256
vn 0.284184 0.751605 -0.595256
vn -0.791249 0.591883 0.153623
vn -0.791249 0.591883 0.153623
vn -0.791249 0.591883 0.153623
vn -0.791249 0.591883 0.153623
vn -0.530336 -0.777220 0.338633
vn -0.530336 -0.777220 0.338633
vn -0.530336 -0.777220 0.338633
vn -0.530336 -0.777220 0.338633
vn -0.555798 0.640492 0.529961
vn -0.555798 0.640492 0.529961
vn -0.555798 0.640491 0.529962
vn -0.555798 0.640492 0.529961
vn 0.516065 0.792426 -0.325174
vn 0.516065 0.792426 -0.325174
vn 0.516065 0.792426 -0.325174
vn 0.516065 0.792426 -0.325174
vn 0.559992 -0.634568 -0.532666
vn 0.559991 -0.634568 -0.532666
vn 0.559991 -0.634568 -0.532666
vn 0.559991 -0.634568 -0.532666
s off
g Bush3 Bushes1 Bushes:pSphere3
usemtl StingrayPBS3SG
f 43/97/161 44/98/162 48/99/163 47/100/164
f 44/101/165 45/102/166 49/103/167 48/104/168
f 45/105/169 46/106/170 50/107/171 49/108/172
f 46/109/173 43/110/174 47/111/175 50/112/176
f 47/100/177 48/99/178 52/113/179 51/114/180
f 48/104/181 49/103/182 53/115/183 52/116/184
f 49/108/185 50/107/186 54/117/187 53/118/188
f 50/112/189 47/111/190 51/119/191 54/120/192
f 51/114/193 52/113/194 56/121/195 55/122/196
f 52/116/197 53/115/198 57/123/199 56/124/200
f 53/118/201 54/117/202 58/125/203 57/126/204
f 54/120/205 51/119/206 55/127/207 58/128/208
f 55/122/209 56/121/210 60/129/211 59/130/212
f 56/124/213 57/123/214 61/131/215 60/132/216
f 57/126/217 58/125/218 62/133/219 61/134/220
f 58/128/221 55/127/222 59/135/223 62/136/224
f 85/137/225 84/138/226 86/139/227 87/140/228
f 59/130/229 60/129/230 63/141/231
f 60/132/232 61/131/233 63/142/234
f 61/134/235 62/133/236 63/143/237
f 62/136/238 59/135/239 63/144/240
f 45/145/241 44/146/242 64/147/243 65/148/244
f 44/146/245 43/149/246 66/150/247 64/147/248
f 43/151/249 46/152/250 67/153/251 66/154/252
f 46/152/253 45/155/254 65/156/255 67/153/256
f 75/157/257 72/158/258 76/159/259 77/160/260
f 72/158/261 73/161/262 79/162/263 76/159/264
f 73/163/265 74/164/266 78/165/267 79/166/268
f 74/164/269 75/167/270 77/168/271 78/165/272
f 64/169/273 66/170/274 73/161/275 72/158/276
f 66/171/277 67/172/278 74/164/279 73/163/280
f 67/172/281 65/173/282 75/167/283 74/164/284
f 65/174/285 64/169/286 72/158/287 75/157/288
f 77/160/289 76/159/290 80/175/291 81/176/292
f 78/165/293 77/168/294 81/177/295 82/178/296
f 79/166/297 78/165/298 82/178/299 83/179/300
f 76/159/301 79/162/302 83/180/303 80/175/304
f 81/176/305 80/175/306 68/181/307 69/182/308
f 82/178/309 81/177/310 69/183/311 71/184/312
f 83/179/313 82/178/314 71/184/315 70/185/316
f 80/175/317 83/180/318 70/186/319 68/181/320
f 69/182/321 68/181/322 84/187/323 85/188/324
f 68/181/325 70/186/326 86/189/327 84/187/328
f 70/185/329 71/184/330 87/190/331 86/191/332
f 71/184/333 69/183/334 85/192/335 87/190/336
