# This file uses centimeters as units for non-parametric coordinates.

mtllib Bush1.mtl
g default
v -1.069591 0.173151 -2.424217
v -0.994835 0.184977 -2.388156
v -0.963567 0.227958 -2.459908
v -1.038323 0.219322 -2.495968
v -1.088142 0.197432 -2.398367
v -0.989238 0.214082 -2.363412
v -0.957540 0.249553 -2.457176
v -1.049167 0.238969 -2.501375
v -1.095243 0.213711 -2.382801
v -0.989870 0.231999 -2.347777
v -0.952243 0.272958 -2.455146
v -1.058046 0.260736 -2.506183
v -1.091145 0.244578 -2.379407
v -1.006573 0.261228 -2.357041
v -0.968249 0.296700 -2.444985
v -1.059876 0.286115 -2.489184
v -1.078040 0.288872 -2.402173
v -1.025139 0.294983 -2.376655
v -1.003012 0.315462 -2.427429
v -1.055913 0.309351 -2.452947
v -1.043198 0.312597 -2.411759
v -1.019966 0.204097 -2.427648
v -0.990093 0.218556 -2.450978
v -1.051578 0.182680 -2.440625
v -1.027443 0.214242 -2.468995
v -0.955109 0.130207 -2.515837
v -0.956308 0.170100 -2.527892
v -0.996174 0.131131 -2.508692
v -0.997373 0.171024 -2.520747
v -0.953930 0.136358 -2.500904
v -0.994994 0.137282 -2.493759
v -0.996193 0.177175 -2.505814
v -0.955129 0.176251 -2.512958
v -0.962920 0.152611 -2.473640
v -1.003265 0.152521 -2.471368
v -1.001206 0.187488 -2.488031
v -0.960861 0.187578 -2.490303
v -0.994130 0.186533 -2.429315
v -1.032180 0.183206 -2.442589
v -1.019729 0.202459 -2.473952
v -0.981679 0.205786 -2.460678
vt 0.436016 0.863546
vt 0.446731 0.781054
vt 0.481715 0.765443
vt 0.475093 0.870620
vt 0.817572 0.696889
vt 0.831327 0.620797
vt 0.850036 0.615093
vt 0.849701 0.706142
vt 0.307715 0.819622
vt 0.293378 0.727664
vt 0.314574 0.713051
vt 0.332146 0.825762
vt 0.828995 0.120557
vt 0.803308 0.043984
vt 0.830241 0.020743
vt 0.849282 0.123615
vt 0.504568 0.759542
vt 0.498523 0.871039
vt 0.869825 0.608513
vt 0.869046 0.713223
vt 0.338252 0.700579
vt 0.358542 0.830727
vt 0.847019 0.008130
vt 0.870187 0.127834
vt 0.535618 0.774912
vt 0.528539 0.862984
vt 0.895624 0.613679
vt 0.897216 0.702236
vt 0.372131 0.704703
vt 0.389703 0.817414
vt 0.874750 0.010585
vt 0.894972 0.116634
vt 0.573946 0.794164
vt 0.578564 0.852574
vt 0.928374 0.631810
vt 0.929294 0.682939
vt 0.417100 0.722090
vt 0.427245 0.787163
vt 0.910523 0.039138
vt 0.922819 0.090162
vt 0.238548 0.736400
vt 0.259377 0.715343
vt 0.279100 0.737537
vt 0.258459 0.751719
vt 0.607486 0.820900
vt 0.956172 0.656883
vt 0.456967 0.749202
vt 0.943953 0.058075
vt 0.582880 0.340600
vt 0.532297 0.282982
vt 0.575690 0.281563
vt 0.584389 0.315293
vt 0.582897 0.231779
vt 0.593248 0.251716
vt 0.008103 0.250742
vt 0.061247 0.309245
vt 0.035570 0.309668
vt 0.015423 0.272288
vt 0.010776 0.361404
vt 0.010353 0.335727
vt 0.125575 0.906958
vt 0.102222 0.880488
vt 0.108860 0.869027
vt 0.134771 0.895978
vt 0.067446 0.873498
vt 0.072452 0.860046
vt 0.283488 0.748626
vt 0.258216 0.761413
vt 0.233549 0.747151
vt 0.087043 0.901857
vt 0.053059 0.895136
vt 0.284698 0.767693
vt 0.259147 0.775860
vt 0.232757 0.764684
vt 0.110009 0.924403
vt 0.055707 0.939932
vt 0.024659 0.932845
vt 0.288173 0.800498
vt 0.262327 0.794937
vt 0.236626 0.789395
vt 0.085339 0.950951
vt 0.037376 0.955840
vt 0.008103 0.934335
vt 0.293042 0.812650
vt 0.261915 0.805025
vt 0.235921 0.801086
vt 0.074512 0.964345
vn -0.169337 -0.699287 0.694495
vn -0.169337 -0.699287 0.694495
vn -0.169337 -0.699287 0.694495
vn -0.169337 -0.699287 0.694495
vn 0.925778 -0.320730 0.200166
vn 0.925779 -0.320729 0.200166
vn 0.925778 -0.320730 0.200166
vn 0.925778 -0.320730 0.200166
vn 0.435169 -0.007588 -0.900317
vn 0.435169 -0.007588 -0.900317
vn 0.435169 -0.007588 -0.900317
vn 0.435169 -0.007588 -0.900317
vn -0.813667 -0.318002 -0.486642
vn -0.813667 -0.318002 -0.486642
vn -0.813667 -0.318002 -0.486642
vn -0.813667 -0.318002 -0.486642
vn -0.128914 -0.684138 0.717870
vn -0.128914 -0.684138 0.717870
vn -0.128914 -0.684138 0.717870
vn -0.128914 -0.684138 0.717870
vn 0.945966 -0.211753 0.245580
vn 0.945966 -0.211753 0.245580
vn 0.945966 -0.211753 0.245580
vn 0.945966 -0.211753 0.245580
vn 0.436319 -0.020715 -0.899554
vn 0.436319 -0.020715 -0.899554
vn 0.436319 -0.020715 -0.899554
vn 0.436319 -0.020715 -0.899554
vn -0.880839 -0.257653 -0.397162
vn -0.880839 -0.257653 -0.397162
vn -0.880839 -0.257653 -0.397162
vn -0.880839 -0.257653 -0.397162
vn -0.294398 0.031556 0.955162
vn -0.294398 0.031556 0.955162
vn -0.294398 0.031556 0.955162
vn -0.294398 0.031556 0.955162
vn 0.753649 0.457367 0.472048
vn 0.753649 0.457367 0.472048
vn 0.753649 0.457367 0.472048
vn 0.753649 0.457367 0.472048
vn 0.312728 0.544052 -0.778594
vn 0.312728 0.544052 -0.778594
vn 0.312728 0.544052 -0.778594
vn 0.312728 0.544052 -0.778594
vn -0.963816 0.124345 -0.235791
vn -0.963816 0.124345 -0.235792
vn -0.963816 0.124345 -0.235792
vn -0.963816 0.124345 -0.235792
vn -0.359691 0.425691 0.830307
vn -0.359691 0.425691 0.830307
vn -0.359691 0.425691 0.830307
vn -0.359691 0.425691 0.830307
vn 0.593557 0.622709 0.509828
vn 0.593557 0.622709 0.509828
vn 0.593557 0.622709 0.509828
vn 0.593557 0.622709 0.509828
vn 0.168043 0.821379 -0.545067
vn 0.168043 0.821379 -0.545067
vn 0.168043 0.821379 -0.545067
vn 0.168043 0.821379 -0.545067
vn -0.938498 0.278049 -0.204719
vn -0.938498 0.278049 -0.204719
vn -0.938498 0.278049 -0.204719
vn -0.938498 0.278049 -0.204719
vn -0.170380 -0.289723 -0.941823
vn -0.170380 -0.289723 -0.941823
vn -0.170380 -0.289723 -0.941823
vn -0.170380 -0.289723 -0.941823
vn -0.356130 0.748830 0.558951
vn -0.356130 0.748830 0.558951
vn -0.356130 0.748829 0.558951
vn 0.094090 0.908392 0.407396
vn 0.094090 0.908392 0.407396
vn 0.094090 0.908392 0.407396
vn -0.090578 0.994613 -0.050415
vn -0.090578 0.994613 -0.050415
vn -0.090578 0.994613 -0.050415
vn -0.540798 0.835050 0.101140
vn -0.540798 0.835050 0.101140
vn -0.540798 0.835050 0.101140
vn 0.107922 -0.880133 -0.462297
vn 0.107922 -0.880133 -0.462297
vn 0.107922 -0.880133 -0.462297
vn 0.107922 -0.880133 -0.462297
vn 0.449259 -0.770552 -0.452124
vn 0.449259 -0.770552 -0.452124
vn 0.449259 -0.770552 -0.452124
vn 0.449259 -0.770552 -0.452124
vn 0.301093 -0.826729 -0.475249
vn 0.301093 -0.826729 -0.475249
vn 0.301093 -0.826729 -0.475249
vn 0.301093 -0.826729 -0.475249
vn 0.238852 -0.932209 -0.271911
vn 0.238852 -0.932209 -0.271911
vn 0.238852 -0.932209 -0.271911
vn 0.238852 -0.932209 -0.271911
vn 0.996700 0.005489 -0.080985
vn 0.996700 0.005489 -0.080985
vn 0.996700 0.005489 -0.080985
vn 0.996700 0.005489 -0.080985
vn 0.044841 -0.924951 0.377431
vn 0.044842 -0.924951 0.377431
vn 0.044841 -0.924951 0.377431
vn 0.044842 -0.924951 0.377431
vn -0.996700 -0.005489 0.080985
vn -0.996700 -0.005489 0.080985
vn -0.996700 -0.005489 0.080985
vn -0.996700 -0.005489 0.080985
vn -0.044842 0.924951 -0.377431
vn -0.044842 0.924951 -0.377431
vn -0.044842 0.924951 -0.377431
vn -0.044842 0.924951 -0.377431
vn 0.054865 -0.834474 0.548309
vn 0.054865 -0.834474 0.548309
vn 0.054865 -0.834474 0.548309
vn 0.054865 -0.834474 0.548309
vn -0.961181 -0.089138 -0.261122
vn -0.961181 -0.089138 -0.261122
vn -0.961181 -0.089138 -0.261122
vn -0.961181 -0.089138 -0.261122
vn -0.046651 0.875522 -0.480920
vn -0.046651 0.875522 -0.480920
vn -0.046651 0.875522 -0.480920
vn -0.046651 0.875522 -0.480920
vn 0.967266 0.081135 0.240443
vn 0.967266 0.081135 0.240443
vn 0.967266 0.081135 0.240443
vn 0.967266 0.081135 0.240443
vn -0.055559 -0.770389 0.635148
vn -0.055559 -0.770389 0.635148
vn -0.055559 -0.770389 0.635148
vn -0.055559 -0.770389 0.635148
vn -0.779118 -0.285730 -0.557973
vn -0.779117 -0.285730 -0.557974
vn -0.779118 -0.285730 -0.557973
vn -0.779118 -0.285730 -0.557973
vn 0.045555 0.814970 -0.577710
vn 0.045555 0.814970 -0.577710
vn 0.045555 0.814970 -0.577710
vn 0.045555 0.814970 -0.577710
vn 0.860790 0.188427 0.472795
vn 0.860790 0.188427 0.472795
vn 0.860790 0.188427 0.472795
vn 0.860790 0.188427 0.472795
vn -0.130336 -0.525201 0.840938
vn -0.130336 -0.525201 0.840938
vn -0.130336 -0.525201 0.840938
vn -0.130336 -0.525201 0.840938
vn -0.414025 -0.552380 -0.723505
vn -0.414025 -0.552380 -0.723505
vn -0.414025 -0.552381 -0.723505
vn -0.414025 -0.552381 -0.723505
vn 0.249460 0.611912 -0.750555
vn 0.249460 0.611912 -0.750555
vn 0.249460 0.611912 -0.750555
vn 0.249460 0.611912 -0.750555
vn 0.588204 0.400954 0.702319
vn 0.588204 0.400954 0.702319
vn 0.588204 0.400954 0.702319
vn 0.588204 0.400954 0.702319
s off
g Bushes:pSphere6 Bush1 Bushes1
usemtl StingrayPBS3SG
f 1/1/1 2/2/2 6/3/3 5/4/4
f 2/5/5 3/6/6 7/7/7 6/8/8
f 3/9/9 4/10/10 8/11/11 7/12/12
f 4/13/13 1/14/14 5/15/15 8/16/16
f 5/4/17 6/3/18 10/17/19 9/18/20
f 6/8/21 7/7/22 11/19/23 10/20/24
f 7/12/25 8/11/26 12/21/27 11/22/28
f 8/16/29 5/15/30 9/23/31 12/24/32
f 9/18/33 10/17/34 14/25/35 13/26/36
f 10/20/37 11/19/38 15/27/39 14/28/40
f 11/22/41 12/21/42 16/29/43 15/30/44
f 12/24/45 9/23/46 13/31/47 16/32/48
f 13/26/49 14/25/50 18/33/51 17/34/52
f 14/28/53 15/27/54 19/35/55 18/36/56
f 15/30/57 16/29/58 20/37/59 19/38/60
f 16/32/61 13/31/62 17/39/63 20/40/64
f 27/41/65 26/42/66 28/43/67 29/44/68
f 17/34/69 18/33/70 21/45/71
f 18/36/72 19/35/73 21/46/74
f 19/38/75 20/37/76 21/47/77
f 20/40/78 17/39/79 21/48/80
f 3/49/81 2/50/82 22/51/83 23/52/84
f 2/50/85 1/53/86 24/54/87 22/51/88
f 1/55/89 4/56/90 25/57/91 24/58/92
f 4/56/93 3/59/94 23/60/95 25/57/96
f 33/61/97 30/62/98 26/63/99 27/64/100
f 30/62/101 31/65/102 28/66/103 26/63/104
f 31/67/105 32/68/106 29/44/107 28/43/108
f 32/68/109 33/69/110 27/41/111 29/44/112
f 34/70/113 35/71/114 31/65/115 30/62/116
f 35/72/117 36/73/118 32/68/119 31/67/120
f 36/73/121 37/74/122 33/69/123 32/68/124
f 37/75/125 34/70/126 30/62/127 33/61/128
f 38/76/129 39/77/130 35/71/131 34/70/132
f 39/78/133 40/79/134 36/73/135 35/72/136
f 40/79/137 41/80/138 37/74/139 36/73/140
f 41/81/141 38/76/142 34/70/143 37/75/144
f 22/82/145 24/83/146 39/77/147 38/76/148
f 24/84/149 25/85/150 40/79/151 39/78/152
f 25/85/153 23/86/154 41/80/155 40/79/156
f 23/87/157 22/82/158 38/76/159 41/81/160
g default
v -0.989170 0.138238 -2.617181
v -1.008228 0.172745 -2.529164
v -0.891722 0.138238 -2.531581
v -0.904345 0.103731 -2.647426
v -0.995900 0.199513 -2.658851
v -1.016647 0.226011 -2.519580
v -0.856390 0.199513 -2.542416
v -0.874893 0.157218 -2.680955
v -1.006454 0.239412 -2.671527
v -1.007644 0.253877 -2.529829
v -0.842193 0.240781 -2.533888
v -0.863355 0.206371 -2.694089
v -0.990510 0.285578 -2.664987
v -1.002276 0.296920 -2.535940
v -0.854031 0.285578 -2.545101
v -0.864056 0.274236 -2.693291
v -0.965780 0.329843 -2.649645
v -0.969903 0.336385 -2.572794
v -0.884314 0.329837 -2.578083
v -0.890102 0.323289 -2.663640
v -0.928845 0.346037 -2.619535
vt 0.302845 0.826514
vt 0.297414 0.893526
vt 0.263699 0.911452
vt 0.253005 0.812141
vt 0.743812 0.202528
vt 0.823452 0.185183
vt 0.845082 0.228023
vt 0.735555 0.238323
vt 0.191016 0.183801
vt 0.261770 0.239694
vt 0.238359 0.285769
vt 0.152227 0.220049
vt 0.008103 0.833114
vt 0.016956 0.765379
vt 0.069446 0.760629
vt 0.053912 0.851447
vt 0.242160 0.909485
vt 0.222907 0.812071
vt 0.852624 0.256876
vt 0.741290 0.258325
vt 0.213016 0.315023
vt 0.121898 0.233032
vt 0.098334 0.750595
vt 0.090635 0.855560
vt 0.212031 0.914466
vt 0.191561 0.826126
vt 0.842921 0.287341
vt 0.743019 0.287652
vt 0.171973 0.344199
vt 0.099713 0.260578
vt 0.132852 0.755767
vt 0.138073 0.847756
vt 0.171304 0.898107
vt 0.160086 0.845443
vt 0.821923 0.323973
vt 0.764244 0.324153
vt 0.126095 0.352977
vt 0.084376 0.304698
vt 0.169056 0.765632
vt 0.173128 0.820191
vt 0.136477 0.871398
vt 0.793180 0.354903
vt 0.079422 0.351144
vt 0.199479 0.784215
vt 0.856798 0.832637
vt 0.891075 0.765335
vt 0.958378 0.832637
vt 0.891075 0.899939
vn -0.978088 -0.164947 -0.127025
vn -0.978088 -0.164947 -0.127025
vn -0.978088 -0.164947 -0.127025
vn -0.978088 -0.164947 -0.127025
vn 0.088681 -0.009963 0.996010
vn 0.088681 -0.009963 0.996010
vn 0.088681 -0.009963 0.996010
vn 0.088681 -0.009963 0.996010
vn 0.876381 -0.480139 0.037729
vn 0.876381 -0.480139 0.037729
vn 0.876381 -0.480139 0.037729
vn 0.876381 -0.480139 0.037729
vn -0.375158 -0.454936 -0.807645
vn -0.375158 -0.454936 -0.807645
vn -0.375158 -0.454936 -0.807645
vn -0.375158 -0.454936 -0.807645
vn -0.996379 -0.046811 -0.070974
vn -0.996379 -0.046811 -0.070974
vn -0.996379 -0.046811 -0.070974
vn -0.996379 -0.046811 -0.070974
vn 0.081967 -0.002699 0.996631
vn 0.081967 -0.002699 0.996631
vn 0.081967 -0.002699 0.996631
vn 0.081967 -0.002699 0.996631
vn 0.959504 -0.275963 -0.056542
vn 0.959504 -0.275963 -0.056542
vn 0.959504 -0.275963 -0.056542
vn 0.959504 -0.275963 -0.056542
vn -0.234533 -0.268220 -0.934373
vn -0.234533 -0.268220 -0.934373
vn -0.234533 -0.268220 -0.934373
vn -0.234533 -0.268220 -0.934373
vn -0.970265 0.232131 -0.068562
vn -0.970265 0.232131 -0.068562
vn -0.970265 0.232131 -0.068561
vn -0.970265 0.232131 -0.068561
vn 0.056609 0.197209 0.978726
vn 0.056609 0.197209 0.978726
vn 0.056609 0.197209 0.978726
vn 0.056609 0.197209 0.978726
vn 0.988413 0.099406 -0.114707
vn 0.988413 0.099406 -0.114707
vn 0.988413 0.099406 -0.114707
vn 0.988413 0.099406 -0.114707
vn -0.171050 0.086026 -0.981500
vn -0.171050 0.086026 -0.981500
vn -0.171050 0.086026 -0.981500
vn -0.171050 0.086026 -0.981500
vn -0.834113 0.540249 -0.111295
vn -0.834113 0.540249 -0.111295
vn -0.834113 0.540249 -0.111295
vn -0.834113 0.540249 -0.111295
vn 0.095982 0.636162 0.765562
vn 0.095982 0.636162 0.765562
vn 0.095982 0.636162 0.765562
vn 0.095982 0.636162 0.765562
vn 0.853605 0.511824 -0.096923
vn 0.853605 0.511824 -0.096923
vn 0.853605 0.511824 -0.096923
vn 0.853605 0.511824 -0.096923
vn -0.148702 0.427768 -0.891573
vn -0.148702 0.427768 -0.891573
vn -0.148702 0.427768 -0.891573
vn -0.148702 0.427768 -0.891573
vn -0.331756 0.938295 -0.097672
vn -0.331756 0.938295 -0.097672
vn -0.331756 0.938295 -0.097672
vn 0.090302 0.956657 0.276864
vn 0.090302 0.956657 0.276864
vn 0.090302 0.956657 0.276864
vn 0.419101 0.902695 -0.097444
vn 0.419101 0.902695 -0.097444
vn 0.419101 0.902695 -0.097444
vn -0.009274 0.885368 -0.464799
vn -0.009274 0.885368 -0.464799
vn -0.009274 0.885368 -0.464799
vn -0.265000 -0.915842 0.301678
vn -0.265000 -0.915842 0.301678
vn -0.265000 -0.915842 0.301678
vn -0.265000 -0.915842 0.301678
s off
g Bush1 Bushes1 Bushes:pSphere7
usemtl StingrayPBS3SG
f 42/88/161 43/89/162 47/90/163 46/91/164
f 43/92/165 44/93/166 48/94/167 47/95/168
f 44/96/169 45/97/170 49/98/171 48/99/172
f 45/100/173 42/101/174 46/102/175 49/103/176
f 46/91/177 47/90/178 51/104/179 50/105/180
f 47/95/181 48/94/182 52/106/183 51/107/184
f 48/99/185 49/98/186 53/108/187 52/109/188
f 49/103/189 46/102/190 50/110/191 53/111/192
f 50/105/193 51/104/194 55/112/195 54/113/196
f 51/107/197 52/106/198 56/114/199 55/115/200
f 52/109/201 53/108/202 57/116/203 56/117/204
f 53/111/205 50/110/206 54/118/207 57/119/208
f 54/113/209 55/112/210 59/120/211 58/121/212
f 55/115/213 56/114/214 60/122/215 59/123/216
f 56/117/217 57/116/218 61/124/219 60/125/220
f 57/119/221 54/118/222 58/126/223 61/127/224
f 58/121/225 59/120/226 62/128/227
f 59/123/228 60/122/229 62/129/230
f 60/125/231 61/124/232 62/130/233
f 61/127/234 58/126/235 62/131/236
f 42/132/237 45/133/238 44/134/239 43/135/240
g default
v -1.033055 0.050745 -2.606301
v -1.030641 0.065692 -2.501498
v -0.925442 0.020803 -2.523473
v -0.917212 0.065692 -2.630627
v -1.043409 0.091744 -2.623900
v -1.043441 0.091744 -2.486927
v -0.879877 0.067204 -2.483448
v -0.888221 0.091744 -2.663630
v -1.054066 0.115649 -2.636459
v -1.054195 0.115649 -2.474685
v -0.867635 0.091109 -2.472694
v -0.877467 0.115649 -2.675873
v -1.041824 0.146858 -2.625705
v -1.043441 0.146858 -2.486927
v -0.894791 0.146858 -2.496549
v -0.888221 0.146858 -2.663630
v -1.019615 0.191376 -2.606197
v -1.014061 0.191376 -2.520374
v -0.928238 0.191376 -2.525929
v -0.933793 0.191376 -2.611751
v -0.973927 0.207671 -2.566063
v -1.002262 0.065692 -2.533805
v -0.941669 0.065692 -2.537727
v -1.006184 0.065692 -2.594398
v -0.945591 0.065692 -2.598320
v -1.002262 0.001530 -2.533805
v -0.941669 0.001530 -2.537727
v -1.006184 0.001530 -2.594398
v -0.945591 0.001530 -2.598320
vt 0.549750 0.957428
vt 0.539428 0.888646
vt 0.555170 0.874249
vt 0.579642 0.960825
vt 0.319955 0.697989
vt 0.232757 0.658112
vt 0.246492 0.596765
vt 0.345544 0.690236
vt 0.008103 0.135918
vt 0.068825 0.037828
vt 0.114091 0.015242
vt 0.062842 0.188117
vt 0.329038 0.895575
vt 0.379680 0.830982
vt 0.405031 0.849696
vt 0.330295 0.930688
vt 0.569550 0.861826
vt 0.598429 0.964085
vt 0.256807 0.575297
vt 0.368217 0.682942
vt 0.141850 0.008130
vt 0.087003 0.203527
vt 0.422612 0.859170
vt 0.336917 0.949457
vt 0.592601 0.863678
vt 0.617707 0.951312
vt 0.309701 0.561364
vt 0.384208 0.658768
vt 0.172509 0.024750
vt 0.151190 0.188998
vt 0.434985 0.879992
vt 0.359444 0.958354
vt 0.632257 0.875401
vt 0.645783 0.930247
vt 0.361099 0.554676
vt 0.404115 0.610913
vt 0.226809 0.085364
vt 0.210232 0.168923
vt 0.452629 0.912244
vt 0.415964 0.958680
vt 0.957438 0.372527
vt 0.928117 0.343205
vt 0.957438 0.313884
vt 0.986760 0.343205
vt 0.668346 0.895592
vt 0.412676 0.559794
vt 0.263199 0.136007
vt 0.459126 0.955067
vt 0.746653 0.924958
vt 0.701514 0.977346
vt 0.700756 0.951826
vt 0.717510 0.919903
vt 0.657105 0.932841
vt 0.675488 0.926110
vt 0.485939 0.359328
vt 0.524685 0.300652
vt 0.526455 0.325932
vt 0.504727 0.354366
vt 0.574437 0.347939
vt 0.546153 0.355808
vt 0.768069 0.674716
vt 0.753595 0.645377
vt 0.784597 0.630083
vt 0.799071 0.659421
vt 0.739121 0.616039
vt 0.770123 0.600745
vt 0.982662 0.854741
vt 0.985590 0.889487
vt 0.948874 0.892581
vt 0.945946 0.857834
vt 0.988517 0.924233
vt 0.951801 0.927327
vn -0.945230 -0.325077 0.029411
vn -0.945230 -0.325077 0.029411
vn -0.945230 -0.325077 0.029411
vn -0.945230 -0.325077 0.029411
vn -0.091811 -0.572453 0.814781
vn -0.091811 -0.572453 0.814781
vn -0.091811 -0.572453 0.814781
vn -0.091811 -0.572453 0.814781
vn 0.695027 -0.698808 -0.169129
vn 0.695027 -0.698808 -0.169129
vn 0.695027 -0.698808 -0.169129
vn 0.695027 -0.698808 -0.169129
vn -0.159939 -0.565934 -0.808788
vn -0.159939 -0.565934 -0.808788
vn -0.159939 -0.565934 -0.808788
vn -0.159939 -0.565934 -0.808788
vn -0.912658 -0.408723 -0.000488
vn -0.912658 -0.408723 -0.000488
vn -0.912658 -0.408723 -0.000488
vn -0.912658 -0.408723 -0.000488
vn -0.074384 -0.430375 0.899580
vn -0.074384 -0.430375 0.899580
vn -0.074384 -0.430375 0.899580
vn -0.074384 -0.430375 0.899580
vn 0.895640 -0.433847 -0.098010
vn 0.895640 -0.433847 -0.098010
vn 0.895640 -0.433847 -0.098010
vn 0.895640 -0.433847 -0.098010
vn -0.207189 -0.450148 -0.868585
vn -0.207189 -0.450148 -0.868585
vn -0.207189 -0.450148 -0.868585
vn -0.207189 -0.450148 -0.868585
vn -0.938373 0.345581 -0.005448
vn -0.938373 0.345581 -0.005448
vn -0.938373 0.345581 -0.005448
vn -0.938373 0.345581 -0.005448
vn 0.049537 0.390869 0.919112
vn 0.049537 0.390869 0.919112
vn 0.049537 0.390869 0.919112
vn 0.049537 0.390869 0.919112
vn 0.915609 0.401641 0.018551
vn 0.915609 0.401641 0.018551
vn 0.915609 0.401641 0.018551
vn 0.915609 0.401641 0.018551
vn -0.214280 0.342166 -0.914881
vn -0.214280 0.342166 -0.914881
vn -0.214280 0.342166 -0.914881
vn -0.214280 0.342166 -0.914881
vn -0.864122 0.503055 0.015152
vn -0.864122 0.503055 0.015152
vn -0.864122 0.503055 0.015152
vn -0.864122 0.503055 0.015152
vn 0.052737 0.577350 0.814792
vn 0.052737 0.577350 0.814792
vn 0.052737 0.577350 0.814792
vn 0.052737 0.577350 0.814792
vn 0.748306 0.663347 0.003004
vn 0.748306 0.663347 0.003004
vn 0.748306 0.663347 0.003004
vn 0.748306 0.663347 0.003004
vn -0.143493 0.595875 -0.790154
vn -0.143493 0.595875 -0.790154
vn -0.143493 0.595875 -0.790154
vn -0.143493 0.595875 -0.790154
vn 0.000000 -1.000000 0.000000
vn 0.000000 -1.000000 0.000000
vn 0.000000 -1.000000 0.000000
vn 0.000000 -1.000000 0.000000
vn -0.353610 0.935113 0.022887
vn -0.353610 0.935113 0.022887
vn -0.353610 0.935113 0.022887
vn 0.022887 0.935113 0.353610
vn 0.022887 0.935113 0.353610
vn 0.022887 0.935113 0.353610
vn 0.353610 0.935113 -0.022887
vn 0.353610 0.935113 -0.022887
vn 0.353610 0.935113 -0.022887
vn -0.022887 0.935113 -0.353610
vn -0.022887 0.935113 -0.353610
vn -0.022887 0.935113 -0.353610
vn -0.286137 -0.651404 -0.702708
vn -0.286137 -0.651404 -0.702708
vn -0.286137 -0.651404 -0.702708
vn -0.286137 -0.651404 -0.702708
vn 0.286253 -0.955186 0.075360
vn 0.286253 -0.955186 0.075360
vn 0.286253 -0.955186 0.075360
vn 0.286253 -0.955186 0.075360
vn 0.130931 -0.937798 0.321545
vn 0.130931 -0.937798 0.321545
vn 0.130931 -0.937798 0.321545
vn 0.130931 -0.937798 0.321545
vn -0.733730 -0.651404 -0.193164
vn -0.733730 -0.651404 -0.193164
vn -0.733730 -0.651404 -0.193164
vn -0.733730 -0.651404 -0.193164
vn 0.064590 0.000000 0.997912
vn 0.064590 0.000000 0.997912
vn 0.064590 0.000000 0.997912
vn 0.064590 0.000000 0.997912
vn -0.997912 0.000000 0.064590
vn -0.997912 0.000000 0.064590
vn -0.997912 0.000000 0.064590
vn -0.997912 0.000000 0.064590
vn -0.064590 0.000000 -0.997912
vn -0.064590 0.000000 -0.997912
vn -0.064590 0.000000 -0.997912
vn -0.064590 0.000000 -0.997912
vn 0.997912 -0.000000 -0.064590
vn 0.997912 -0.000000 -0.064590
vn 0.997912 -0.000000 -0.064590
vn 0.997912 -0.000000 -0.064590
s off
g Bush1 Bushes1 Bushes:pSphere5
usemtl StingrayPBS3SG
f 63/136/241 64/137/242 68/138/243 67/139/244
f 64/140/245 65/141/246 69/142/247 68/143/248
f 65/144/249 66/145/250 70/146/251 69/147/252
f 66/148/253 63/149/254 67/150/255 70/151/256
f 67/139/257 68/138/258 72/152/259 71/153/260
f 68/143/261 69/142/262 73/154/263 72/155/264
f 69/147/265 70/146/266 74/156/267 73/157/268
f 70/151/269 67/150/270 71/158/271 74/159/272
f 71/153/273 72/152/274 76/160/275 75/161/276
f 72/155/277 73/154/278 77/162/279 76/163/280
f 73/157/281 74/156/282 78/164/283 77/165/284
f 74/159/285 71/158/286 75/166/287 78/167/288
f 75/161/289 76/160/290 80/168/291 79/169/292
f 76/163/293 77/162/294 81/170/295 80/171/296
f 77/165/297 78/164/298 82/172/299 81/173/300
f 78/167/301 75/166/302 79/174/303 82/175/304
f 89/176/305 88/177/306 90/178/307 91/179/308
f 79/169/309 80/168/310 83/180/311
f 80/171/312 81/170/313 83/181/314
f 81/173/315 82/172/316 83/182/317
f 82/175/318 79/174/319 83/183/320
f 65/184/321 64/185/322 84/186/323 85/187/324
f 64/185/325 63/188/326 86/189/327 84/186/328
f 63/190/329 66/191/330 87/192/331 86/193/332
f 66/191/333 65/194/334 85/195/335 87/192/336
f 85/196/337 84/197/338 88/198/339 89/199/340
f 84/197/341 86/200/342 90/201/343 88/198/344
f 86/202/345 87/203/346 91/204/347 90/205/348
f 87/203/349 85/206/350 89/207/351 91/204/352
