# This file uses centimeters as units for non-parametric coordinates.

mtllib Rock2.mtl
g rock_low:default1
v -0.980955 0.000000 -0.396744
v -0.830262 0.000000 -0.282549
v -0.580262 0.000000 -0.282549
v -0.373502 0.000000 -0.319902
v -0.258996 0.000000 -0.434249
v -1.080262 0.000000 -0.532549
v -0.192367 0.000000 -0.645042
v -1.080262 0.000000 -0.782549
v -0.080262 0.000000 -0.782549
v -1.024675 0.000000 -0.951796
v -0.080262 0.000000 -1.032549
v -1.003109 0.000000 -1.114795
v -0.699162 0.000000 -1.208821
v -0.449162 0.000000 -1.208821
v -0.224457 0.000000 -1.149203
v -0.937711 0.142848 -0.439256
v -0.810096 0.142848 -0.342549
v -0.830262 0.142848 -0.532549
v -1.020262 0.142848 -0.552146
v -0.585638 0.142848 -0.342549
v -0.580262 0.142848 -0.532549
v -0.402627 0.090000 -0.375612
v -0.395464 0.090000 -0.536515
v -0.311781 0.090000 -0.466331
v -0.246119 0.090000 -0.674063
v -1.020262 0.090000 -0.772948
v -0.140262 0.090000 -0.803907
v -0.965927 0.090000 -0.938385
v -0.140262 0.090000 -1.003913
v -0.947440 0.090000 -1.078112
v -0.698389 0.090000 -1.148821
v -0.456986 0.137982 -1.148821
v -0.252231 0.137982 -1.094496
v -0.960262 0.250000 -0.606276
v -0.827176 0.250000 -0.592549
v -0.830262 0.250000 -0.782549
v -0.960262 0.250000 -0.763347
v -0.580906 0.250000 -0.592549
v -0.580262 0.250000 -0.782549
v -0.419428 0.297982 -0.596014
v -0.330262 0.326629 -0.782549
v -0.289917 0.297982 -0.715296
v -0.200262 0.326629 -0.825266
v -0.907178 0.250000 -0.924973
v -0.330262 0.326629 -0.973614
v -0.200262 0.326629 -0.975277
v -0.891770 0.250000 -1.041428
v -0.697615 0.250000 -1.088821
v -0.464811 0.326629 -1.088821
v -0.280005 0.326629 -1.039789
v -0.872953 0.379564 -0.836894
v -0.834670 0.379564 -0.842549
v -0.776432 0.379564 -0.952936
v -0.848430 0.379564 -0.911562
v -0.580262 0.379564 -0.842549
v -0.580262 0.379564 -0.959726
v -0.390262 0.379564 -0.842549
v -0.390262 0.379564 -0.945999
v -0.836101 0.379564 -1.004745
v -0.696841 0.379564 -1.028821
v -0.486989 0.379564 -1.028821
vt 0.777034 0.542976
vt 0.725018 0.498481
vt 0.806215 0.489600
vt 0.831705 0.567175
vt 0.704575 0.404729
vt 0.783446 0.385178
vt 0.700943 0.322157
vt 0.767509 0.304553
vt 0.730591 0.275969
vt 0.811407 0.229674
vt 0.552185 0.358443
vt 0.513067 0.316725
vt 0.578498 0.268594
vt 0.605616 0.317787
vt 0.449322 0.232951
vt 0.513788 0.183552
vt 0.406889 0.174757
vt 0.446095 0.094613
vt 0.410755 0.099594
vt 0.426084 0.039650
vt 0.427404 0.859804
vt 0.443554 0.863395
vt 0.464985 0.912257
vt 0.435561 0.892397
vt 0.552030 0.871232
vt 0.548420 0.921196
vt 0.633044 0.877086
vt 0.629857 0.921196
vt 0.476478 0.000000
vt 0.510280 0.044111
vt 0.437947 0.932509
vt 0.496584 0.947065
vt 0.586062 0.953530
vt 0.519226 0.009737
vt 0.584545 0.058859
vt 0.878487 0.068762
vt 0.893104 0.148201
vt 0.826448 0.151706
vt 0.814070 0.084432
vt 0.857570 0.000000
vt 0.796682 0.027273
vt 0.884899 0.254686
vt 0.819082 0.247312
vt 0.872740 0.343617
vt 0.828043 0.329418
vt 0.926613 0.321213
vt 0.994342 0.307121
vt 0.997616 0.353671
vt 0.943882 0.364851
vt 0.728297 0.737021
vt 0.822602 0.743129
vt 0.824507 0.789587
vt 0.731571 0.783568
vt 0.742178 0.150156
vt 0.758108 0.255482
vt 0.691645 0.257785
vt 0.696836 0.160655
vt 0.897627 0.732047
vt 0.895351 0.779123
vt 0.719647 0.077770
vt 0.675039 0.089472
vt 0.796682 0.345845
vt 0.903557 0.345718
vt 0.891370 0.391974
vt 0.805868 0.392076
vt 0.705074 0.009002
vt 0.662433 0.030703
vt 0.277339 0.168662
vt 0.365523 0.271767
vt 0.320102 0.286711
vt 0.246883 0.203451
vt 0.197837 0.098345
vt 0.156928 0.147751
vt 0.050710 0.000000
vt 0.119427 0.038617
vt 0.084263 0.092912
vt 0.038985 0.046271
vt 0.003549 0.727627
vt 0.083086 0.745349
vt 0.070407 0.796200
vt 0.014695 0.783787
vt 0.636423 0.243201
vt 0.625336 0.177284
vt 0.185891 0.773744
vt 0.171678 0.824171
vt 0.267905 0.774265
vt 0.233661 0.860572
vt 0.739216 0.805655
vt 0.839838 0.880858
vt 0.765874 0.894792
vt 0.901649 0.883685
vt 0.604485 0.107611
vt 0.879252 0.496348
vt 0.815123 0.496424
vt 0.593714 0.058515
vt 0.254490 0.320032
vt 0.197207 0.257032
vt 0.102744 0.212885
vt 0.038111 0.163939
vt 0.000000 0.142898
vt 0.011547 0.192432
vt 0.053749 0.229315
vt 0.015090 0.276406
vt 0.002662 0.265544
vt 0.554993 0.154996
vt 0.545350 0.122857
vt 0.138210 0.294398
vt 0.101040 0.342636
vt 0.206760 0.382366
vt 0.165230 0.392099
vt 0.360281 0.282538
vt 0.327480 0.357346
vt 0.300893 0.332797
vt 0.318653 0.292293
vt 0.536820 0.083634
vt 0.198026 0.345644
vt 0.156339 0.302344
vt 0.997735 0.281117
vt 0.931027 0.316948
vt 0.923194 0.282328
vt 0.971150 0.256570
vt 0.087988 0.245083
vn 0.000000 1.000000 0.000000
vn 0.000000 1.000000 0.000000
vn 0.000000 1.000000 0.000000
vn 0.000000 1.000000 0.000000
vn 0.000000 1.000000 0.000000
vn 0.108830 0.994053 0.003889
vn 0.122527 0.992456 0.004378
vn 0.000000 1.000000 0.000000
vn 0.108830 0.994053 0.003889
vn 0.227872 0.973657 0.008143
vn 0.151993 0.988367 0.005431
vn 0.122527 0.992456 0.004378
vn 0.227872 0.973657 0.008143
vn 0.000000 1.000000 0.000000
vn 0.000000 1.000000 0.000000
vn 0.151993 0.988367 0.005431
vn 0.000000 1.000000 0.000000
vn 0.000000 1.000000 0.000000
vn 0.000000 1.000000 0.000000
vn 0.000000 1.000000 0.000000
vn 0.000000 1.000000 0.000000
vn -0.133899 0.990993 0.001705
vn -0.135477 0.990779 0.001725
vn 0.000000 1.000000 0.000000
vn -0.133899 0.990993 0.001705
vn -0.264491 0.964167 0.020654
vn -0.076146 0.993127 0.088882
vn -0.135477 0.990779 0.001725
vn -0.264491 0.964167 0.020654
vn 0.181706 0.939284 0.291081
vn 0.028318 0.998569 0.045364
vn -0.076146 0.993127 0.088882
vn 0.000000 1.000000 0.000000
vn 0.000000 1.000000 0.000000
vn 0.000000 1.000000 0.000000
vn 0.000000 1.000000 0.000000
vn 0.000000 1.000000 0.000000
vn 0.000000 1.000000 0.000000
vn 0.000000 1.000000 0.000000
vn 0.000000 1.000000 0.000000
vn 0.000000 1.000000 0.000000
vn 0.000000 1.000000 0.000000
vn 0.000000 1.000000 0.000000
vn 0.000000 1.000000 0.000000
vn -0.076146 0.993127 0.088882
vn 0.028318 0.998569 0.045364
vn 0.000000 1.000000 0.000000
vn 0.000000 1.000000 0.000000
vn 0.000000 1.000000 0.000000
vn 0.000000 1.000000 0.000000
vn 0.000000 1.000000 0.000000
vn 0.000000 1.000000 0.000000
vn 0.000000 1.000000 0.000000
vn 0.000000 1.000000 0.000000
vn 0.000000 1.000000 0.000000
vn 0.000000 1.000000 0.000000
vn 0.000000 1.000000 0.000000
vn 0.000000 1.000000 0.000000
vn 0.000000 1.000000 0.000000
vn 0.000000 1.000000 0.000000
vn 0.000000 1.000000 0.000000
vn 0.000000 1.000000 0.000001
vn 0.000000 1.000000 0.000001
vn -0.650488 0.390745 0.651294
vn -0.246703 0.404682 0.880551
vn -0.246703 0.404682 0.880551
vn -0.650488 0.390745 0.651294
vn -0.744223 0.387253 0.544212
vn -0.650488 0.390745 0.651294
vn -0.650488 0.390745 0.651294
vn -0.744223 0.387254 0.544212
vn -0.246703 0.404682 0.880551
vn 0.090544 0.420174 0.902915
vn 0.081486 0.417049 0.905224
vn -0.246703 0.404682 0.880551
vn 0.090544 0.420174 0.902915
vn 0.217877 0.460022 0.860761
vn 0.217877 0.460022 0.860761
vn 0.081486 0.417049 0.905224
vn 0.587938 0.554700 0.588758
vn 0.587938 0.554700 0.588758
vn 0.587938 0.554700 0.588758
vn 0.587938 0.554700 0.588758
vn 0.793360 0.554700 0.250773
vn 0.736949 0.561497 0.376333
vn 0.720438 0.376319 0.582540
vn 0.793360 0.554700 0.250773
vn -0.857652 0.497131 -0.131509
vn -0.888629 0.455765 -0.051160
vn -0.900719 0.431102 -0.053450
vn -0.884762 0.439316 -0.155556
vn 0.736949 0.561497 0.376333
vn 0.644894 0.554700 0.525756
vn 0.708161 0.377417 0.596711
vn 0.720438 0.376319 0.582540
vn -0.808859 0.556352 -0.190316
vn -0.857652 0.497131 -0.131509
vn -0.884762 0.439316 -0.155556
vn -0.875211 0.435878 -0.209800
vn 0.832050 0.554700 0.000000
vn 0.832050 0.554700 0.000000
vn 0.924952 0.380083 0.000000
vn 0.926695 0.375814 0.000000
vn -0.824862 0.554701 -0.109135
vn -0.808859 0.556352 -0.190316
vn -0.875211 0.435878 -0.209800
vn -0.882921 0.454757 -0.116817
vn -0.138338 0.491608 -0.859758
vn -0.244345 0.517199 -0.820245
vn -0.245647 0.428820 -0.869351
vn -0.153726 0.405086 -0.901262
vn 0.099551 0.435180 -0.894823
vn -0.138338 0.491608 -0.859758
vn -0.153726 0.405086 -0.901262
vn 0.082168 0.367732 -0.926295
vn 0.607062 0.468393 -0.641938
vn 0.388565 0.436346 -0.811554
vn 0.408738 0.357186 -0.839852
vn 0.626293 0.389935 -0.675062
vn 0.388565 0.436346 -0.811554
vn 0.099551 0.435180 -0.894823
vn 0.082168 0.367732 -0.926295
vn 0.408738 0.357186 -0.839852
vn -0.089519 0.488572 0.867919
vn -0.035446 0.489042 0.871540
vn -0.035446 0.489042 0.871540
vn -0.089519 0.488572 0.867919
vn -0.884762 0.439316 -0.155556
vn -0.900719 0.431102 -0.053450
vn -0.914226 0.401299 -0.056124
vn -0.902008 0.385411 -0.194523
vn -0.035446 0.489042 0.871540
vn 0.013189 0.420201 0.907335
vn 0.013213 0.420071 0.907395
vn -0.035446 0.489042 0.871540
vn 0.013189 0.420201 0.907335
vn 0.025050 0.356164 0.934088
vn 0.025050 0.356164 0.934088
vn 0.013213 0.420071 0.907395
vn 0.650916 0.277183 0.706738
vn 0.720438 0.376319 0.582540
vn 0.692633 0.268959 0.669269
vn 0.650916 0.277183 0.706738
vn 0.720438 0.376319 0.582540
vn 0.708161 0.377417 0.596711
vn 0.733064 0.259639 0.628653
vn 0.692633 0.268959 0.669269
vn -0.875211 0.435878 -0.209800
vn -0.884762 0.439316 -0.155556
vn -0.902008 0.385411 -0.194523
vn -0.899291 0.380431 -0.215749
vn 0.926695 0.375814 0.000000
vn 0.924952 0.380083 0.000000
vn 0.969325 0.245784 0.000000
vn 0.969325 0.245784 0.000000
vn -0.882921 0.454757 -0.116817
vn -0.875211 0.435878 -0.209800
vn -0.899291 0.380431 -0.215749
vn -0.918795 0.375551 -0.121563
vn -0.153726 0.405086 -0.901262
vn -0.245647 0.428820 -0.869351
vn -0.229280 0.337687 -0.912906
vn -0.152754 0.365440 -0.918216
vn 0.082168 0.367732 -0.926295
vn -0.153726 0.405086 -0.901262
vn -0.152754 0.365440 -0.918216
vn 0.046897 0.372690 -0.926770
vn 0.626293 0.389935 -0.675062
vn 0.408738 0.357186 -0.839852
vn 0.417028 0.298383 -0.858519
vn 0.645435 0.273013 -0.713356
vn 0.408738 0.357186 -0.839852
vn 0.082168 0.367732 -0.926295
vn 0.046897 0.372690 -0.926770
vn 0.417028 0.298383 -0.858519
vn 0.132593 0.420220 0.897683
vn 0.033495 0.420922 0.906478
vn 0.033495 0.420922 0.906478
vn 0.132593 0.420220 0.897683
vn -0.899291 0.380431 -0.215749
vn -0.902008 0.385411 -0.194523
vn -0.862114 0.420220 -0.283152
vn -0.882443 0.421707 -0.208464
vn 0.033495 0.420922 0.906478
vn -0.033624 0.460162 0.887198
vn -0.037725 0.464944 0.884536
vn 0.033495 0.420922 0.906478
vn -0.033624 0.460162 0.887198
vn -0.091589 0.525902 0.845600
vn -0.091589 0.525902 0.845600
vn -0.037725 0.464944 0.884536
vn 0.661580 0.749875 0.000000
vn 0.661580 0.749875 0.000000
vn 0.661580 0.749875 0.000000
vn 0.661580 0.749875 0.000000
vn -0.918795 0.375551 -0.121563
vn -0.899291 0.380431 -0.215749
vn -0.882443 0.421707 -0.208464
vn -0.899582 0.420221 -0.119021
vn -0.152754 0.365440 -0.918216
vn -0.229280 0.337687 -0.912906
vn -0.193892 0.379732 -0.904549
vn -0.144538 0.461571 -0.875249
vn 0.430292 0.749875 -0.502530
vn 0.430292 0.749875 -0.502530
vn 0.430292 0.749875 -0.502530
vn 0.430292 0.749875 -0.502530
vn 0.046897 0.372690 -0.926770
vn -0.152754 0.365440 -0.918216
vn -0.144538 0.461571 -0.875249
vn -0.093367 0.539342 -0.836895
s off
g rock_low:Rocks rock_low:rock3 polySurface4 rock_low:polySurface1
usemtl StingrayPBS1SG
f 16/1/1 17/2/2 18/3/3 19/4/4
f 17/2/5 20/5/6 21/6/7 18/3/8
f 20/5/9 22/7/10 23/8/11 21/6/12
f 22/7/13 24/9/14 25/10/15 23/8/16
f 34/11/17 35/12/18 36/13/19 37/14/20
f 35/12/21 38/15/22 39/16/23 36/13/24
f 38/15/25 40/17/26 41/18/27 39/16/28
f 40/17/29 42/19/30 43/20/31 41/18/32
f 51/21/33 52/22/34 53/23/35 54/24/36
f 52/22/37 55/25/38 56/26/39 53/23/40
f 55/25/41 57/27/42 58/28/43 56/26/44
f 41/18/45 43/20/46 46/29/47 45/30/48
f 54/24/49 53/23/50 59/31/51
f 53/23/52 56/26/53 60/32/54 59/31/55
f 56/26/56 58/28/57 61/33/58 60/32/59
f 45/30/60 46/29/61 50/34/62 49/35/63
f 1/36/64 2/37/65 17/38/66 16/39/67
f 6/40/68 1/36/69 16/39/70 19/41/71
f 2/37/72 3/42/73 20/43/74 17/38/75
f 3/42/76 4/44/77 22/45/78 20/43/79
f 4/46/80 5/47/81 24/48/82 22/49/83
f 5/50/84 7/51/85 25/52/86 24/53/87
f 8/54/88 6/55/89 19/56/90 26/57/91
f 7/51/92 9/58/93 27/59/94 25/52/95
f 10/60/96 8/54/97 26/57/98 28/61/99
f 9/62/100 11/63/101 29/64/102 27/65/103
f 12/66/104 10/60/105 28/61/106 30/67/107
f 13/68/108 12/69/109 30/70/110 31/71/111
f 14/72/112 13/68/113 31/71/114 32/73/115
f 11/74/116 15/75/117 33/76/118 29/77/119
f 15/75/120 14/72/121 32/73/122 33/76/123
f 19/78/124 18/79/125 35/80/126 34/81/127
f 26/57/128 19/56/129 34/82/130 37/83/131
f 18/79/132 21/84/133 38/85/134 35/80/135
f 21/84/136 23/86/137 40/87/138 38/85/139
f 23/88/140 25/52/141 42/89/142 40/90/143
f 25/52/144 27/59/145 43/91/146 42/89/147
f 28/61/148 26/57/149 37/83/150 44/92/151
f 27/65/152 29/64/153 46/93/154 43/94/155
f 30/67/156 28/61/157 44/92/158 47/95/159
f 31/71/160 30/70/161 47/96/162 48/97/163
f 32/73/164 31/71/165 48/97/166 49/98/167
f 29/77/168 33/76/169 50/99/170 46/100/171
f 33/76/172 32/73/173 49/98/174 50/99/175
f 37/101/176 36/102/177 52/103/178 51/104/179
f 44/92/180 37/83/181 51/105/182 54/106/183
f 36/102/184 39/107/185 55/108/186 52/103/187
f 39/107/188 41/109/189 57/110/190 55/108/191
f 41/111/192 45/112/193 58/113/194 57/114/195
f 47/95/196 44/92/197 54/106/198 59/115/199
f 48/97/200 47/96/201 59/116/202 60/117/203
f 45/118/204 49/119/205 61/120/206 58/121/207
f 49/98/208 48/97/209 60/117/210 61/122/211
