# This file uses centimeters as units for non-parametric coordinates.

mtllib SmolTree.mtl
g default
v -1.192302 -0.062076 1.601044
v -1.371323 -0.062076 1.601044
v -1.460833 -0.062076 1.756081
v -1.371323 -0.062076 1.911118
v -1.192302 -0.062076 1.911118
v -1.102791 -0.062076 1.756081
v -1.215905 0.309661 1.679632
v -1.394926 0.309661 1.679632
v -1.484437 0.309661 1.834669
v -1.394926 0.309661 1.989706
v -1.215905 0.309661 1.989706
v -1.126395 0.309661 1.834669
v -1.189858 0.646185 1.699246
v -1.368879 0.646185 1.699246
v -1.458390 0.646185 1.854283
v -1.368879 0.646185 2.009320
v -1.189858 0.646185 2.009320
v -1.100348 0.646185 1.854283
v -1.164410 0.982709 1.672719
v -1.343431 0.982709 1.672719
v -1.432942 0.982709 1.827755
v -1.343431 0.982709 1.982792
v -1.164410 0.982709 1.982792
v -1.074900 0.982709 1.827755
vt 0.949661 0.864327
vt 0.904103 0.691523
vt 0.948271 0.913763
vt 0.841834 0.114670
vt 0.872543 0.074476
vt 0.886362 0.643829
vt 0.932240 0.865818
vt 0.887847 0.687854
vt 0.934045 0.917996
vt 0.858151 0.117759
vt 0.887054 0.077842
vt 0.872455 0.639502
vt 0.918461 0.855978
vt 0.871876 0.689989
vt 0.919786 0.909882
vt 0.875595 0.120700
vt 0.902581 0.075229
vt 0.858854 0.645966
vt 0.874273 0.000000
vt 0.931122 0.688839
vt 0.861412 0.050611
vt 0.968545 0.948804
vt 0.965804 0.893872
vt 0.935473 0.732902
vt 0.915018 0.024444
vt 0.910180 0.963441
vt 0.884641 0.734342
vt 0.899758 0.030856
vt 0.926696 0.969548
vt 0.899392 0.737394
vt 0.883634 0.025908
vt 0.942095 0.963166
vt 0.912924 0.742042
vt 0.909964 0.650237
vt 0.824637 0.091207
vt 0.965112 0.841006
vn 0.000000 0.206836 -0.978376
vn 0.000000 0.144727 -0.989471
vn 0.452190 0.136761 -0.881374
vn 0.404902 0.213660 -0.889046
vn -0.966333 -0.006983 -0.257198
vn -0.992937 -0.032436 0.114120
vn -0.864118 0.066333 -0.498899
vn -0.864914 0.050651 -0.499358
vn -0.855056 -0.158656 0.493667
vn -0.865709 -0.027050 0.499817
vn 0.643707 -0.118946 0.755972
vn 0.352234 -0.130753 0.926733
vn 0.000000 -0.144727 0.989472
vn 0.000000 -0.206836 0.978376
vn 0.864914 -0.050651 0.499358
vn 0.864118 -0.066333 0.498899
vn 0.865709 0.027050 -0.499817
vn 0.855056 0.158656 -0.493667
vn 0.000000 0.010116 -0.999949
vn 0.553971 -0.059383 -0.830415
vn -0.987800 0.078324 0.134597
vn -0.864682 0.055681 -0.499224
vn -0.863474 0.076703 0.498527
vn 0.435206 -0.014861 0.900208
vn 0.000000 -0.010116 0.999949
vn 0.864682 -0.055681 0.499224
vn 0.863474 -0.076703 -0.498527
vn 0.000000 -0.078585 -0.996907
vn 0.550908 -0.106906 -0.827691
vn -0.989086 0.064347 -0.132543
vn -0.865731 0.026066 -0.499830
vn -0.861299 0.104331 0.497271
vn 0.654885 0.010045 0.755662
vn 0.000000 0.078585 0.996907
vn 0.865731 -0.026066 0.499830
vn 0.861299 -0.104331 -0.497271
s 1
g pCylinder1 SmolTree1 TREES
usemtl StingrayPBS2SG
f 2/24/1 8/33/2 7/2/3 1/20/4
s 2
f 3/23/5 9/3/6 8/1/7 2/36/8
f 4/22/9 10/32/10 9/3/6 3/23/5
s 3
f 5/21/11 11/5/12 10/4/13 4/35/14
f 6/19/15 12/31/16 11/5/12 5/21/11
s 1
f 1/20/4 7/2/3 12/6/17 6/34/18
f 7/2/3 8/33/2 14/30/19 13/8/20
s 2
f 8/1/7 9/3/6 15/9/21 14/7/22
f 9/3/6 10/32/10 16/29/23 15/9/21
s 3
f 10/4/13 11/5/12 17/11/24 16/10/25
f 11/5/12 12/31/16 18/28/26 17/11/24
s 1
f 12/6/17 7/2/3 13/8/20 18/12/27
f 13/8/20 14/30/19 20/27/28 19/14/29
s 2
f 14/7/22 15/9/21 21/15/30 20/13/31
f 15/9/21 16/29/23 22/26/32 21/15/30
s 3
f 16/10/25 17/11/24 23/17/33 22/16/34
f 17/11/24 18/28/26 24/25/35 23/17/33
s 1
f 18/12/27 13/8/20 19/14/29 24/18/36
g default
v -1.083166 1.472541 1.422502
v -1.455077 1.472541 1.422502
v -1.641032 1.472541 1.744586
v -1.455077 1.472541 2.066670
v -1.083167 1.472541 2.066670
v -0.897211 1.472541 1.744586
v -1.434503 2.216362 1.756081
v -1.269122 1.472541 1.744586
vt 0.723344 0.499368
vt 0.680924 0.491201
vt 0.878133 0.392774
vt 0.852011 0.427180
vt 0.956759 0.528914
vt 0.937122 0.490436
vt 0.928026 0.481893
vt 0.931780 0.654597
vt 0.953379 0.617185
vt 0.974979 0.654597
vt 0.996578 0.617185
vt 0.910180 0.617185
vt 0.931780 0.579774
vt 0.965491 0.571221
vt 0.917853 0.375791
vt 0.872541 0.559724
vt 0.755678 0.528015
vt 0.691097 0.597303
vt 0.974979 0.579774
vn 0.000000 -1.000000 0.000000
vn 0.000000 -1.000000 0.000000
vn 0.000000 -1.000000 0.000000
vn 0.466433 0.535915 -0.703730
vn 0.000000 0.409201 -0.912444
vn 0.415226 0.528271 -0.740619
vn -0.840525 0.240880 -0.485277
vn -0.963515 0.267607 -0.005038
vn -0.963554 0.267504 0.002331
vn -0.843483 0.226675 0.486985
vn 0.000000 0.385316 0.922784
vn 0.475383 0.520662 0.709170
vn 0.418701 0.511183 0.750587
vn 0.736750 0.525610 0.425363
vn 0.731649 0.535027 -0.422417
vn 0.000000 -1.000000 0.000000
vn 0.000000 -1.000000 0.000000
vn 0.000000 -1.000000 0.000000
vn 0.000000 -1.000000 0.000000
s 1
g SmolTree1 TREES pCone1
usemtl StingrayPBS2SG
f 27/44/37 32/45/38 28/46/39
s 2
f 25/37/40 26/53/41 31/54/42
s 3
f 26/42/43 27/41/44 31/52/45
f 27/41/44 28/50/46 31/52/45
s 4
f 28/40/47 29/39/48 31/43/49
f 29/39/48 30/51/50 31/43/49
s 2
f 30/38/51 25/37/40 31/54/42
s 1
f 32/45/38 29/47/52 28/46/39
f 26/48/53 32/45/38 27/44/37
f 25/49/54 30/55/55 32/45/38
f 25/49/54 32/45/38 26/48/53
f 32/45/38 30/55/55 29/47/52
g default
v -0.973766 0.920155 1.347726
v -1.537108 0.920155 1.347725
v -1.818779 0.920155 1.835593
v -1.537108 0.920155 2.323462
v -0.973766 0.920155 2.323462
v -0.692096 0.920155 1.835593
v -1.388354 2.046838 1.715186
v -1.255437 0.920155 1.835593
vt 0.338622 0.682056
vt 0.273738 0.673582
vt 0.749544 0.119348
vt 0.711720 0.172743
vt 0.901938 0.305277
vt 0.860517 0.254622
vt 0.843067 0.244613
vt 0.826559 0.759699
vt 0.891993 0.759699
vt 0.859276 0.816367
vt 0.891993 0.873035
vt 0.924711 0.816367
vt 0.826559 0.873035
vt 0.922960 0.367243
vt 0.809771 0.093768
vt 0.773311 0.362521
vt 0.394239 0.716528
vt 0.307034 0.824427
vt 0.793841 0.816367
vn 0.000000 -1.000000 0.000000
vn 0.000000 -1.000000 0.000000
vn 0.000000 -1.000000 0.000000
vn 0.492389 0.428304 -0.757699
vn 0.000000 0.310069 -0.950714
vn 0.440474 0.420737 -0.793072
vn -0.834509 0.267316 -0.481805
vn -0.932406 0.359824 0.033864
vn -0.934534 0.355638 -0.012915
vn -0.808392 0.358707 0.466725
vn 0.000000 0.475068 0.879949
vn 0.430618 0.546311 0.718409
vn 0.416636 0.545800 0.726992
vn 0.746333 0.507263 0.430896
vn 0.780210 0.434008 -0.450454
vn 0.000000 -1.000000 0.000000
vn 0.000000 -1.000000 0.000000
vn 0.000000 -1.000000 0.000000
vn 0.000000 -1.000000 0.000000
s 1
g SmolTree1 TREES pCone2
usemtl StingrayPBS2SG
f 33/63/56 38/64/57 40/65/58
s 2
f 33/56/59 34/72/60 39/73/61
s 3
f 34/61/62 35/60/63 39/71/64
f 35/60/63 36/69/65 39/71/64
s 4
f 36/59/66 37/58/67 39/62/68
f 37/58/67 38/70/69 39/62/68
s 2
f 38/57/70 33/56/59 39/73/61
s 1
f 36/66/71 40/65/58 37/67/72
f 35/68/73 40/65/58 36/66/71
f 34/74/74 40/65/58 35/68/73
f 33/63/56 40/65/58 34/74/74
f 37/67/72 40/65/58 38/64/57
